<?xml version="1.0" encoding="utf-8"?>
<svg viewBox="0 0 500 200" style="enable-background:new 0 0 500 200;" xmlns="http://www.w3.org/2000/svg">
  <defs>
    <style type="text/css">
	.st0{fill:#153D89;}
	.st1{fill:#35A8E0;}
	.st2{fill:#FFFFFF;}
</style>
  </defs>
  <rect width="500" height="200" style="fill: rgba(0, 0, 0, 0);"/>
  <g>
    <g>
      <path class="st2" d="M150.3,92.54c0,0,6.3,7.25,14.84,7.25c4.66,0,8.8-2.5,8.8-7.25c0-10.44-28.82-9.58-28.82-28.65 c0-9.92,8.63-17.26,20.45-17.26c7.16,0,18.21,3.37,18.21,12.08v5.69H173.6v-2.76c0-2.85-4.06-4.75-8.11-4.75 c-5.18,0-8.97,2.67-8.97,6.56c0,10.44,28.82,8.37,28.82,28.48c0,9.75-7.51,18.03-20.36,18.03c-13.55,0-21.05-9.49-21.05-9.49 L150.3,92.54z" style=""/>
      <path class="st2" d="M191.81,99.36h6.13V57.25h-6.13v-9.58h22.95v9.58h-6.13v42.11h6.13v9.58h-22.95V99.36z" style=""/>
      <path class="st2" d="M227.19,92.54c0,0,6.3,7.25,14.84,7.25c4.66,0,8.8-2.5,8.8-7.25c0-10.44-28.82-9.58-28.82-28.65 c0-9.92,8.63-17.26,20.45-17.26c7.16,0,18.21,3.37,18.21,12.08v5.69h-10.18v-2.76c0-2.85-4.06-4.75-8.11-4.75 c-5.18,0-8.97,2.67-8.97,6.56c0,10.44,28.82,8.37,28.82,28.48c0,9.75-7.51,18.03-20.36,18.03c-13.55,0-21.05-9.49-21.05-9.49 L227.19,92.54z" style=""/>
      <path class="st2" d="M299.24,46.63c15.01,0,22.35,7.77,22.35,7.77l-6.39,8.11c0,0-6.38-5.44-15.7-5.44 c-10.61,0-19.67,8.37-19.67,20.8c0,13.38,9.15,21.57,20.11,21.57c9.75,0,15.53-6.39,15.53-6.39v-4.57c0-1.29-0.69-1.9-1.9-1.9 h-3.71v-9.58h9.92c4.14,0,5.87,1.73,5.87,5.78v26.15h-9.66V106c0-1.29,0.09-2.59,0.09-2.59h-0.17c0,0-6.56,6.56-18.03,6.56 c-16.05,0-29.77-12.25-29.77-32.01C268.09,60.35,281.47,46.63,299.24,46.63z" style=""/>
      <path class="st2" d="M337.47,57.25h-5.61v-9.58h37.02c4.06,0,5.87,1.81,5.87,5.87v9.32h-10.27v-3.71c0-1.21-0.69-1.9-1.9-1.9 h-13.81V73.3h19.85v9.58h-19.85v14.58c0,1.21,0.69,1.9,1.9,1.9h14.15c1.21,0,1.9-0.69,1.9-1.9v-3.71h10.27v9.32 c0,4.14-1.81,5.87-5.87,5.87h-27.79c-4.14,0-5.87-1.73-5.87-5.87V57.25z" style=""/>
      <path class="st2" d="M382.69,59.15c-0.52-1.47-1.21-1.9-2.68-1.9h-1.55v-9.58h7.16c4.31,0,5.87,1.12,7.25,5l11.74,34.17 c1.21,3.45,2.33,8.97,2.33,8.97h0.17c0,0,1.12-5.52,2.33-8.97l11.74-34.17c1.38-3.88,2.85-5,7.16-5h7.25v9.58h-1.64 c-1.47,0-2.16,0.43-2.67,1.9l-18.29,49.79h-11.91L382.69,59.15z" style=""/>
      <path class="st2" d="M445.25,92.54c0,0,6.3,7.25,14.84,7.25c4.66,0,8.8-2.5,8.8-7.25c0-10.44-28.82-9.58-28.82-28.65 c0-9.92,8.63-17.26,20.45-17.26c7.16,0,18.21,3.37,18.21,12.08v5.69h-10.18v-2.76c0-2.85-4.06-4.75-8.11-4.75 c-5.18,0-8.97,2.67-8.97,6.56c0,10.44,28.82,8.37,28.82,28.48c0,9.75-7.51,18.03-20.36,18.03c-13.55,0-21.05-9.49-21.05-9.49 L445.25,92.54z" style=""/>
    </g>
    <rect x="310.23" y="-51.49" transform="matrix(6.123234e-17 -1 1 6.123234e-17 194.2841 428.6101)" class="st2" width="2.43" height="337.31" style=""/>
    <g>
      <rect x="50.88" y="79.64" class="st2" width="10.12" height="36.26" style=""/>
      <rect x="64.37" y="93.97" class="st2" width="10.12" height="21.93" style=""/>
      <rect x="92.2" y="104.94" class="st2" width="10.12" height="10.96" style=""/>
      <rect x="78.7" y="89.76" class="st2" width="10.12" height="26.14" style=""/>
      <g>
        <path class="st2" d="M141.95,151.7l-21.2-25.18c-0.11-0.13-0.24-0.22-0.35-0.32c-2.36,3.03-5.12,5.86-8.18,8.43 c-3.06,2.57-6.33,4.8-9.75,6.61c0.1,0.13,0.18,0.28,0.28,0.4l21.15,25.22c4.19,4.98,11.63,5.62,16.6,1.44 C145.47,164.12,146.12,156.67,141.95,151.7z" style=""/>
        <path class="st2" d="M115.84,54.53c-19.25-22.91-53.56-25.89-76.48-6.64c-22.94,19.25-25.93,53.57-6.66,76.5 c19.27,22.91,53.57,25.89,76.49,6.64C132.11,111.78,135.09,77.45,115.84,54.53z M43.51,115.32 C29.25,98.36,31.47,72.94,48.43,58.7c16.97-14.25,42.37-12.05,56.62,4.91c14.25,16.96,12.03,42.35-4.92,56.63 C83.17,134.44,57.76,132.29,43.51,115.32z" style=""/>
      </g>
    </g>
    <g>
      <path class="st2" d="M144.9,132.18c0,0,0.74,0.85,1.74,0.85c0.55,0,1.03-0.29,1.03-0.85c0-1.22-3.38-1.12-3.38-3.36 c0-1.16,1.01-2.02,2.4-2.02c0.84,0,2.13,0.39,2.13,1.42v0.67h-1.19v-0.32c0-0.33-0.48-0.56-0.95-0.56c-0.61,0-1.05,0.31-1.05,0.77 c0,1.22,3.38,0.98,3.38,3.34c0,1.14-0.88,2.11-2.39,2.11c-1.59,0-2.47-1.11-2.47-1.11L144.9,132.18z" style=""/>
      <path class="st2" d="M150.26,130.25c0-0.15-0.08-0.22-0.22-0.22h-0.4v-1.09h1.22c0.48,0,0.68,0.21,0.68,0.69v3.17 c0,0.14,0.08,0.22,0.22,0.22h0.4v1.08h-1.22c-0.48,0-0.68-0.2-0.68-0.69V130.25z M150.32,126.92h1.11v1.18h-1.11V126.92z" style=""/>
      <path class="st2" d="M153.27,132.46c0,0,0.66,0.76,1.54,0.76c0.39,0,0.7-0.16,0.7-0.51c0-0.73-2.72-0.72-2.72-2.39 c0-1.03,0.93-1.51,2-1.51c0.7,0,1.81,0.23,1.81,1.07v0.54h-1.13v-0.25c0-0.24-0.36-0.36-0.65-0.36c-0.46,0-0.77,0.16-0.77,0.46 c0,0.81,2.74,0.65,2.74,2.37c0,0.97-0.86,1.58-1.98,1.58c-1.42,0-2.14-0.92-2.14-0.92L153.27,132.46z" style=""/>
      <path class="st2" d="M158,129.96h-0.67v-1.02h0.7v-1.41h1.25v1.41h1.17v1.02h-1.17v2.08c0,0.85,0.67,0.97,1.02,0.97 c0.14,0,0.23-0.02,0.23-0.02v1.12c0,0-0.16,0.03-0.39,0.03c-0.72,0-2.14-0.21-2.14-1.94V129.96z" style=""/>
      <path class="st2" d="M163.75,128.82c1.48,0,2.29,1.08,2.29,2.45c0,0.15-0.03,0.48-0.03,0.48h-3.56c0.1,0.91,0.77,1.39,1.55,1.39 c0.83,0,1.45-0.58,1.45-0.58l0.54,0.89c0,0-0.79,0.78-2.07,0.78c-1.71,0-2.77-1.23-2.77-2.7 C161.13,129.93,162.2,128.82,163.75,128.82z M164.72,130.85c-0.02-0.62-0.44-1.04-0.97-1.04c-0.66,0-1.12,0.39-1.26,1.04H164.72z" style=""/>
      <path class="st2" d="M167.28,130.25c0-0.15-0.08-0.22-0.22-0.22h-0.4v-1.09h1.18c0.46,0,0.68,0.21,0.68,0.58v0.15 c0,0.11-0.01,0.22-0.01,0.22h0.02c0.24-0.5,0.86-1.07,1.67-1.07c0.78,0,1.28,0.36,1.51,1.06h0.02c0.27-0.56,0.94-1.06,1.76-1.06 c1.07,0,1.69,0.61,1.69,1.96v2.01c0,0.14,0.08,0.22,0.22,0.22h0.39v1.08h-1.21c-0.49,0-0.69-0.2-0.69-0.69v-2.39 c0-0.59-0.11-1.03-0.71-1.03c-0.64,0-1.09,0.54-1.23,1.18c-0.06,0.2-0.08,0.42-0.08,0.66v2.27h-1.28v-3.08 c0-0.56-0.08-1.03-0.7-1.03c-0.65,0-1.08,0.54-1.24,1.19c-0.05,0.2-0.08,0.42-0.08,0.65v2.27h-1.27V130.25z" style=""/>
      <path class="st2" d="M179.38,130.86h0.16v-0.04c0-0.74-0.29-1.01-0.95-1.01c-0.23,0-0.69,0.06-0.69,0.34v0.27h-1.19v-0.55 c0-0.96,1.36-1.06,1.89-1.06c1.72,0,2.23,0.9,2.23,2.05v1.92c0,0.14,0.08,0.22,0.22,0.22h0.4v1.08h-1.15 c-0.48,0-0.66-0.26-0.66-0.57c0-0.13,0.01-0.22,0.01-0.22h-0.02c0,0-0.39,0.91-1.56,0.91c-0.92,0-1.76-0.58-1.76-1.61 C176.32,130.99,178.54,130.86,179.38,130.86z M178.39,133.22c0.69,0,1.17-0.73,1.17-1.36v-0.12h-0.22c-0.67,0-1.73,0.09-1.73,0.81 C177.61,132.9,177.86,133.22,178.39,133.22z" style=""/>
      <path class="st2" d="M187,128.82c1.12,0,1.49,0.63,1.49,0.63h0.02c0,0-0.01-0.13-0.01-0.3v-0.91c0-0.15-0.08-0.22-0.22-0.22h-0.4 v-1.09h1.22c0.48,0,0.69,0.21,0.69,0.69v5.19c0,0.14,0.08,0.22,0.22,0.22h0.39v1.08h-1.18c-0.47,0-0.64-0.22-0.64-0.53 c0-0.11,0-0.19,0-0.19h-0.02c0,0-0.42,0.84-1.61,0.84c-1.4,0-2.3-1.1-2.3-2.7C184.65,129.88,185.64,128.82,187,128.82z M188.53,131.51c0-0.8-0.41-1.59-1.27-1.59c-0.71,0-1.29,0.58-1.29,1.6c0,0.98,0.52,1.62,1.27,1.62 C187.9,133.14,188.53,132.65,188.53,131.51z" style=""/>
      <path class="st2" d="M193.57,128.82c1.48,0,2.29,1.08,2.29,2.45c0,0.15-0.03,0.48-0.03,0.48h-3.56c0.1,0.91,0.77,1.39,1.55,1.39 c0.83,0,1.45-0.58,1.45-0.58l0.54,0.89c0,0-0.79,0.78-2.07,0.78c-1.71,0-2.77-1.23-2.77-2.7 C190.95,129.93,192.02,128.82,193.57,128.82z M194.54,130.85c-0.02-0.62-0.44-1.04-0.97-1.04c-0.66,0-1.12,0.39-1.26,1.04H194.54z " style=""/>
      <path class="st2" d="M199.33,132.98h0.72v-4.94h-0.72v-1.12h2.69v1.12h-0.72v4.94h0.72v1.12h-2.69V132.98z" style=""/>
      <path class="st2" d="M203.24,130.25c0-0.15-0.08-0.22-0.22-0.22h-0.4v-1.09h1.18c0.46,0,0.68,0.21,0.68,0.58v0.15 c0,0.11-0.02,0.22-0.02,0.22h0.02c0.22-0.43,0.78-1.07,1.82-1.07c1.14,0,1.8,0.6,1.8,1.96v2.01c0,0.14,0.08,0.22,0.22,0.22h0.4 v1.08h-1.22c-0.49,0-0.69-0.2-0.69-0.69v-2.37c0-0.63-0.16-1.05-0.81-1.05c-0.69,0-1.2,0.44-1.39,1.05 c-0.07,0.21-0.1,0.45-0.1,0.69v2.37h-1.27V130.25z" style=""/>
      <path class="st2" d="M209.75,129.96h-0.64v-1.02h0.64v-0.15c0-1.69,1.39-1.91,2.1-1.91c0.26,0,0.44,0.03,0.44,0.03V128 c0,0-0.11-0.02-0.26-0.02c-0.36,0-0.99,0.09-0.99,0.84v0.12h1.1v1.02h-1.1v4.14h-1.28V129.96z" style=""/>
      <path class="st2" d="M215.33,128.82c1.58,0,2.83,1.12,2.83,2.7c0,1.59-1.25,2.7-2.83,2.7c-1.57,0-2.82-1.11-2.82-2.7 C212.5,129.94,213.76,128.82,215.33,128.82z M215.33,133.13c0.84,0,1.54-0.65,1.54-1.61c0-0.95-0.7-1.61-1.54-1.61 c-0.83,0-1.53,0.66-1.53,1.61C213.8,132.48,214.5,133.13,215.33,133.13z" style=""/>
      <path class="st2" d="M219.32,130.25c0-0.15-0.08-0.22-0.22-0.22h-0.4v-1.09h1.17c0.46,0,0.69,0.19,0.69,0.63v0.3 c0,0.19-0.02,0.32-0.02,0.32h0.02c0.23-0.74,0.85-1.33,1.64-1.33c0.11,0,0.23,0.02,0.23,0.02v1.26c0,0-0.13-0.02-0.31-0.02 c-0.55,0-1.17,0.31-1.41,1.08c-0.07,0.25-0.11,0.54-0.11,0.84v2.04h-1.27V130.25z" style=""/>
      <path class="st2" d="M223.55,130.25c0-0.15-0.08-0.22-0.22-0.22h-0.4v-1.09h1.18c0.46,0,0.68,0.21,0.68,0.58v0.15 c0,0.11-0.01,0.22-0.01,0.22h0.02c0.24-0.5,0.86-1.07,1.67-1.07c0.78,0,1.28,0.36,1.51,1.06h0.02c0.27-0.56,0.94-1.06,1.76-1.06 c1.07,0,1.69,0.61,1.69,1.96v2.01c0,0.14,0.08,0.22,0.22,0.22h0.39v1.08h-1.21c-0.49,0-0.69-0.2-0.69-0.69v-2.39 c0-0.59-0.11-1.03-0.71-1.03c-0.64,0-1.09,0.54-1.23,1.18c-0.06,0.2-0.08,0.42-0.08,0.66v2.27h-1.28v-3.08 c0-0.56-0.08-1.03-0.7-1.03c-0.65,0-1.08,0.54-1.24,1.19c-0.05,0.2-0.08,0.42-0.08,0.65v2.27h-1.27V130.25z" style=""/>
      <path class="st2" d="M235.65,130.86h0.16v-0.04c0-0.74-0.29-1.01-0.95-1.01c-0.23,0-0.69,0.06-0.69,0.34v0.27h-1.19v-0.55 c0-0.96,1.36-1.06,1.89-1.06c1.72,0,2.23,0.9,2.23,2.05v1.92c0,0.14,0.08,0.22,0.22,0.22h0.4v1.08h-1.15 c-0.48,0-0.66-0.26-0.66-0.57c0-0.13,0.01-0.22,0.01-0.22h-0.02c0,0-0.39,0.91-1.56,0.91c-0.92,0-1.76-0.58-1.76-1.61 C232.59,130.99,234.81,130.86,235.65,130.86z M234.66,133.22c0.69,0,1.17-0.73,1.17-1.36v-0.12h-0.22c-0.67,0-1.73,0.09-1.73,0.81 C233.88,132.9,234.14,133.22,234.66,133.22z" style=""/>
      <path class="st2" d="M241.07,128.82c0.67,0,1.87,0.27,1.87,1.16v0.61h-1.13v-0.28c0-0.28-0.42-0.4-0.74-0.4 c-0.89,0-1.53,0.68-1.53,1.61c0,1.05,0.78,1.59,1.61,1.59c0.88,0,1.53-0.7,1.53-0.7l0.54,0.89c0,0-0.75,0.91-2.13,0.93l-0.07,0.32 c0.4,0.05,0.73,0.29,0.73,0.77c0,0.67-0.55,0.89-1.08,0.89c-0.35,0-0.63-0.07-0.63-0.07v-0.71c0,0,0.21,0.08,0.44,0.08 c0.23,0,0.44-0.07,0.44-0.28c0-0.19-0.21-0.27-0.49-0.27c-0.1,0-0.21,0.02-0.21,0.02l0.22-0.81c-1.35-0.24-2.19-1.32-2.19-2.64 C238.25,130.06,239.3,128.82,241.07,128.82z" style=""/>
      <path class="st2" d="M246.77,130.86h0.16v-0.04c0-0.74-0.29-1.01-0.95-1.01c-0.23,0-0.69,0.06-0.69,0.34v0.27h-1.19v-0.55 c0-0.96,1.36-1.06,1.89-1.06c1.72,0,2.23,0.9,2.23,2.05v1.92c0,0.14,0.08,0.22,0.22,0.22h0.4v1.08h-1.15 c-0.48,0-0.66-0.26-0.66-0.57c0-0.13,0.01-0.22,0.01-0.22h-0.02c0,0-0.39,0.91-1.56,0.91c-0.92,0-1.76-0.58-1.76-1.61 C243.7,130.99,245.93,130.86,246.77,130.86z M245.43,126.91c0.7,0,0.87,0.66,1.29,0.66c0.28,0,0.41-0.3,0.41-0.63h0.8 c0,0.91-0.38,1.39-1.15,1.39c-0.7,0-0.87-0.66-1.29-0.66c-0.28,0-0.42,0.29-0.42,0.63h-0.8 C244.28,127.37,244.66,126.91,245.43,126.91z M245.77,133.22c0.69,0,1.17-0.73,1.17-1.36v-0.12h-0.22c-0.67,0-1.73,0.09-1.73,0.81 C245,132.9,245.25,133.22,245.77,133.22z" style=""/>
      <path class="st2" d="M252.18,128.82c1.58,0,2.83,1.12,2.83,2.7c0,1.59-1.25,2.7-2.83,2.7c-1.57,0-2.82-1.11-2.82-2.7 C249.36,129.94,250.61,128.82,252.18,128.82z M252.18,133.13c0.84,0,1.54-0.65,1.54-1.61c0-0.95-0.7-1.61-1.54-1.61 c-0.83,0-1.53,0.66-1.53,1.61C250.65,132.48,251.35,133.13,252.18,133.13z" style=""/>
      <path class="st2" d="M260.69,128.82c1.12,0,1.49,0.63,1.49,0.63h0.02c0,0-0.01-0.13-0.01-0.3v-0.91c0-0.15-0.08-0.22-0.22-0.22 h-0.4v-1.09h1.22c0.48,0,0.69,0.21,0.69,0.69v5.19c0,0.14,0.08,0.22,0.22,0.22h0.39v1.08h-1.18c-0.46,0-0.64-0.22-0.64-0.53 c0-0.11,0-0.19,0-0.19h-0.02c0,0-0.42,0.84-1.61,0.84c-1.4,0-2.3-1.1-2.3-2.7C258.34,129.88,259.32,128.82,260.69,128.82z M262.22,131.51c0-0.8-0.41-1.59-1.27-1.59c-0.71,0-1.29,0.58-1.29,1.6c0,0.98,0.52,1.62,1.27,1.62 C261.59,133.14,262.22,132.65,262.22,131.51z" style=""/>
      <path class="st2" d="M267.71,130.86h0.16v-0.04c0-0.74-0.29-1.01-0.95-1.01c-0.23,0-0.69,0.06-0.69,0.34v0.27h-1.19v-0.55 c0-0.96,1.36-1.06,1.89-1.06c1.72,0,2.23,0.9,2.23,2.05v1.92c0,0.14,0.08,0.22,0.22,0.22h0.4v1.08h-1.15 c-0.48,0-0.66-0.26-0.66-0.57c0-0.13,0.01-0.22,0.01-0.22h-0.02c0,0-0.39,0.91-1.56,0.91c-0.92,0-1.76-0.58-1.76-1.61 C264.65,130.99,266.87,130.86,267.71,130.86z M266.72,133.22c0.69,0,1.17-0.73,1.17-1.36v-0.12h-0.22c-0.67,0-1.73,0.09-1.73,0.81 C265.94,132.9,266.19,133.22,266.72,133.22z" style=""/>
      <path class="st2" d="M276.63,126.8c1.76,0,2.62,0.91,2.62,0.91l-0.75,0.95c0,0-0.75-0.64-1.84-0.64c-1.24,0-2.31,0.98-2.31,2.44 c0,1.57,1.07,2.53,2.36,2.53c1.14,0,1.82-0.75,1.82-0.75v-0.54c0-0.15-0.08-0.22-0.22-0.22h-0.44v-1.12h1.16 c0.49,0,0.69,0.2,0.69,0.68v3.07h-1.13v-0.34c0-0.15,0.01-0.3,0.01-0.3h-0.02c0,0-0.77,0.77-2.11,0.77 c-1.88,0-3.49-1.44-3.49-3.75C272.97,128.4,274.54,126.8,276.63,126.8z" style=""/>
      <path class="st2" d="M283.21,128.82c1.48,0,2.29,1.08,2.29,2.45c0,0.15-0.03,0.48-0.03,0.48h-3.56c0.1,0.91,0.77,1.39,1.55,1.39 c0.83,0,1.45-0.58,1.45-0.58l0.54,0.89c0,0-0.79,0.78-2.07,0.78c-1.71,0-2.77-1.23-2.77-2.7 C280.58,129.93,281.66,128.82,283.21,128.82z M284.18,130.85c-0.02-0.62-0.45-1.04-0.97-1.04c-0.66,0-1.12,0.39-1.26,1.04H284.18z " style=""/>
      <path class="st2" d="M286.74,130.25c0-0.15-0.08-0.22-0.22-0.22h-0.4v-1.09h1.17c0.46,0,0.69,0.19,0.69,0.63v0.3 c0,0.19-0.02,0.32-0.02,0.32h0.02c0.23-0.74,0.85-1.33,1.64-1.33c0.11,0,0.23,0.02,0.23,0.02v1.26c0,0-0.13-0.02-0.31-0.02 c-0.55,0-1.17,0.31-1.41,1.08c-0.07,0.25-0.11,0.54-0.11,0.84v2.04h-1.27V130.25z" style=""/>
      <path class="st2" d="M292.82,128.82c1.48,0,2.29,1.08,2.29,2.45c0,0.15-0.03,0.48-0.03,0.48h-3.56c0.1,0.91,0.77,1.39,1.55,1.39 c0.83,0,1.45-0.58,1.45-0.58l0.54,0.89c0,0-0.79,0.78-2.07,0.78c-1.71,0-2.77-1.23-2.77-2.7 C290.2,129.93,291.27,128.82,292.82,128.82z M292.23,126.93h1.1l0.93,1.38h-0.96l-0.51-0.82h-0.02l-0.52,0.82h-0.95L292.23,126.93 z M293.79,130.85c-0.02-0.62-0.45-1.04-0.97-1.04c-0.66,0-1.12,0.39-1.26,1.04H293.79z" style=""/>
      <path class="st2" d="M296.35,130.25c0-0.15-0.08-0.22-0.22-0.22h-0.4v-1.09h1.18c0.46,0,0.68,0.21,0.68,0.58v0.15 c0,0.11-0.02,0.22-0.02,0.22h0.02c0.22-0.43,0.78-1.07,1.82-1.07c1.14,0,1.8,0.6,1.8,1.96v2.01c0,0.14,0.08,0.22,0.22,0.22h0.41 v1.08h-1.22c-0.49,0-0.69-0.2-0.69-0.69v-2.37c0-0.63-0.16-1.05-0.81-1.05c-0.69,0-1.2,0.44-1.39,1.05 c-0.07,0.21-0.1,0.45-0.1,0.69v2.37h-1.27V130.25z" style=""/>
      <path class="st2" d="M305.16,128.82c0.67,0,1.87,0.27,1.87,1.16v0.61h-1.13v-0.28c0-0.28-0.42-0.4-0.74-0.4 c-0.89,0-1.53,0.68-1.53,1.61c0,1.05,0.78,1.59,1.61,1.59c0.88,0,1.53-0.7,1.53-0.7l0.54,0.89c0,0-0.77,0.93-2.17,0.93 c-1.7,0-2.79-1.2-2.79-2.7C302.34,130.06,303.39,128.82,305.16,128.82z" style=""/>
      <path class="st2" d="M308.34,130.25c0-0.15-0.08-0.22-0.22-0.22h-0.4v-1.09h1.22c0.48,0,0.68,0.21,0.68,0.69v3.17 c0,0.14,0.08,0.22,0.22,0.22h0.41v1.08h-1.22c-0.48,0-0.68-0.2-0.68-0.69V130.25z M308.4,126.92h1.11v1.18h-1.11V126.92z" style=""/>
      <path class="st2" d="M313.89,130.86h0.16v-0.04c0-0.74-0.29-1.01-0.95-1.01c-0.23,0-0.69,0.06-0.69,0.34v0.27h-1.19v-0.55 c0-0.96,1.36-1.06,1.89-1.06c1.72,0,2.23,0.9,2.23,2.05v1.92c0,0.14,0.08,0.22,0.22,0.22h0.4v1.08h-1.15 c-0.47,0-0.66-0.26-0.66-0.57c0-0.13,0.01-0.22,0.01-0.22h-0.02c0,0-0.39,0.91-1.56,0.91c-0.92,0-1.76-0.58-1.76-1.61 C310.82,130.99,313.05,130.86,313.89,130.86z M312.89,133.22c0.69,0,1.17-0.73,1.17-1.36v-0.12h-0.22c-0.67,0-1.73,0.09-1.73,0.81 C312.12,132.9,312.37,133.22,312.89,133.22z" style=""/>
      <path class="st2" d="M319.84,128.04h-0.66v-1.12h4.34c0.48,0,0.69,0.21,0.69,0.69v1.09H323v-0.43c0-0.14-0.08-0.22-0.22-0.22 h-1.62v1.88h2.33v1.12h-2.33v1.71c0,0.14,0.08,0.22,0.22,0.22h1.66c0.14,0,0.22-0.08,0.22-0.22v-0.43h1.2v1.09 c0,0.49-0.21,0.69-0.69,0.69h-3.26c-0.49,0-0.69-0.2-0.69-0.69V128.04z" style=""/>
      <path class="st2" d="M326.47,131.49l-0.85-1.28c-0.1-0.15-0.18-0.17-0.39-0.17h-0.37v-1.09h0.9c0.42,0,0.61,0.09,0.84,0.49 l0.51,0.85c0.07,0.13,0.16,0.33,0.16,0.33h0.02c0,0,0.09-0.2,0.16-0.33l0.51-0.85c0.23-0.39,0.4-0.49,0.84-0.49h0.89v1.09h-0.36 c-0.21,0-0.29,0.02-0.39,0.17l-0.86,1.28l1.69,2.61h-1.43l-0.9-1.44c-0.07-0.1-0.14-0.27-0.14-0.27h-0.02c0,0-0.08,0.16-0.15,0.27 l-0.89,1.44h-1.43L326.47,131.49z" style=""/>
      <path class="st2" d="M332.81,128.82c1.48,0,2.29,1.08,2.29,2.45c0,0.15-0.03,0.48-0.03,0.48h-3.56c0.1,0.91,0.77,1.39,1.55,1.39 c0.83,0,1.45-0.58,1.45-0.58l0.54,0.89c0,0-0.79,0.78-2.07,0.78c-1.71,0-2.77-1.23-2.77-2.7 C330.19,129.93,331.26,128.82,332.81,128.82z M333.78,130.85c-0.02-0.62-0.45-1.04-0.97-1.04c-0.66,0-1.12,0.39-1.26,1.04H333.78z " style=""/>
      <path class="st2" d="M338.65,128.82c0.67,0,1.87,0.27,1.87,1.16v0.61h-1.13v-0.28c0-0.28-0.42-0.4-0.74-0.4 c-0.89,0-1.53,0.68-1.53,1.61c0,1.05,0.78,1.59,1.61,1.59c0.88,0,1.53-0.7,1.53-0.7l0.54,0.89c0,0-0.77,0.93-2.17,0.93 c-1.7,0-2.79-1.2-2.79-2.7C335.82,130.06,336.88,128.82,338.65,128.82z" style=""/>
      <path class="st2" d="M341.76,130.25c0-0.15-0.08-0.22-0.22-0.22h-0.4v-1.09h1.22c0.48,0,0.68,0.21,0.68,0.68V132 c0,0.63,0.16,1.05,0.8,1.05c0.93,0,1.45-0.82,1.45-1.74v-2.37h1.29v3.85c0,0.14,0.08,0.22,0.22,0.22h0.4v1.08h-1.18 c-0.45,0-0.68-0.21-0.68-0.58v-0.14c0-0.12,0.01-0.23,0.01-0.23h-0.02c-0.24,0.54-0.89,1.07-1.78,1.07c-1.1,0-1.78-0.56-1.78-1.96 V130.25z" style=""/>
      <path class="st2" d="M348.26,129.96h-0.67v-1.02h0.7v-1.41h1.25v1.41h1.17v1.02h-1.17v2.08c0,0.85,0.67,0.97,1.02,0.97 c0.14,0,0.23-0.02,0.23-0.02v1.12c0,0-0.16,0.03-0.39,0.03c-0.72,0-2.14-0.21-2.14-1.94V129.96z" style=""/>
      <path class="st2" d="M352.02,130.25c0-0.15-0.08-0.22-0.22-0.22h-0.4v-1.09h1.22c0.48,0,0.68,0.21,0.68,0.69v3.17 c0,0.14,0.08,0.22,0.22,0.22h0.41v1.08h-1.22c-0.48,0-0.68-0.2-0.68-0.69V130.25z M352.08,126.92h1.11v1.18h-1.11V126.92z" style=""/>
      <path class="st2" d="M354.64,130.21c-0.05-0.13-0.14-0.18-0.28-0.18h-0.11v-1.09h0.74c0.42,0,0.63,0.13,0.76,0.49l0.97,2.71 c0.11,0.3,0.19,0.74,0.19,0.74h0.02c0,0,0.08-0.44,0.18-0.74l0.97-2.71c0.13-0.35,0.34-0.49,0.76-0.49h0.69v1.09h-0.12 c-0.14,0-0.23,0.05-0.28,0.18l-1.48,3.88h-1.53L354.64,130.21z" style=""/>
      <path class="st2" d="M362.98,130.86h0.16v-0.04c0-0.74-0.29-1.01-0.95-1.01c-0.23,0-0.69,0.06-0.69,0.34v0.27h-1.19v-0.55 c0-0.96,1.36-1.06,1.89-1.06c1.72,0,2.23,0.9,2.23,2.05v1.92c0,0.14,0.08,0.22,0.22,0.22h0.4v1.08h-1.15 c-0.47,0-0.66-0.26-0.66-0.57c0-0.13,0.01-0.22,0.01-0.22h-0.02c0,0-0.39,0.91-1.56,0.91c-0.92,0-1.76-0.58-1.76-1.61 C359.92,130.99,362.14,130.86,362.98,130.86z M361.99,133.22c0.69,0,1.17-0.73,1.17-1.36v-0.12h-0.22c-0.67,0-1.73,0.09-1.73,0.81 C361.21,132.9,361.47,133.22,361.99,133.22z" style=""/>
      <path class="st2" d="M370.6,128.82c1.12,0,1.49,0.63,1.49,0.63h0.02c0,0-0.01-0.13-0.01-0.3v-0.91c0-0.15-0.08-0.22-0.22-0.22 h-0.4v-1.09h1.22c0.48,0,0.69,0.21,0.69,0.69v5.19c0,0.14,0.08,0.22,0.22,0.22H374v1.08h-1.18c-0.47,0-0.64-0.22-0.64-0.53 c0-0.11,0-0.19,0-0.19h-0.02c0,0-0.42,0.84-1.61,0.84c-1.4,0-2.3-1.1-2.3-2.7C368.26,129.88,369.24,128.82,370.6,128.82z M372.13,131.51c0-0.8-0.42-1.59-1.27-1.59c-0.71,0-1.29,0.58-1.29,1.6c0,0.98,0.52,1.62,1.27,1.62 C371.5,133.14,372.13,132.65,372.13,131.51z" style=""/>
      <path class="st2" d="M377.17,128.82c1.48,0,2.29,1.08,2.29,2.45c0,0.15-0.03,0.48-0.03,0.48h-3.56c0.1,0.91,0.77,1.39,1.55,1.39 c0.83,0,1.45-0.58,1.45-0.58l0.54,0.89c0,0-0.79,0.78-2.07,0.78c-1.71,0-2.77-1.23-2.77-2.7 C374.55,129.93,375.62,128.82,377.17,128.82z M378.14,130.85c-0.02-0.62-0.45-1.04-0.97-1.04c-0.66,0-1.12,0.39-1.26,1.04H378.14z " style=""/>
      <path class="st2" d="M382.92,128.26c-0.06-0.17-0.14-0.22-0.31-0.22h-0.18v-1.12h0.84c0.51,0,0.69,0.13,0.85,0.59l1.38,4.01 c0.14,0.4,0.27,1.05,0.27,1.05h0.02c0,0,0.13-0.65,0.27-1.05l1.38-4.01c0.16-0.46,0.33-0.59,0.84-0.59h0.85v1.12h-0.19 c-0.17,0-0.25,0.05-0.31,0.22l-2.14,5.84h-1.4L382.92,128.26z" style=""/>
      <path class="st2" d="M390.11,130.25c0-0.15-0.08-0.22-0.22-0.22h-0.4v-1.09h1.22c0.48,0,0.68,0.21,0.68,0.69v3.17 c0,0.14,0.08,0.22,0.22,0.22h0.41v1.08h-1.22c-0.48,0-0.68-0.2-0.68-0.69V130.25z M390.17,126.92h1.11v1.18h-1.11V126.92z" style=""/>
      <path class="st2" d="M394.87,128.82c1.19,0,1.59,0.73,1.59,0.73h0.02c0,0,0-0.06,0-0.13c0-0.23,0.16-0.48,0.57-0.48h1.19v1.09 h-0.39c-0.13,0-0.22,0.07-0.22,0.2v3.55c0,1.77-1.38,2.44-2.72,2.44c-0.65,0-1.34-0.18-1.83-0.44l0.39-1.01 c0,0,0.64,0.34,1.43,0.34c0.78,0,1.46-0.33,1.46-1.26v-0.24c0-0.12,0.01-0.27,0.01-0.27h-0.02c-0.3,0.43-0.75,0.67-1.44,0.67 c-1.48,0-2.32-1.19-2.32-2.61C392.58,129.97,393.38,128.82,394.87,128.82z M396.38,131.4c0-1.17-0.59-1.49-1.28-1.49 c-0.78,0-1.2,0.57-1.2,1.44c0,0.9,0.46,1.57,1.28,1.57C395.79,132.92,396.38,132.56,396.38,131.4z" style=""/>
      <path class="st2" d="M399.33,130.25c0-0.15-0.08-0.22-0.22-0.22h-0.4v-1.09h1.22c0.48,0,0.68,0.21,0.68,0.69v3.17 c0,0.14,0.08,0.22,0.22,0.22h0.41v1.08h-1.22c-0.48,0-0.68-0.2-0.68-0.69V130.25z M399.39,126.92h1.11v1.18h-1.11V126.92z" style=""/>
      <path class="st2" d="M402.29,128.23c0-0.15-0.08-0.22-0.22-0.22h-0.41v-1.09h1.22c0.48,0,0.69,0.21,0.69,0.69v5.19 c0,0.14,0.08,0.22,0.22,0.22h0.39v1.08h-1.21c-0.49,0-0.69-0.2-0.69-0.69V128.23z" style=""/>
      <path class="st2" d="M407.82,130.86h0.16v-0.04c0-0.74-0.29-1.01-0.95-1.01c-0.23,0-0.69,0.06-0.69,0.34v0.27h-1.19v-0.55 c0-0.96,1.36-1.06,1.89-1.06c1.72,0,2.23,0.9,2.23,2.05v1.92c0,0.14,0.08,0.22,0.22,0.22h0.4v1.08h-1.15 c-0.47,0-0.66-0.26-0.66-0.57c0-0.13,0.01-0.22,0.01-0.22h-0.02c0,0-0.39,0.91-1.56,0.91c-0.92,0-1.76-0.58-1.76-1.61 C404.76,130.99,406.98,130.86,407.82,130.86z M406.62,126.93h1.1l0.93,1.38h-0.96l-0.51-0.82h-0.02l-0.52,0.82h-0.95 L406.62,126.93z M406.83,133.22c0.69,0,1.17-0.73,1.17-1.36v-0.12h-0.22c-0.67,0-1.73,0.09-1.73,0.81 C406.05,132.9,406.3,133.22,406.83,133.22z" style=""/>
      <path class="st2" d="M410.93,130.25c0-0.15-0.08-0.22-0.22-0.22h-0.4v-1.09h1.18c0.46,0,0.68,0.21,0.68,0.58v0.15 c0,0.11-0.02,0.22-0.02,0.22h0.02c0.22-0.43,0.78-1.07,1.82-1.07c1.14,0,1.8,0.6,1.8,1.96v2.01c0,0.14,0.08,0.22,0.22,0.22h0.41 v1.08h-1.22c-0.49,0-0.69-0.2-0.69-0.69v-2.37c0-0.63-0.16-1.05-0.81-1.05c-0.69,0-1.2,0.44-1.39,1.05 c-0.07,0.21-0.1,0.45-0.1,0.69v2.37h-1.27V130.25z" style=""/>
      <path class="st2" d="M419.74,128.82c0.67,0,1.87,0.27,1.87,1.16v0.61h-1.13v-0.28c0-0.28-0.42-0.4-0.74-0.4 c-0.89,0-1.53,0.68-1.53,1.61c0,1.05,0.78,1.59,1.61,1.59c0.88,0,1.53-0.7,1.53-0.7l0.54,0.89c0,0-0.77,0.93-2.17,0.93 c-1.7,0-2.79-1.2-2.79-2.7C416.92,130.06,417.97,128.82,419.74,128.82z" style=""/>
      <path class="st2" d="M422.92,130.25c0-0.15-0.08-0.22-0.22-0.22h-0.4v-1.09h1.22c0.48,0,0.68,0.21,0.68,0.69v3.17 c0,0.14,0.08,0.22,0.22,0.22h0.41v1.08h-1.22c-0.48,0-0.68-0.2-0.68-0.69V130.25z M422.98,126.92h1.11v1.18h-1.11V126.92z" style=""/>
      <path class="st2" d="M428.46,130.86h0.16v-0.04c0-0.74-0.29-1.01-0.95-1.01c-0.23,0-0.69,0.06-0.69,0.34v0.27h-1.19v-0.55 c0-0.96,1.36-1.06,1.89-1.06c1.72,0,2.23,0.9,2.23,2.05v1.92c0,0.14,0.08,0.22,0.22,0.22h0.4v1.08h-1.15 c-0.47,0-0.66-0.26-0.66-0.57c0-0.13,0.01-0.22,0.01-0.22h-0.02c0,0-0.39,0.91-1.56,0.91c-0.92,0-1.76-0.58-1.76-1.61 C425.4,130.99,427.62,130.86,428.46,130.86z M427.47,133.22c0.69,0,1.17-0.73,1.17-1.36v-0.12h-0.22c-0.67,0-1.73,0.09-1.73,0.81 C426.69,132.9,426.95,133.22,427.47,133.22z" style=""/>
      <path class="st2" d="M436.36,128.82c1.48,0,2.29,1.08,2.29,2.45c0,0.15-0.03,0.48-0.03,0.48h-3.56c0.1,0.91,0.77,1.39,1.55,1.39 c0.83,0,1.45-0.58,1.45-0.58l0.54,0.89c0,0-0.79,0.78-2.07,0.78c-1.71,0-2.77-1.23-2.77-2.7 C433.74,129.93,434.81,128.82,436.36,128.82z M437.33,130.85c-0.02-0.62-0.45-1.04-0.97-1.04c-0.66,0-1.12,0.39-1.26,1.04H437.33z " style=""/>
      <path class="st2" d="M439.89,130.25c0-0.15-0.08-0.22-0.22-0.22h-0.4v-1.09h1.18c0.46,0,0.68,0.21,0.68,0.58v0.15 c0,0.11-0.01,0.22-0.01,0.22h0.02c0.24-0.5,0.86-1.07,1.67-1.07c0.78,0,1.29,0.36,1.51,1.06h0.02c0.27-0.56,0.94-1.06,1.76-1.06 c1.07,0,1.69,0.61,1.69,1.96v2.01c0,0.14,0.08,0.22,0.22,0.22h0.39v1.08h-1.21c-0.49,0-0.69-0.2-0.69-0.69v-2.39 c0-0.59-0.11-1.03-0.71-1.03c-0.64,0-1.09,0.54-1.23,1.18c-0.06,0.2-0.08,0.42-0.08,0.66v2.27h-1.29v-3.08 c0-0.56-0.08-1.03-0.7-1.03c-0.65,0-1.08,0.54-1.24,1.19c-0.05,0.2-0.08,0.42-0.08,0.65v2.27h-1.27V130.25z" style=""/>
      <path class="st2" d="M452.35,132.18c0,0,0.74,0.85,1.74,0.85c0.55,0,1.03-0.29,1.03-0.85c0-1.22-3.38-1.12-3.38-3.36 c0-1.16,1.01-2.02,2.4-2.02c0.84,0,2.13,0.39,2.13,1.42v0.67h-1.19v-0.32c0-0.33-0.48-0.56-0.95-0.56c-0.61,0-1.05,0.31-1.05,0.77 c0,1.22,3.38,0.98,3.38,3.34c0,1.14-0.88,2.11-2.39,2.11c-1.59,0-2.47-1.11-2.47-1.11L452.35,132.18z" style=""/>
      <path class="st2" d="M460.23,130.86h0.16v-0.04c0-0.74-0.29-1.01-0.95-1.01c-0.23,0-0.69,0.06-0.69,0.34v0.27h-1.19v-0.55 c0-0.96,1.36-1.06,1.89-1.06c1.72,0,2.23,0.9,2.23,2.05v1.92c0,0.14,0.08,0.22,0.22,0.22h0.4v1.08h-1.15 c-0.47,0-0.66-0.26-0.66-0.57c0-0.13,0.01-0.22,0.01-0.22h-0.02c0,0-0.39,0.91-1.56,0.91c-0.92,0-1.76-0.58-1.76-1.61 C457.16,130.99,459.39,130.86,460.23,130.86z M459.24,133.22c0.69,0,1.17-0.73,1.17-1.36v-0.12h-0.22c-0.67,0-1.73,0.09-1.73,0.81 C458.46,132.9,458.71,133.22,459.24,133.22z" style=""/>
      <path class="st2" d="M463.32,130.25c0-0.15-0.08-0.22-0.22-0.22h-0.4v-1.09h1.22c0.48,0,0.68,0.21,0.68,0.68V132 c0,0.63,0.16,1.05,0.8,1.05c0.93,0,1.45-0.82,1.45-1.74v-2.37h1.29v3.85c0,0.14,0.08,0.22,0.22,0.22h0.4v1.08h-1.18 c-0.45,0-0.68-0.21-0.68-0.58v-0.14c0-0.12,0.01-0.23,0.01-0.23h-0.02c-0.24,0.54-0.89,1.07-1.78,1.07c-1.1,0-1.78-0.56-1.78-1.96 V130.25z M465.94,126.93h1.23l-1.06,1.38h-0.94L465.94,126.93z" style=""/>
      <path class="st2" d="M471.62,128.82c1.12,0,1.49,0.63,1.49,0.63h0.02c0,0-0.01-0.13-0.01-0.3v-0.91c0-0.15-0.08-0.22-0.22-0.22 h-0.4v-1.09h1.22c0.48,0,0.69,0.21,0.69,0.69v5.19c0,0.14,0.08,0.22,0.22,0.22h0.39v1.08h-1.18c-0.47,0-0.64-0.22-0.64-0.53 c0-0.11,0-0.19,0-0.19h-0.02c0,0-0.42,0.84-1.61,0.84c-1.4,0-2.3-1.1-2.3-2.7C469.28,129.88,470.26,128.82,471.62,128.82z M473.15,131.51c0-0.8-0.42-1.59-1.27-1.59c-0.71,0-1.29,0.58-1.29,1.6c0,0.98,0.52,1.62,1.27,1.62 C472.52,133.14,473.15,132.65,473.15,131.51z" style=""/>
      <path class="st2" d="M478.19,128.82c1.48,0,2.29,1.08,2.29,2.45c0,0.15-0.03,0.48-0.03,0.48h-3.56c0.1,0.91,0.77,1.39,1.55,1.39 c0.83,0,1.45-0.58,1.45-0.58l0.54,0.89c0,0-0.79,0.78-2.07,0.78c-1.71,0-2.77-1.23-2.77-2.7 C475.57,129.93,476.64,128.82,478.19,128.82z M479.16,130.85c-0.02-0.62-0.45-1.04-0.97-1.04c-0.66,0-1.12,0.39-1.26,1.04H479.16z " style=""/>
    </g>
  </g>
</svg>