<?xml version="1.0" encoding="utf-8"?>
<!-- Generator: Adobe Illustrator 26.0.0, SVG Export Plug-In . SVG Version: 6.00 Build 0)  -->
<svg version="1.1" id="Camada_1" xmlns="http://www.w3.org/2000/svg" xmlns:xlink="http://www.w3.org/1999/xlink" x="0px" y="0px"
	 viewBox="0 0 500 200" style="enable-background:new 0 0 500 200;" xml:space="preserve">
<style type="text/css">
	.st0{fill:#FFFFFF;}
	.st1{fill:#FFFFFF;}
</style>
<g>
	<g>
		<path class="st0" d="M142.88,89.63c0,0,6.76,7.78,15.94,7.78c5,0,9.45-2.69,9.45-7.78c0-11.21-30.95-10.29-30.95-30.77
			c0-10.66,9.27-18.53,21.96-18.53c7.69,0,19.55,3.61,19.55,12.97v6.12H167.9v-2.97c0-3.06-4.36-5.1-8.71-5.1
			c-5.56,0-9.64,2.87-9.64,7.04c0,11.21,30.95,8.99,30.95,30.58c0,10.47-8.06,19.37-21.87,19.37c-14.55,0-22.61-10.19-22.61-10.19
			L142.88,89.63z"/>
		<path class="st0" d="M187.45,96.95h6.58V51.73h-6.58V41.44h24.65v10.29h-6.58v45.22h6.58v10.29h-24.65V96.95z"/>
		<path class="st0" d="M225.45,89.63c0,0,6.76,7.78,15.94,7.78c5,0,9.45-2.69,9.45-7.78c0-11.21-30.95-10.29-30.95-30.77
			c0-10.66,9.27-18.53,21.96-18.53c7.69,0,19.55,3.61,19.55,12.97v6.12h-10.94v-2.97c0-3.06-4.36-5.1-8.71-5.1
			c-5.56,0-9.64,2.87-9.64,7.04c0,11.21,30.95,8.99,30.95,30.58c0,10.47-8.06,19.37-21.87,19.37c-14.55,0-22.61-10.19-22.61-10.19
			L225.45,89.63z"/>
		<path class="st0" d="M302.83,40.33c16.12,0,24,8.34,24,8.34l-6.86,8.71c0,0-6.86-5.84-16.87-5.84c-11.4,0-21.13,8.99-21.13,22.33
			c0,14.36,9.82,23.17,21.59,23.17c10.47,0,16.68-6.86,16.68-6.86v-4.91c0-1.39-0.74-2.04-2.04-2.04h-3.98V72.95h10.66
			c4.45,0,6.3,1.85,6.3,6.21v28.08H320.8v-3.15c0-1.39,0.09-2.78,0.09-2.78h-0.19c0,0-7.04,7.04-19.37,7.04
			c-17.24,0-31.97-13.16-31.97-34.38C269.38,55.07,283.74,40.33,302.83,40.33z"/>
		<path class="st0" d="M343.88,51.73h-6.02V41.44h39.75c4.36,0,6.3,1.95,6.3,6.3v10.01h-11.03v-3.98c0-1.3-0.74-2.04-2.04-2.04
			h-14.83v17.24h21.31v10.29h-21.31v15.66c0,1.3,0.74,2.04,2.04,2.04h15.2c1.3,0,2.04-0.74,2.04-2.04v-3.98h11.03v10.01
			c0,4.45-1.95,6.3-6.3,6.3h-29.84c-4.45,0-6.3-1.85-6.3-6.3V51.73z"/>
		<path class="st0" d="M392.44,53.77c-0.56-1.58-1.3-2.04-2.87-2.04h-1.67V41.44h7.69c4.63,0,6.3,1.2,7.78,5.38l12.6,36.7
			c1.3,3.71,2.5,9.64,2.5,9.64h0.18c0,0,1.21-5.93,2.5-9.64l12.6-36.7c1.48-4.17,3.06-5.38,7.69-5.38h7.78v10.29h-1.76
			c-1.58,0-2.32,0.46-2.87,2.04l-19.65,53.47h-12.79L392.44,53.77z"/>
		<path class="st0" d="M459.63,89.63c0,0,6.76,7.78,15.94,7.78c5,0,9.45-2.69,9.45-7.78c0-11.21-30.95-10.29-30.95-30.77
			c0-10.66,9.27-18.53,21.96-18.53c7.69,0,19.55,3.61,19.55,12.97v6.12h-10.93v-2.97c0-3.06-4.36-5.1-8.71-5.1
			c-5.56,0-9.64,2.87-9.64,7.04c0,11.21,30.95,8.99,30.95,30.58c0,10.47-8.06,19.37-21.87,19.37c-14.55,0-22.61-10.19-22.61-10.19
			L459.63,89.63z"/>
	</g>
	
		<rect x="314.63" y="-65.05" transform="matrix(6.123234e-17 -1 1 6.123234e-17 199.8609 432.0096)" class="st1" width="2.61" height="362.24"/>
	<g>
		<rect x="36.1" y="75.77" class="st1" width="10.87" height="38.94"/>
		<rect x="50.59" y="91.17" class="st1" width="10.87" height="23.55"/>
		<rect x="80.48" y="102.94" class="st1" width="10.87" height="11.77"/>
		<rect x="65.99" y="86.64" class="st1" width="10.87" height="28.07"/>
		<g>
			<path class="st1" d="M133.9,153.16l-22.77-27.04c-0.11-0.14-0.25-0.24-0.38-0.34c-2.54,3.25-5.5,6.29-8.79,9.05
				c-3.28,2.76-6.79,5.16-10.47,7.1c0.11,0.14,0.19,0.3,0.31,0.43l22.71,27.09c4.5,5.34,12.49,6.03,17.83,1.55
				C137.69,166.51,138.39,158.51,133.9,153.16z"/>
			<path class="st1" d="M105.87,48.81c-20.68-24.61-57.52-27.81-82.13-7.13C-0.9,62.35-4.1,99.22,16.58,123.83
				c20.69,24.61,57.54,27.81,82.15,7.13C123.34,110.29,126.54,73.42,105.87,48.81z M28.19,114.1
				c-15.31-18.22-12.93-45.52,5.29-60.81c18.22-15.31,45.5-12.94,60.8,5.27c15.3,18.21,12.92,45.48-5.28,60.81
				C70.78,134.63,43.5,132.32,28.19,114.1z"/>
		</g>
	</g>
	<g>
		<path class="st0" d="M137.07,132.2c0,0,0.79,0.91,1.87,0.91c0.59,0,1.11-0.32,1.11-0.91c0-1.31-3.63-1.21-3.63-3.61
			c0-1.25,1.09-2.17,2.57-2.17c0.9,0,2.29,0.42,2.29,1.52v0.72h-1.28v-0.35c0-0.36-0.51-0.6-1.02-0.6c-0.65,0-1.13,0.34-1.13,0.83
			c0,1.31,3.63,1.05,3.63,3.58c0,1.23-0.95,2.27-2.56,2.27c-1.71,0-2.65-1.19-2.65-1.19L137.07,132.2z"/>
		<path class="st0" d="M142.83,130.14c0-0.16-0.09-0.24-0.24-0.24h-0.43v-1.17h1.31c0.51,0,0.73,0.23,0.73,0.74v3.4
			c0,0.15,0.09,0.24,0.24,0.24h0.43v1.16h-1.31c-0.51,0-0.73-0.22-0.73-0.74V130.14z M142.9,126.55h1.2v1.27h-1.2V126.55z"/>
		<path class="st0" d="M146.06,132.5c0,0,0.71,0.81,1.65,0.81c0.42,0,0.75-0.17,0.75-0.54c0-0.78-2.92-0.77-2.92-2.56
			c0-1.11,1-1.62,2.15-1.62c0.75,0,1.94,0.25,1.94,1.15v0.58h-1.22v-0.27c0-0.26-0.39-0.39-0.7-0.39c-0.49,0-0.83,0.17-0.83,0.5
			c0,0.87,2.94,0.7,2.94,2.54c0,1.04-0.92,1.69-2.13,1.69c-1.52,0-2.3-0.99-2.3-0.99L146.06,132.5z"/>
		<path class="st0" d="M151.15,129.82h-0.72v-1.1h0.75v-1.51h1.35v1.51h1.26v1.1h-1.26v2.24c0,0.91,0.72,1.04,1.1,1.04
			c0.15,0,0.25-0.02,0.25-0.02v1.21c0,0-0.17,0.03-0.42,0.03c-0.77,0-2.3-0.23-2.3-2.09V129.82z"/>
		<path class="st0" d="M157.32,128.59c1.59,0,2.46,1.16,2.46,2.63c0,0.16-0.03,0.51-0.03,0.51h-3.82c0.11,0.98,0.83,1.49,1.66,1.49
			c0.89,0,1.55-0.62,1.55-0.62l0.58,0.96c0,0-0.85,0.84-2.23,0.84c-1.84,0-2.98-1.33-2.98-2.9
			C154.5,129.79,155.65,128.59,157.32,128.59z M158.36,130.78c-0.02-0.66-0.48-1.12-1.04-1.12c-0.71,0-1.21,0.42-1.36,1.12H158.36z"
			/>
		<path class="st0" d="M161.11,130.14c0-0.16-0.09-0.24-0.24-0.24h-0.43v-1.17h1.27c0.49,0,0.73,0.23,0.73,0.62v0.16
			c0,0.12-0.01,0.24-0.01,0.24h0.02c0.26-0.54,0.92-1.15,1.79-1.15c0.84,0,1.38,0.39,1.62,1.14h0.02c0.29-0.6,1.01-1.14,1.89-1.14
			c1.15,0,1.81,0.65,1.81,2.11v2.16c0,0.15,0.09,0.24,0.24,0.24h0.42v1.16h-1.3c-0.52,0-0.74-0.22-0.74-0.74v-2.56
			c0-0.63-0.12-1.11-0.76-1.11c-0.68,0-1.17,0.58-1.33,1.27c-0.07,0.22-0.09,0.45-0.09,0.71v2.43h-1.38v-3.3
			c0-0.6-0.09-1.11-0.75-1.11c-0.7,0-1.16,0.58-1.34,1.28c-0.05,0.22-0.09,0.45-0.09,0.7v2.43h-1.37V130.14z"/>
		<path class="st0" d="M174.11,130.79h0.17v-0.04c0-0.79-0.31-1.09-1.02-1.09c-0.25,0-0.74,0.07-0.74,0.37v0.29h-1.28v-0.59
			c0-1.03,1.46-1.14,2.03-1.14c1.85,0,2.39,0.97,2.39,2.21v2.06c0,0.15,0.09,0.24,0.24,0.24h0.43v1.16h-1.24
			c-0.51,0-0.71-0.28-0.71-0.61c0-0.14,0.01-0.24,0.01-0.24h-0.02c0,0-0.42,0.98-1.67,0.98c-0.99,0-1.89-0.62-1.89-1.73
			C170.81,130.93,173.21,130.79,174.11,130.79z M173.04,133.32c0.74,0,1.26-0.78,1.26-1.46v-0.13h-0.24c-0.72,0-1.86,0.1-1.86,0.87
			C172.21,132.97,172.48,133.32,173.04,133.32z"/>
		<path class="st0" d="M182.29,128.59c1.21,0,1.6,0.67,1.6,0.67h0.02c0,0-0.01-0.14-0.01-0.33v-0.98c0-0.16-0.09-0.24-0.24-0.24
			h-0.43v-1.17h1.31c0.51,0,0.74,0.23,0.74,0.74v5.57c0,0.15,0.09,0.24,0.24,0.24h0.42v1.16h-1.27c-0.5,0-0.68-0.24-0.68-0.57
			c0-0.12,0-0.21,0-0.21h-0.02c0,0-0.46,0.9-1.73,0.9c-1.5,0-2.47-1.18-2.47-2.9C179.77,129.73,180.82,128.59,182.29,128.59z
			 M183.93,131.48c0-0.86-0.45-1.71-1.37-1.71c-0.76,0-1.39,0.62-1.39,1.72c0,1.05,0.55,1.74,1.37,1.74
			C183.26,133.23,183.93,132.71,183.93,131.48z"/>
		<path class="st0" d="M189.34,128.59c1.59,0,2.46,1.16,2.46,2.63c0,0.16-0.03,0.51-0.03,0.51h-3.82c0.11,0.98,0.83,1.49,1.66,1.49
			c0.89,0,1.55-0.62,1.55-0.62l0.58,0.96c0,0-0.85,0.84-2.23,0.84c-1.84,0-2.98-1.33-2.98-2.9
			C186.53,129.79,187.68,128.59,189.34,128.59z M190.39,130.78c-0.02-0.66-0.48-1.12-1.04-1.12c-0.71,0-1.21,0.42-1.36,1.12H190.39z
			"/>
		<path class="st0" d="M195.53,133.06h0.77v-5.3h-0.77v-1.21h2.89v1.21h-0.77v5.3h0.77v1.21h-2.89V133.06z"/>
		<path class="st0" d="M199.73,130.14c0-0.16-0.09-0.24-0.24-0.24h-0.43v-1.17h1.27c0.49,0,0.73,0.23,0.73,0.62v0.16
			c0,0.12-0.02,0.24-0.02,0.24h0.02c0.24-0.47,0.84-1.15,1.96-1.15c1.23,0,1.93,0.64,1.93,2.11v2.16c0,0.15,0.09,0.24,0.24,0.24
			h0.43v1.16h-1.31c-0.52,0-0.74-0.22-0.74-0.74v-2.54c0-0.67-0.17-1.13-0.87-1.13c-0.74,0-1.29,0.47-1.49,1.13
			c-0.08,0.23-0.11,0.48-0.11,0.74v2.54h-1.37V130.14z"/>
		<path class="st0" d="M206.72,129.82h-0.68v-1.1h0.68v-0.16c0-1.81,1.49-2.05,2.26-2.05c0.28,0,0.47,0.03,0.47,0.03v1.17
			c0,0-0.12-0.02-0.28-0.02c-0.39,0-1.06,0.1-1.06,0.9v0.13h1.18v1.1h-1.18v4.44h-1.38V129.82z"/>
		<path class="st0" d="M212.71,128.59c1.69,0,3.04,1.21,3.04,2.9c0,1.71-1.35,2.9-3.04,2.9c-1.68,0-3.03-1.19-3.03-2.9
			C209.68,129.8,211.02,128.59,212.71,128.59z M212.71,133.22c0.9,0,1.65-0.7,1.65-1.73c0-1.02-0.75-1.73-1.65-1.73
			c-0.89,0-1.64,0.71-1.64,1.73C211.07,132.53,211.82,133.22,212.71,133.22z"/>
		<path class="st0" d="M217,130.14c0-0.16-0.09-0.24-0.24-0.24h-0.43v-1.17h1.26c0.49,0,0.74,0.21,0.74,0.67v0.33
			c0,0.21-0.02,0.35-0.02,0.35h0.02c0.25-0.79,0.91-1.42,1.76-1.42c0.12,0,0.25,0.02,0.25,0.02v1.36c0,0-0.14-0.02-0.34-0.02
			c-0.59,0-1.26,0.34-1.51,1.16c-0.08,0.27-0.12,0.58-0.12,0.9v2.19H217V130.14z"/>
		<path class="st0" d="M221.54,130.14c0-0.16-0.09-0.24-0.24-0.24h-0.43v-1.17h1.27c0.49,0,0.73,0.23,0.73,0.62v0.16
			c0,0.12-0.01,0.24-0.01,0.24h0.02c0.26-0.54,0.92-1.15,1.79-1.15c0.84,0,1.38,0.39,1.62,1.14h0.02c0.29-0.6,1.01-1.14,1.89-1.14
			c1.15,0,1.81,0.65,1.81,2.11v2.16c0,0.15,0.09,0.24,0.24,0.24h0.42v1.16h-1.3c-0.52,0-0.74-0.22-0.74-0.74v-2.56
			c0-0.63-0.12-1.11-0.76-1.11c-0.68,0-1.17,0.58-1.33,1.27c-0.07,0.22-0.09,0.45-0.09,0.71v2.43h-1.38v-3.3
			c0-0.6-0.09-1.11-0.75-1.11c-0.7,0-1.16,0.58-1.34,1.28c-0.05,0.22-0.09,0.45-0.09,0.7v2.43h-1.37V130.14z"/>
		<path class="st0" d="M234.54,130.79h0.17v-0.04c0-0.79-0.31-1.09-1.02-1.09c-0.25,0-0.74,0.07-0.74,0.37v0.29h-1.28v-0.59
			c0-1.03,1.46-1.14,2.03-1.14c1.85,0,2.39,0.97,2.39,2.21v2.06c0,0.15,0.09,0.24,0.24,0.24h0.43v1.16h-1.24
			c-0.51,0-0.71-0.28-0.71-0.61c0-0.14,0.01-0.24,0.01-0.24h-0.02c0,0-0.42,0.98-1.67,0.98c-0.99,0-1.89-0.62-1.89-1.73
			C231.25,130.93,233.64,130.79,234.54,130.79z M233.47,133.32c0.74,0,1.26-0.78,1.26-1.46v-0.13h-0.24c-0.72,0-1.86,0.1-1.86,0.87
			C232.64,132.97,232.91,133.32,233.47,133.32z"/>
		<path class="st0" d="M240.35,128.59c0.72,0,2.01,0.29,2.01,1.25v0.65h-1.22v-0.3c0-0.3-0.46-0.43-0.79-0.43
			c-0.96,0-1.64,0.73-1.64,1.73c0,1.13,0.84,1.71,1.73,1.71c0.94,0,1.64-0.75,1.64-0.75l0.58,0.96c0,0-0.8,0.98-2.29,1l-0.08,0.35
			c0.43,0.05,0.78,0.32,0.78,0.83c0,0.72-0.59,0.96-1.16,0.96c-0.38,0-0.67-0.08-0.67-0.08v-0.76c0,0,0.23,0.09,0.48,0.09
			s0.47-0.08,0.47-0.3c0-0.21-0.23-0.29-0.52-0.29c-0.11,0-0.23,0.02-0.23,0.02l0.24-0.87c-1.44-0.26-2.35-1.41-2.35-2.84
			C237.32,129.93,238.45,128.59,240.35,128.59z"/>
		<path class="st0" d="M246.47,130.79h0.17v-0.04c0-0.79-0.31-1.09-1.02-1.09c-0.25,0-0.74,0.07-0.74,0.37v0.29h-1.28v-0.59
			c0-1.03,1.46-1.14,2.03-1.14c1.85,0,2.39,0.97,2.39,2.21v2.06c0,0.15,0.09,0.24,0.24,0.24h0.43v1.16h-1.24
			c-0.51,0-0.71-0.28-0.71-0.61c0-0.14,0.01-0.24,0.01-0.24h-0.02c0,0-0.42,0.98-1.67,0.98c-0.99,0-1.89-0.62-1.89-1.73
			C243.18,130.93,245.57,130.79,246.47,130.79z M245.04,126.54c0.75,0,0.93,0.71,1.39,0.71c0.3,0,0.45-0.33,0.45-0.67h0.86
			c0,0.98-0.41,1.49-1.24,1.49c-0.75,0-0.93-0.71-1.39-0.71c-0.3,0-0.45,0.31-0.45,0.67h-0.86
			C243.8,127.04,244.21,126.54,245.04,126.54z M245.41,133.32c0.74,0,1.26-0.78,1.26-1.46v-0.13h-0.24c-0.72,0-1.86,0.1-1.86,0.87
			C244.57,132.97,244.84,133.32,245.41,133.32z"/>
		<path class="st0" d="M252.29,128.59c1.69,0,3.04,1.21,3.04,2.9c0,1.71-1.35,2.9-3.04,2.9c-1.68,0-3.03-1.19-3.03-2.9
			C249.25,129.8,250.6,128.59,252.29,128.59z M252.29,133.22c0.9,0,1.65-0.7,1.65-1.73c0-1.02-0.75-1.73-1.65-1.73
			c-0.89,0-1.64,0.71-1.64,1.73C250.65,132.53,251.39,133.22,252.29,133.22z"/>
		<path class="st0" d="M261.43,128.59c1.21,0,1.6,0.67,1.6,0.67h0.02c0,0-0.01-0.14-0.01-0.33v-0.98c0-0.16-0.09-0.24-0.24-0.24
			h-0.43v-1.17h1.31c0.51,0,0.74,0.23,0.74,0.74v5.57c0,0.15,0.09,0.24,0.24,0.24h0.42v1.16h-1.27c-0.5,0-0.68-0.24-0.68-0.57
			c0-0.12,0-0.21,0-0.21h-0.02c0,0-0.46,0.9-1.73,0.9c-1.5,0-2.47-1.18-2.47-2.9C258.91,129.73,259.96,128.59,261.43,128.59z
			 M263.07,131.48c0-0.86-0.45-1.71-1.37-1.71c-0.76,0-1.39,0.62-1.39,1.72c0,1.05,0.55,1.74,1.37,1.74
			C262.39,133.23,263.07,132.71,263.07,131.48z"/>
		<path class="st0" d="M268.48,128.59c1.59,0,2.46,1.16,2.46,2.63c0,0.16-0.03,0.51-0.03,0.51h-3.82c0.11,0.98,0.83,1.49,1.66,1.49
			c0.89,0,1.55-0.62,1.55-0.62l0.58,0.96c0,0-0.85,0.84-2.23,0.84c-1.84,0-2.98-1.33-2.98-2.9
			C265.66,129.79,266.82,128.59,268.48,128.59z M269.52,130.78c-0.02-0.66-0.48-1.12-1.04-1.12c-0.71,0-1.21,0.42-1.36,1.12H269.52z
			"/>
		<path class="st0" d="M278.51,126.42c1.89,0,2.81,0.98,2.81,0.98l-0.8,1.02c0,0-0.8-0.68-1.98-0.68c-1.34,0-2.48,1.05-2.48,2.62
			c0,1.68,1.15,2.72,2.53,2.72c1.23,0,1.96-0.8,1.96-0.8v-0.58c0-0.16-0.09-0.24-0.24-0.24h-0.47v-1.21h1.25
			c0.52,0,0.74,0.22,0.74,0.73v3.29h-1.22v-0.37c0-0.16,0.01-0.33,0.01-0.33h-0.02c0,0-0.83,0.83-2.27,0.83
			c-2.02,0-3.75-1.54-3.75-4.03C274.59,128.15,276.27,126.42,278.51,126.42z"/>
		<path class="st0" d="M285.57,128.59c1.59,0,2.46,1.16,2.46,2.63c0,0.16-0.03,0.51-0.03,0.51h-3.82c0.11,0.98,0.83,1.49,1.66,1.49
			c0.89,0,1.55-0.62,1.55-0.62l0.58,0.96c0,0-0.85,0.84-2.23,0.84c-1.84,0-2.98-1.33-2.98-2.9
			C282.76,129.79,283.91,128.59,285.57,128.59z M286.61,130.78c-0.02-0.66-0.48-1.12-1.04-1.12c-0.71,0-1.21,0.42-1.36,1.12H286.61z
			"/>
		<path class="st0" d="M289.37,130.14c0-0.16-0.09-0.24-0.24-0.24h-0.43v-1.17h1.26c0.49,0,0.74,0.21,0.74,0.67v0.33
			c0,0.21-0.02,0.35-0.02,0.35h0.02c0.25-0.79,0.91-1.42,1.76-1.42c0.12,0,0.25,0.02,0.25,0.02v1.36c0,0-0.14-0.02-0.34-0.02
			c-0.59,0-1.26,0.34-1.51,1.16c-0.08,0.27-0.12,0.58-0.12,0.9v2.19h-1.37V130.14z"/>
		<path class="st0" d="M295.9,128.59c1.59,0,2.46,1.16,2.46,2.63c0,0.16-0.03,0.51-0.03,0.51h-3.82c0.11,0.98,0.83,1.49,1.66,1.49
			c0.89,0,1.55-0.62,1.55-0.62l0.58,0.96c0,0-0.85,0.84-2.23,0.84c-1.84,0-2.98-1.33-2.98-2.9
			C293.08,129.79,294.23,128.59,295.9,128.59z M295.27,126.56h1.18l1,1.48h-1.03l-0.54-0.88h-0.02l-0.55,0.88h-1.02L295.27,126.56z
			 M296.94,130.78c-0.02-0.66-0.48-1.12-1.04-1.12c-0.71,0-1.21,0.42-1.36,1.12H296.94z"/>
		<path class="st0" d="M299.69,130.14c0-0.16-0.09-0.24-0.24-0.24h-0.43v-1.17h1.27c0.49,0,0.73,0.23,0.73,0.62v0.16
			c0,0.12-0.02,0.24-0.02,0.24h0.02c0.24-0.47,0.84-1.15,1.96-1.15c1.23,0,1.93,0.64,1.93,2.11v2.16c0,0.15,0.09,0.24,0.24,0.24
			h0.43v1.16h-1.31c-0.52,0-0.74-0.22-0.74-0.74v-2.54c0-0.67-0.17-1.13-0.87-1.13c-0.74,0-1.29,0.47-1.49,1.13
			c-0.08,0.23-0.11,0.48-0.11,0.74v2.54h-1.37V130.14z"/>
		<path class="st0" d="M309.15,128.59c0.72,0,2.01,0.29,2.01,1.25v0.65h-1.22v-0.3c0-0.3-0.46-0.43-0.79-0.43
			c-0.96,0-1.64,0.73-1.64,1.73c0,1.13,0.84,1.71,1.73,1.71c0.95,0,1.64-0.75,1.64-0.75l0.58,0.96c0,0-0.83,1-2.33,1
			c-1.83,0-3-1.29-3-2.9C306.12,129.93,307.25,128.59,309.15,128.59z"/>
		<path class="st0" d="M312.57,130.14c0-0.16-0.09-0.24-0.24-0.24h-0.43v-1.17h1.31c0.51,0,0.73,0.23,0.73,0.74v3.4
			c0,0.15,0.09,0.24,0.24,0.24h0.43v1.16h-1.31c-0.51,0-0.73-0.22-0.73-0.74V130.14z M312.63,126.55h1.19v1.27h-1.19V126.55z"/>
		<path class="st0" d="M318.52,130.79h0.17v-0.04c0-0.79-0.32-1.09-1.02-1.09c-0.25,0-0.74,0.07-0.74,0.37v0.29h-1.28v-0.59
			c0-1.03,1.46-1.14,2.03-1.14c1.85,0,2.39,0.97,2.39,2.21v2.06c0,0.15,0.09,0.24,0.24,0.24h0.43v1.16h-1.24
			c-0.51,0-0.71-0.28-0.71-0.61c0-0.14,0.01-0.24,0.01-0.24h-0.02c0,0-0.42,0.98-1.67,0.98c-0.99,0-1.89-0.62-1.89-1.73
			C315.23,130.93,317.62,130.79,318.52,130.79z M317.46,133.32c0.74,0,1.26-0.78,1.26-1.46v-0.13h-0.24c-0.72,0-1.86,0.1-1.86,0.87
			C316.62,132.97,316.89,133.32,317.46,133.32z"/>
		<path class="st0" d="M324.91,127.76h-0.71v-1.21h4.66c0.51,0,0.74,0.23,0.74,0.74v1.17h-1.29V128c0-0.15-0.09-0.24-0.24-0.24
			h-1.74v2.02h2.5v1.21h-2.5v1.84c0,0.15,0.09,0.24,0.24,0.24h1.78c0.15,0,0.24-0.09,0.24-0.24v-0.47h1.29v1.17
			c0,0.52-0.23,0.74-0.74,0.74h-3.5c-0.52,0-0.74-0.22-0.74-0.74V127.76z"/>
		<path class="st0" d="M332.04,131.46l-0.91-1.38c-0.11-0.16-0.2-0.18-0.42-0.18h-0.4v-1.17h0.97c0.46,0,0.65,0.1,0.9,0.52
			l0.54,0.91c0.08,0.14,0.17,0.36,0.17,0.36h0.02c0,0,0.1-0.22,0.17-0.36l0.54-0.91c0.25-0.42,0.43-0.52,0.9-0.52h0.96v1.17h-0.39
			c-0.23,0-0.31,0.02-0.42,0.18l-0.92,1.38l1.81,2.8h-1.53l-0.97-1.54c-0.08-0.11-0.15-0.29-0.15-0.29h-0.02
			c0,0-0.09,0.17-0.16,0.29l-0.96,1.54h-1.53L332.04,131.46z"/>
		<path class="st0" d="M338.84,128.59c1.59,0,2.46,1.16,2.46,2.63c0,0.16-0.03,0.51-0.03,0.51h-3.82c0.11,0.98,0.83,1.49,1.66,1.49
			c0.89,0,1.55-0.62,1.55-0.62l0.58,0.96c0,0-0.85,0.84-2.23,0.84c-1.84,0-2.98-1.33-2.98-2.9
			C336.03,129.79,337.18,128.59,338.84,128.59z M339.89,130.78c-0.02-0.66-0.48-1.12-1.04-1.12c-0.71,0-1.21,0.42-1.36,1.12H339.89z
			"/>
		<path class="st0" d="M345.11,128.59c0.72,0,2.01,0.29,2.01,1.25v0.65h-1.22v-0.3c0-0.3-0.46-0.43-0.79-0.43
			c-0.96,0-1.64,0.73-1.64,1.73c0,1.13,0.84,1.71,1.73,1.71c0.95,0,1.64-0.75,1.64-0.75l0.58,0.96c0,0-0.83,1-2.33,1
			c-1.83,0-3-1.29-3-2.9C342.08,129.93,343.21,128.59,345.11,128.59z"/>
		<path class="st0" d="M348.46,130.14c0-0.16-0.09-0.24-0.24-0.24h-0.43v-1.17h1.32c0.51,0,0.73,0.23,0.73,0.73V132
			c0,0.67,0.17,1.13,0.86,1.13c1,0,1.55-0.88,1.55-1.87v-2.54h1.38v4.14c0,0.15,0.09,0.24,0.24,0.24h0.43v1.16h-1.27
			c-0.48,0-0.73-0.23-0.73-0.62v-0.15c0-0.13,0.01-0.25,0.01-0.25h-0.02c-0.26,0.58-0.96,1.15-1.91,1.15c-1.18,0-1.91-0.6-1.91-2.11
			V130.14z"/>
		<path class="st0" d="M355.44,129.82h-0.72v-1.1h0.75v-1.51h1.35v1.51h1.26v1.1h-1.26v2.24c0,0.91,0.72,1.04,1.1,1.04
			c0.15,0,0.25-0.02,0.25-0.02v1.21c0,0-0.17,0.03-0.42,0.03c-0.77,0-2.3-0.23-2.3-2.09V129.82z"/>
		<path class="st0" d="M359.48,130.14c0-0.16-0.09-0.24-0.24-0.24h-0.43v-1.17h1.31c0.51,0,0.73,0.23,0.73,0.74v3.4
			c0,0.15,0.09,0.24,0.24,0.24h0.43v1.16h-1.31c-0.51,0-0.73-0.22-0.73-0.74V130.14z M359.55,126.55h1.19v1.27h-1.19V126.55z"/>
		<path class="st0" d="M362.28,130.09c-0.05-0.14-0.15-0.2-0.3-0.2h-0.12v-1.17h0.79c0.46,0,0.67,0.14,0.81,0.52l1.04,2.91
			c0.12,0.33,0.21,0.79,0.21,0.79h0.02c0,0,0.09-0.47,0.2-0.79l1.04-2.91c0.14-0.38,0.37-0.52,0.81-0.52h0.74v1.17h-0.13
			c-0.15,0-0.25,0.05-0.3,0.2l-1.59,4.17h-1.64L362.28,130.09z"/>
		<path class="st0" d="M371.25,130.79h0.17v-0.04c0-0.79-0.32-1.09-1.02-1.09c-0.25,0-0.74,0.07-0.74,0.37v0.29h-1.28v-0.59
			c0-1.03,1.46-1.14,2.03-1.14c1.85,0,2.39,0.97,2.39,2.21v2.06c0,0.15,0.09,0.24,0.24,0.24h0.43v1.16h-1.24
			c-0.51,0-0.71-0.28-0.71-0.61c0-0.14,0.01-0.24,0.01-0.24h-0.02c0,0-0.42,0.98-1.67,0.98c-0.99,0-1.89-0.62-1.89-1.73
			C367.96,130.93,370.35,130.79,371.25,130.79z M370.18,133.32c0.74,0,1.26-0.78,1.26-1.46v-0.13h-0.24c-0.72,0-1.86,0.1-1.86,0.87
			C369.35,132.97,369.62,133.32,370.18,133.32z"/>
		<path class="st0" d="M379.43,128.59c1.21,0,1.6,0.67,1.6,0.67h0.02c0,0-0.01-0.14-0.01-0.33v-0.98c0-0.16-0.09-0.24-0.24-0.24
			h-0.43v-1.17h1.31c0.51,0,0.74,0.23,0.74,0.74v5.57c0,0.15,0.09,0.24,0.24,0.24h0.42v1.16h-1.27c-0.5,0-0.68-0.24-0.68-0.57
			c0-0.12,0-0.21,0-0.21h-0.02c0,0-0.46,0.9-1.73,0.9c-1.5,0-2.47-1.18-2.47-2.9C376.91,129.73,377.97,128.59,379.43,128.59z
			 M381.07,131.48c0-0.86-0.45-1.71-1.37-1.71c-0.76,0-1.39,0.62-1.39,1.72c0,1.05,0.55,1.74,1.37,1.74
			C380.4,133.23,381.07,132.71,381.07,131.48z"/>
		<path class="st0" d="M386.48,128.59c1.59,0,2.46,1.16,2.46,2.63c0,0.16-0.03,0.51-0.03,0.51h-3.82c0.11,0.98,0.83,1.49,1.66,1.49
			c0.89,0,1.55-0.62,1.55-0.62l0.58,0.96c0,0-0.85,0.84-2.23,0.84c-1.84,0-2.98-1.33-2.98-2.9
			C383.67,129.79,384.82,128.59,386.48,128.59z M387.53,130.78c-0.02-0.66-0.48-1.12-1.04-1.12c-0.71,0-1.21,0.42-1.36,1.12H387.53z
			"/>
		<path class="st0" d="M392.66,128c-0.07-0.18-0.15-0.24-0.34-0.24h-0.2v-1.21h0.9c0.54,0,0.74,0.14,0.91,0.63l1.48,4.3
			c0.15,0.43,0.29,1.13,0.29,1.13h0.02c0,0,0.14-0.7,0.29-1.13l1.48-4.3c0.17-0.49,0.36-0.63,0.9-0.63h0.91v1.21h-0.21
			c-0.18,0-0.27,0.05-0.34,0.24l-2.3,6.27h-1.5L392.66,128z"/>
		<path class="st0" d="M400.38,130.14c0-0.16-0.09-0.24-0.24-0.24h-0.43v-1.17h1.31c0.51,0,0.73,0.23,0.73,0.74v3.4
			c0,0.15,0.09,0.24,0.24,0.24h0.43v1.16h-1.31c-0.51,0-0.73-0.22-0.73-0.74V130.14z M400.45,126.55h1.19v1.27h-1.19V126.55z"/>
		<path class="st0" d="M405.49,128.59c1.28,0,1.71,0.78,1.71,0.78h0.02c0,0,0-0.07,0-0.14c0-0.25,0.17-0.51,0.61-0.51h1.28v1.17
			h-0.42c-0.14,0-0.24,0.08-0.24,0.22v3.81c0,1.9-1.48,2.62-2.92,2.62c-0.7,0-1.43-0.2-1.97-0.48l0.42-1.09c0,0,0.68,0.37,1.53,0.37
			c0.84,0,1.56-0.36,1.56-1.36v-0.26c0-0.13,0.01-0.29,0.01-0.29h-0.02c-0.33,0.47-0.8,0.72-1.54,0.72c-1.59,0-2.49-1.28-2.49-2.8
			C403.04,129.83,403.89,128.59,405.49,128.59z M407.11,131.36c0-1.26-0.63-1.6-1.38-1.6c-0.84,0-1.29,0.61-1.29,1.54
			c0,0.97,0.49,1.68,1.38,1.68C406.48,132.99,407.11,132.61,407.11,131.36z"/>
		<path class="st0" d="M410.29,130.14c0-0.16-0.09-0.24-0.24-0.24h-0.43v-1.17h1.31c0.51,0,0.73,0.23,0.73,0.74v3.4
			c0,0.15,0.09,0.24,0.24,0.24h0.43v1.16h-1.31c-0.51,0-0.73-0.22-0.73-0.74V130.14z M410.35,126.55h1.19v1.27h-1.19V126.55z"/>
		<path class="st0" d="M413.46,127.96c0-0.16-0.09-0.24-0.24-0.24h-0.43v-1.17h1.31c0.51,0,0.74,0.23,0.74,0.74v5.57
			c0,0.15,0.09,0.24,0.24,0.24h0.42v1.16h-1.3c-0.52,0-0.74-0.22-0.74-0.74V127.96z"/>
		<path class="st0" d="M419.4,130.79h0.17v-0.04c0-0.79-0.32-1.09-1.02-1.09c-0.25,0-0.74,0.07-0.74,0.37v0.29h-1.28v-0.59
			c0-1.03,1.46-1.14,2.03-1.14c1.85,0,2.39,0.97,2.39,2.21v2.06c0,0.15,0.09,0.24,0.24,0.24h0.43v1.16h-1.24
			c-0.51,0-0.71-0.28-0.71-0.61c0-0.14,0.01-0.24,0.01-0.24h-0.02c0,0-0.42,0.98-1.67,0.98c-0.99,0-1.89-0.62-1.89-1.73
			C416.11,130.93,418.5,130.79,419.4,130.79z M418.11,126.56h1.18l1,1.48h-1.03l-0.54-0.88h-0.02l-0.55,0.88h-1.02L418.11,126.56z
			 M418.34,133.32c0.74,0,1.26-0.78,1.26-1.46v-0.13h-0.24c-0.72,0-1.86,0.1-1.86,0.87C417.5,132.97,417.77,133.32,418.34,133.32z"
			/>
		<path class="st0" d="M422.74,130.14c0-0.16-0.09-0.24-0.24-0.24h-0.43v-1.17h1.27c0.49,0,0.73,0.23,0.73,0.62v0.16
			c0,0.12-0.02,0.24-0.02,0.24h0.02c0.24-0.47,0.84-1.15,1.96-1.15c1.23,0,1.93,0.64,1.93,2.11v2.16c0,0.15,0.09,0.24,0.24,0.24
			h0.43v1.16h-1.31c-0.52,0-0.74-0.22-0.74-0.74v-2.54c0-0.67-0.17-1.13-0.87-1.13c-0.74,0-1.29,0.47-1.49,1.13
			c-0.08,0.23-0.11,0.48-0.11,0.74v2.54h-1.37V130.14z"/>
		<path class="st0" d="M432.2,128.59c0.72,0,2.01,0.29,2.01,1.25v0.65H433v-0.3c0-0.3-0.46-0.43-0.79-0.43
			c-0.96,0-1.64,0.73-1.64,1.73c0,1.13,0.84,1.71,1.73,1.71c0.95,0,1.64-0.75,1.64-0.75l0.58,0.96c0,0-0.83,1-2.33,1
			c-1.83,0-3-1.29-3-2.9C429.17,129.93,430.3,128.59,432.2,128.59z"/>
		<path class="st0" d="M435.62,130.14c0-0.16-0.09-0.24-0.24-0.24h-0.43v-1.17h1.31c0.51,0,0.73,0.23,0.73,0.74v3.4
			c0,0.15,0.09,0.24,0.24,0.24h0.43v1.16h-1.31c-0.51,0-0.73-0.22-0.73-0.74V130.14z M435.68,126.55h1.19v1.27h-1.19V126.55z"/>
		<path class="st0" d="M441.57,130.79h0.17v-0.04c0-0.79-0.32-1.09-1.02-1.09c-0.25,0-0.74,0.07-0.74,0.37v0.29h-1.28v-0.59
			c0-1.03,1.46-1.14,2.03-1.14c1.85,0,2.39,0.97,2.39,2.21v2.06c0,0.15,0.09,0.24,0.24,0.24h0.43v1.16h-1.24
			c-0.51,0-0.71-0.28-0.71-0.61c0-0.14,0.01-0.24,0.01-0.24h-0.02c0,0-0.42,0.98-1.67,0.98c-0.99,0-1.89-0.62-1.89-1.73
			C438.28,130.93,440.67,130.79,441.57,130.79z M440.51,133.32c0.74,0,1.26-0.78,1.26-1.46v-0.13h-0.24c-0.72,0-1.86,0.1-1.86,0.87
			C439.67,132.97,439.94,133.32,440.51,133.32z"/>
		<path class="st0" d="M450.05,128.59c1.59,0,2.46,1.16,2.46,2.63c0,0.16-0.03,0.51-0.03,0.51h-3.82c0.11,0.98,0.83,1.49,1.66,1.49
			c0.89,0,1.55-0.62,1.55-0.62l0.58,0.96c0,0-0.85,0.84-2.23,0.84c-1.84,0-2.98-1.33-2.98-2.9
			C447.23,129.79,448.38,128.59,450.05,128.59z M451.09,130.78c-0.02-0.66-0.48-1.12-1.04-1.12c-0.71,0-1.21,0.42-1.36,1.12H451.09z
			"/>
		<path class="st0" d="M453.84,130.14c0-0.16-0.09-0.24-0.24-0.24h-0.43v-1.17h1.27c0.49,0,0.73,0.23,0.73,0.62v0.16
			c0,0.12-0.01,0.24-0.01,0.24h0.02c0.26-0.54,0.92-1.15,1.79-1.15c0.84,0,1.38,0.39,1.62,1.14h0.02c0.29-0.6,1.01-1.14,1.89-1.14
			c1.15,0,1.81,0.65,1.81,2.11v2.16c0,0.15,0.09,0.24,0.24,0.24h0.42v1.16h-1.3c-0.52,0-0.74-0.22-0.74-0.74v-2.56
			c0-0.63-0.12-1.11-0.76-1.11c-0.68,0-1.17,0.58-1.33,1.27c-0.07,0.22-0.09,0.45-0.09,0.71v2.43h-1.38v-3.3
			c0-0.6-0.09-1.11-0.75-1.11c-0.7,0-1.16,0.58-1.34,1.28c-0.05,0.22-0.09,0.45-0.09,0.7v2.43h-1.37V130.14z"/>
		<path class="st0" d="M467.22,132.2c0,0,0.79,0.91,1.87,0.91c0.59,0,1.11-0.32,1.11-0.91c0-1.31-3.63-1.21-3.63-3.61
			c0-1.25,1.09-2.17,2.57-2.17c0.9,0,2.29,0.42,2.29,1.52v0.72h-1.28v-0.35c0-0.36-0.51-0.6-1.02-0.6c-0.65,0-1.13,0.34-1.13,0.83
			c0,1.31,3.63,1.05,3.63,3.58c0,1.23-0.95,2.27-2.56,2.27c-1.71,0-2.65-1.19-2.65-1.19L467.22,132.2z"/>
		<path class="st0" d="M475.68,130.79h0.17v-0.04c0-0.79-0.32-1.09-1.02-1.09c-0.25,0-0.74,0.07-0.74,0.37v0.29h-1.28v-0.59
			c0-1.03,1.46-1.14,2.03-1.14c1.85,0,2.39,0.97,2.39,2.21v2.06c0,0.15,0.09,0.24,0.24,0.24h0.43v1.16h-1.24
			c-0.51,0-0.71-0.28-0.71-0.61c0-0.14,0.01-0.24,0.01-0.24h-0.02c0,0-0.42,0.98-1.67,0.98c-0.99,0-1.89-0.62-1.89-1.73
			C472.39,130.93,474.78,130.79,475.68,130.79z M474.62,133.32c0.74,0,1.26-0.78,1.26-1.46v-0.13h-0.24c-0.72,0-1.86,0.1-1.86,0.87
			C473.78,132.97,474.05,133.32,474.62,133.32z"/>
		<path class="st0" d="M479,130.14c0-0.16-0.09-0.24-0.24-0.24h-0.43v-1.17h1.32c0.51,0,0.73,0.23,0.73,0.73V132
			c0,0.67,0.17,1.13,0.86,1.13c1,0,1.55-0.88,1.55-1.87v-2.54h1.38v4.14c0,0.15,0.09,0.24,0.24,0.24h0.43v1.16h-1.27
			c-0.48,0-0.73-0.23-0.73-0.62v-0.15c0-0.13,0.01-0.25,0.01-0.25h-0.02c-0.26,0.58-0.96,1.15-1.91,1.15c-1.18,0-1.91-0.6-1.91-2.11
			V130.14z M481.81,126.56h1.33l-1.14,1.48h-1.01L481.81,126.56z"/>
		<path class="st0" d="M487.92,128.59c1.21,0,1.6,0.67,1.6,0.67h0.02c0,0-0.01-0.14-0.01-0.33v-0.98c0-0.16-0.09-0.24-0.24-0.24
			h-0.43v-1.17h1.31c0.51,0,0.74,0.23,0.74,0.74v5.57c0,0.15,0.09,0.24,0.24,0.24h0.42v1.16h-1.27c-0.5,0-0.68-0.24-0.68-0.57
			c0-0.12,0-0.21,0-0.21h-0.02c0,0-0.46,0.9-1.73,0.9c-1.5,0-2.47-1.18-2.47-2.9C485.4,129.73,486.45,128.59,487.92,128.59z
			 M489.56,131.48c0-0.86-0.45-1.71-1.37-1.71c-0.76,0-1.39,0.62-1.39,1.72c0,1.05,0.55,1.74,1.37,1.74
			C488.89,133.23,489.56,132.71,489.56,131.48z"/>
		<path class="st0" d="M494.97,128.59c1.59,0,2.46,1.16,2.46,2.63c0,0.16-0.03,0.51-0.03,0.51h-3.82c0.11,0.98,0.83,1.49,1.66,1.49
			c0.89,0,1.55-0.62,1.55-0.62l0.58,0.96c0,0-0.85,0.84-2.23,0.84c-1.84,0-2.98-1.33-2.98-2.9
			C492.16,129.79,493.31,128.59,494.97,128.59z M496.01,130.78c-0.02-0.66-0.48-1.12-1.04-1.12c-0.71,0-1.21,0.42-1.36,1.12H496.01z
			"/>
	</g>
</g>
</svg>
