<?xml version="1.0" standalone="no"?>
<!DOCTYPE svg PUBLIC "-//W3C//DTD SVG 20010904//EN"
 "http://www.w3.org/TR/2001/REC-SVG-20010904/DTD/svg10.dtd">
<svg version="1.0" xmlns="http://www.w3.org/2000/svg"
 width="1016.000000pt" height="245.000000pt" viewBox="0 0 1016.000000 245.000000"
 preserveAspectRatio="xMidYMid meet">

<g transform="translate(0.000000,245.000000) scale(0.100000,-0.100000)"
fill="#fff" stroke="none">
<path d="M8305 1947 c-5 -7 -16 -24 -24 -39 -8 -16 -18 -28 -23 -28 -4 0 -8
-9 -8 -19 0 -11 -6 -22 -12 -24 -13 -5 76 -12 121 -9 16 1 45 23 83 63 32 34
58 63 58 65 0 11 -186 2 -195 -9z"/>
<path d="M4722 1868 c-20 -20 -15 -58 7 -58 11 0 21 -6 24 -12 7 -23 36 10 30
35 -11 44 -37 59 -61 35z"/>
<path d="M4119 1747 c-9 -7 -22 -30 -30 -52 -8 -22 -17 -42 -20 -45 -15 -12
-17 -80 -3 -94 8 -8 14 -19 14 -25 0 -12 -32 -2 -42 13 -4 6 -10 7 -14 3 -4
-3 -2 -12 3 -19 20 -25 25 -58 10 -58 -9 0 -18 6 -20 13 -4 7 -6 6 -6 -5 -1
-9 7 -30 17 -47 15 -27 15 -33 2 -41 -9 -5 -19 -5 -27 1 -21 18 -33 0 -31 -49
1 -37 2 -40 5 -14 7 50 39 43 63 -14 22 -49 26 -94 10 -94 -5 0 -10 5 -10 11
0 6 -12 9 -27 7 -37 -4 -62 -50 -61 -113 1 -38 2 -42 5 -15 5 36 37 90 55 90
16 0 48 -41 48 -61 0 -10 5 -21 10 -24 15 -9 12 -52 -4 -58 -10 -4 -13 -1 -9
9 7 19 -53 19 -73 0 -18 -19 -18 -46 1 -46 8 0 15 7 15 15 0 8 8 15 18 15 21
0 62 -43 62 -65 0 -8 5 -15 10 -15 6 0 10 -9 10 -20 0 -11 5 -20 10 -20 6 0
10 -10 10 -21 0 -21 -1 -21 -26 -5 -30 20 -78 17 -82 -5 -2 -12 4 -15 27 -11
23 3 36 -2 56 -23 15 -14 25 -28 23 -30 -6 -6 -78 19 -78 27 0 16 -41 7 -62
-12 l-22 -20 22 0 c15 0 22 -6 22 -19 0 -31 17 -33 25 -3 4 15 10 21 12 15 3
-7 10 -13 17 -13 18 0 66 -24 66 -32 0 -5 -9 -8 -20 -8 -11 0 -20 -4 -20 -10
0 -5 7 -10 15 -10 20 0 65 -22 65 -32 0 -4 -18 -8 -40 -8 -22 0 -40 -4 -40 -9
0 -13 82 -25 117 -18 16 4 22 4 16 1 -19 -8 -15 -24 5 -24 25 0 66 -36 57 -50
-5 -8 -13 -6 -26 6 -21 19 -69 12 -69 -11 0 -8 -4 -15 -10 -15 -5 0 -10 -7
-10 -15 0 -8 5 -15 10 -15 6 0 10 5 10 10 0 6 14 10 30 10 17 0 30 5 30 10 0
6 -5 10 -12 10 -6 0 -9 3 -5 6 8 8 56 -28 57 -43 0 -20 -44 -26 -146 -21 -101
6 -115 -2 -70 -36 27 -20 24 -46 -5 -46 -27 0 -24 -15 6 -28 32 -15 261 -16
270 -2 3 5 26 10 51 10 24 0 44 5 44 10 0 6 11 10 25 10 14 0 25 -4 25 -10 0
-6 28 -10 65 -10 36 0 65 -4 65 -9 0 -12 -29 -23 -42 -15 -6 4 -13 3 -17 -2
-3 -5 -15 -14 -25 -20 -30 -16 -31 -34 -2 -34 14 0 26 4 26 8 0 5 23 15 50 22
51 14 63 26 33 32 -10 2 20 2 67 0 47 -2 89 -8 94 -13 6 -5 20 -9 33 -9 13 0
23 -4 23 -10 0 -5 13 -10 29 -10 17 0 33 -4 36 -10 3 -5 15 -10 26 -10 10 0
19 5 19 10 0 6 -4 10 -10 10 -5 0 -10 9 -10 20 0 16 -7 20 -30 20 -16 0 -30 5
-30 10 0 6 30 10 69 10 47 0 71 4 74 13 3 10 11 10 39 0 19 -7 49 -13 66 -13
18 0 32 -4 32 -10 0 -6 52 -10 135 -10 83 0 135 4 135 10 0 6 9 10 20 10 11 0
20 5 20 10 0 6 -7 10 -16 10 -8 0 -22 7 -31 15 -13 14 -11 18 16 44 l31 29
-102 -6 c-94 -5 -102 -4 -90 11 8 9 11 21 7 27 -3 5 -2 10 3 10 17 0 23 31 9
44 -7 8 -22 16 -34 20 -24 8 -37 32 -22 41 5 4 12 -1 15 -10 4 -10 9 -13 13
-6 11 17 83 1 88 -20 3 -10 12 -20 20 -23 12 -5 14 -1 10 14 -6 23 10 17 31
-12 22 -30 32 -21 32 28 0 36 -3 45 -14 41 -11 -4 -13 -1 -9 10 5 12 2 15 -10
10 -11 -4 -14 -2 -10 9 3 7 10 14 15 14 6 0 8 13 5 33 -3 17 -3 26 0 20 2 -7
13 -13 24 -13 10 0 19 -4 19 -10 0 -5 9 -10 20 -10 17 0 20 7 20 50 0 28 -4
50 -10 50 -5 0 -10 11 -10 24 0 24 -32 46 -38 27 -2 -6 -21 -11 -43 -11 -29 0
-39 4 -39 16 0 8 -7 22 -15 31 -17 16 -12 33 11 33 8 0 14 3 14 8 0 4 11 8 25
8 14 1 25 -2 25 -7 0 -5 9 -9 20 -9 13 0 20 7 20 19 0 11 6 22 13 24 6 3 2 6
-10 6 -12 1 -23 -5 -25 -11 -7 -21 -38 17 -38 46 0 14 -4 26 -10 26 -5 0 -10
23 -10 50 0 49 12 66 24 34 3 -9 6 -29 6 -45 0 -24 4 -29 23 -29 21 0 34 -8
84 -50 20 -17 23 -12 23 35 0 25 -4 45 -10 45 -5 0 -10 14 -10 31 0 26 -3 30
-17 24 -10 -4 -26 -10 -35 -12 -10 -3 -18 -9 -18 -14 0 -5 -7 -9 -15 -9 -18 0
-20 36 -2 43 9 4 8 8 -3 16 -12 8 -11 13 9 31 14 11 22 23 19 26 -3 3 -17 -6
-31 -20 -17 -17 -32 -23 -46 -19 -17 4 -21 1 -22 -18 0 -13 -3 -18 -6 -11 -6
16 -51 15 -69 -2 -18 -19 -18 -63 0 -82 8 -8 25 -13 37 -12 15 2 24 -3 27 -14
3 -14 -3 -18 -27 -18 -32 0 -34 -5 -31 -51 1 -16 -5 -29 -14 -32 -9 -4 -16
-16 -16 -27 0 -11 -6 -23 -14 -26 -8 -3 -17 -12 -20 -20 -4 -10 3 -14 26 -14
25 0 29 3 20 12 -16 16 -15 28 2 28 22 0 41 -29 28 -42 -6 -6 -9 -16 -8 -22 2
-6 1 -8 -1 -3 -8 13 -23 8 -23 -8 0 -8 -12 -18 -27 -21 -33 -9 -53 -27 -53
-48 0 -10 -9 -16 -21 -16 -15 0 -19 -5 -15 -16 3 -8 2 -12 -4 -9 -10 6 -40
-17 -40 -31 0 -9 41 -44 52 -44 4 0 8 -4 8 -10 0 -18 -32 -11 -51 11 l-19 22
-35 -24 c-19 -13 -35 -29 -35 -34 0 -19 23 -35 51 -35 17 0 28 -6 31 -18 4
-15 1 -18 -18 -14 -14 2 -24 0 -24 -7 0 -6 -9 -11 -20 -11 -11 0 -20 6 -20 14
0 8 -9 18 -21 21 -26 9 -109 -3 -109 -15 0 -5 -20 -23 -44 -40 -40 -27 -52
-30 -120 -30 -44 0 -76 4 -76 10 0 6 -6 10 -13 10 -7 0 -22 9 -34 19 -46 43
-132 67 -148 41 -3 -5 -16 -8 -28 -6 -12 3 -25 5 -29 5 -5 1 -8 6 -8 12 0 17
-29 41 -41 33 -8 -4 -9 -3 -5 4 4 6 2 19 -3 29 -5 10 -16 41 -24 68 -13 40
-16 44 -16 22 -1 -34 -24 -32 -29 3 -3 17 -6 20 -12 9 -12 -18 -17 -11 -24 31
-7 36 10 78 21 53 6 -15 23 -17 23 -3 0 5 -11 17 -25 26 -22 14 -26 14 -40 1
-8 -9 -15 -20 -15 -26 0 -6 -4 -11 -10 -11 -6 0 -10 30 -10 69 0 39 -4 73 -10
76 -6 4 -10 -5 -10 -19 0 -14 -4 -26 -10 -26 -5 0 -10 9 -10 20 0 11 -4 20
-10 20 -14 0 -13 41 2 72 8 16 24 29 40 32 42 8 34 26 -12 26 -22 0 -40 -4
-40 -9 0 -5 -6 -11 -12 -14 -10 -3 -12 11 -10 59 2 35 8 64 13 64 5 0 9 9 9
20 0 13 7 20 20 20 13 0 20 -7 20 -20 0 -11 5 -20 10 -20 6 0 10 -9 10 -20 0
-11 5 -20 10 -20 31 0 -14 103 -48 108 -12 2 -22 8 -22 13 0 15 23 36 46 42
12 3 7 5 -13 6 -18 0 -33 -3 -33 -9 0 -5 -4 -10 -10 -10 -5 0 -10 14 -10 30 0
17 5 30 10 30 6 0 10 7 10 15 0 10 10 15 31 15 27 0 29 2 15 15 -17 17 -46 20
-46 5 0 -23 -18 -8 -22 19 -3 21 -1 28 9 24 7 -3 13 0 13 7 0 7 10 21 22 31
11 11 18 22 13 27 -4 4 -10 1 -12 -5 -3 -7 -13 -13 -24 -13 -10 0 -19 -4 -19
-10 0 -5 -4 -10 -10 -10 -19 0 -11 48 10 55 18 6 20 15 20 101 0 52 -1 94 -2
94 -2 0 -10 -6 -19 -13z m1208 -693 c-3 -3 -12 -4 -19 -1 -8 3 -5 6 6 6 11 1
17 -2 13 -5z m-1190 -80 c-3 -3 -12 -4 -19 -1 -8 3 -5 6 6 6 11 1 17 -2 13 -5z
m1228 -102 c-3 -3 -5 0 -5 6 0 7 -7 12 -15 12 -17 0 -18 2 -9 25 5 13 9 11 20
-11 8 -15 12 -29 9 -32z m-105 -50 c0 -4 14 -13 30 -20 54 -24 33 -92 -28 -92
-35 0 -51 29 -44 83 3 28 9 37 23 37 10 0 19 -3 19 -8z m167 -154 c-3 -8 -6
-5 -6 6 -1 11 2 17 5 13 3 -3 4 -12 1 -19z m-1140 -4 c-3 -3 -12 -4 -19 -1 -8
3 -5 6 6 6 11 1 17 -2 13 -5z m880 -60 c-3 -3 -12 -4 -19 -1 -8 3 -5 6 6 6 11
1 17 -2 13 -5z m-820 -40 c-3 -3 -12 -4 -19 -1 -8 3 -5 6 6 6 11 1 17 -2 13
-5z m840 0 c-3 -3 -12 -4 -19 -1 -8 3 -5 6 6 6 11 1 17 -2 13 -5z m-637 -36
c0 -4 14 -8 30 -8 23 0 30 -4 30 -20 0 -19 -7 -20 -90 -20 -53 0 -90 -4 -90
-10 0 -15 -67 -12 -74 3 -5 10 -7 10 -12 0 -10 -23 -24 -14 -24 16 0 32 27 51
37 25 4 -11 8 -12 13 -4 4 6 32 11 63 11 31 1 57 4 57 8 0 4 14 8 30 8 17 0
30 -4 30 -9z m470 3 c0 -5 14 -11 30 -14 29 -6 43 -36 18 -38 -39 -3 -83 5
-95 16 -11 12 -10 16 9 29 25 18 38 20 38 7z m198 -23 c2 -5 10 -4 18 3 30 25
55 -11 38 -55 -7 -18 -44 -22 -44 -5 0 8 -5 8 -15 -1 -10 -9 -15 -9 -15 -1 0
6 -16 11 -35 11 -19 0 -35 5 -35 11 0 8 -5 8 -15 -1 -13 -11 -15 -8 -15 18 0
17 6 32 13 35 19 6 102 -5 105 -15z m-1038 -18 c0 -23 -4 -30 -20 -30 -16 0
-20 7 -20 30 0 23 4 30 20 30 16 0 20 -7 20 -30z m102 10 c11 0 18 -7 18 -20
0 -15 -7 -20 -29 -20 -16 0 -31 -6 -33 -12 -3 -9 -9 -8 -21 4 -23 23 -21 48 3
48 11 0 20 5 20 12 0 9 3 9 12 0 7 -7 20 -12 30 -12z m555 -76 c-3 -3 -12 -4
-19 -1 -8 3 -5 6 6 6 11 1 17 -2 13 -5z"/>
<path d="M4738 1753 c7 -3 16 -2 19 1 4 3 -2 6 -13 5 -11 0 -14 -3 -6 -6z"/>
<path d="M5945 1749 c-3 -8 -4 -190 -3 -404 l3 -390 59 -3 c41 -2 62 1 67 10
5 7 9 73 9 146 l0 132 89 0 c50 0 93 5 96 10 3 6 19 10 36 10 16 0 29 5 29 10
0 6 7 10 15 10 20 0 65 45 65 65 0 8 5 15 10 15 6 0 10 13 10 29 0 17 5 33 10
36 12 8 13 159 1 183 -5 9 -15 31 -22 47 -19 40 -28 49 -80 76 -40 20 -61 23
-216 27 -141 4 -174 2 -178 -9z m290 -133 c55 -19 77 -57 72 -124 -3 -37 -10
-59 -26 -76 -23 -25 -88 -46 -140 -46 -61 0 -61 1 -61 136 l0 124 58 0 c31 0
75 -7 97 -14z"/>
<path d="M6643 1753 c-7 -2 -13 -13 -13 -23 0 -10 -3 -20 -8 -22 -10 -4 -52
-131 -52 -157 0 -11 -4 -21 -10 -21 -5 0 -10 -13 -10 -30 0 -16 -4 -30 -10
-30 -5 0 -10 -18 -10 -40 0 -22 -4 -40 -10 -40 -5 0 -10 -18 -10 -39 0 -22 -4
-43 -10 -46 -5 -3 -10 -24 -10 -46 0 -21 -4 -39 -10 -39 -5 0 -10 -17 -10 -38
0 -21 -4 -42 -9 -48 -8 -8 -16 -60 -24 -149 l-2 -30 63 -3 c59 -3 63 -2 72 23
6 14 13 52 16 83 4 31 12 60 18 64 6 4 61 8 121 8 l111 0 12 -33 c7 -18 12
-53 12 -76 0 -58 16 -71 88 -71 l60 0 -5 63 c-2 34 -8 71 -13 82 -9 19 -15 54
-26 143 -4 23 -10 42 -15 42 -5 0 -9 18 -9 39 0 22 -4 43 -10 46 -5 3 -10 22
-10 41 0 19 -4 34 -10 34 -5 0 -10 16 -10 35 0 19 -4 35 -10 35 -5 0 -10 13
-10 29 0 17 -4 33 -10 36 -5 3 -10 17 -10 31 0 13 -4 24 -10 24 -5 0 -10 14
-10 30 0 17 -4 30 -10 30 -5 0 -10 13 -10 29 0 17 -6 31 -16 35 -18 7 -143 7
-161 -1z m125 -299 c17 -60 32 -125 34 -144 l3 -35 -75 -3 c-41 -1 -81 1 -87
6 -12 7 13 128 57 275 16 55 32 32 68 -99z"/>
<path d="M7073 1754 c-20 -9 -18 -770 1 -790 9 -8 34 -14 61 -14 71 0 75 8 75
159 l0 131 90 0 90 0 0 -30 c0 -16 5 -30 10 -30 6 0 10 -13 10 -30 0 -16 5
-30 10 -30 6 0 10 -13 10 -29 0 -17 5 -33 10 -36 6 -3 10 -22 10 -41 0 -51 18
-64 90 -64 l62 0 -5 33 c-6 42 -39 165 -66 246 -23 69 -26 91 -13 91 5 0 18
19 28 42 27 60 27 237 0 288 -46 86 -90 102 -296 106 -91 2 -171 1 -177 -2z
m288 -140 c27 -9 49 -22 49 -30 0 -8 5 -14 10 -14 6 0 10 -28 10 -65 0 -55 -4
-70 -22 -88 -31 -30 -93 -49 -148 -45 l-45 3 -3 128 -3 127 51 0 c28 0 73 -7
101 -16z"/>
<path d="M7833 1745 c-7 -8 -13 -23 -13 -35 0 -11 -4 -20 -10 -20 -5 0 -10
-13 -10 -30 0 -16 -4 -30 -10 -30 -5 0 -10 -13 -10 -30 0 -16 -4 -30 -9 -30
-5 0 -11 -15 -14 -32 -3 -18 -21 -96 -41 -173 -20 -77 -43 -180 -51 -230 -9
-49 -20 -104 -26 -121 -18 -60 -15 -64 52 -64 76 0 89 12 89 79 0 28 5 51 10
51 6 0 10 11 10 25 l0 25 118 0 c118 0 119 0 130 -25 7 -14 12 -44 12 -65 0
-21 5 -51 12 -65 10 -23 16 -25 75 -25 l63 0 0 39 c0 22 -4 43 -10 46 -5 3
-10 28 -10 56 0 27 -4 49 -9 49 -5 0 -12 19 -15 43 -13 102 -19 127 -27 133
-5 3 -9 20 -9 39 0 19 -4 37 -10 40 -5 3 -10 19 -10 36 0 16 -4 37 -9 47 -5 9
-26 70 -47 135 -20 65 -44 125 -51 133 -20 19 -153 19 -170 -1z m107 -205 c0
-16 5 -30 10 -30 6 0 10 -13 10 -30 0 -16 5 -30 10 -30 6 0 10 -15 10 -34 0
-19 5 -38 10 -41 6 -3 10 -21 10 -40 0 -19 5 -37 11 -41 23 -14 -17 -24 -93
-24 l-78 0 0 45 c0 25 5 45 10 45 6 0 10 18 10 40 0 22 5 40 10 40 6 0 10 16
10 35 0 19 5 35 10 35 6 0 10 14 10 30 0 23 4 30 20 30 16 0 20 -7 20 -30z"/>
<path d="M8257 1754 c-9 -9 -10 -766 -1 -788 5 -12 21 -16 70 -16 l64 0 -2
403 -3 402 -60 3 c-34 2 -64 0 -68 -4z"/>
<path d="M8483 1754 c-18 -8 -19 -774 -1 -792 15 -15 278 -17 278 -2 0 6 24
10 54 10 130 0 196 71 196 210 0 72 -14 117 -51 164 -20 26 -21 32 -10 60 48
118 34 241 -33 299 -48 42 -85 50 -256 53 -91 2 -171 1 -177 -2z m297 -140
c19 -4 40 -13 47 -20 15 -15 18 -114 3 -114 -5 0 -10 -7 -10 -15 0 -8 -9 -15
-20 -15 -11 0 -20 -4 -20 -10 0 -6 -33 -10 -80 -10 l-80 0 0 101 0 101 63 -5
c34 -3 78 -9 97 -13z m20 -324 c0 -5 7 -10 16 -10 20 0 44 -24 44 -44 0 -9 5
-16 10 -16 20 0 10 -65 -14 -92 -23 -27 -26 -28 -130 -28 l-106 0 0 100 0 100
90 0 c53 0 90 -4 90 -10z"/>
<path d="M9243 1753 c-7 -2 -13 -13 -13 -24 0 -10 -3 -19 -7 -19 -5 0 -19 -35
-32 -78 -12 -42 -27 -86 -31 -97 -5 -11 -11 -31 -13 -45 -3 -14 -17 -72 -32
-130 -36 -142 -75 -338 -75 -377 l0 -33 65 0 65 0 0 30 c0 17 5 30 10 30 6 0
10 25 10 55 0 67 1 67 149 63 l105 -3 12 -55 c7 -30 13 -67 14 -81 0 -15 7
-30 16 -33 30 -12 105 -6 120 9 9 8 11 15 5 15 -7 0 -11 24 -11 60 0 33 -4 60
-10 60 -5 0 -10 23 -10 50 0 28 -4 50 -10 50 -5 0 -10 18 -10 40 0 22 -4 40
-10 40 -5 0 -10 18 -10 39 0 22 -4 43 -10 46 -5 3 -10 19 -10 35 0 16 -4 32
-10 35 -5 3 -10 22 -10 41 0 19 -4 34 -10 34 -5 0 -10 10 -10 21 0 26 -58 199
-72 217 -10 12 -138 16 -165 5z m107 -238 c0 -14 5 -25 10 -25 6 0 10 -15 10
-34 0 -19 5 -38 10 -41 6 -3 10 -19 10 -34 0 -15 5 -32 11 -38 6 -6 9 -23 7
-39 -3 -28 -5 -29 -68 -32 -83 -4 -110 3 -110 28 0 11 5 20 10 20 6 0 10 15
10 34 0 19 5 38 10 41 6 3 10 22 10 41 0 19 5 34 10 34 6 0 10 13 10 29 0 17
5 33 10 36 6 3 10 16 10 27 l0 22 20 -22 c11 -12 20 -33 20 -47z"/>
<path d="M4851 1704 c0 -11 3 -14 6 -6 3 7 2 16 -1 19 -3 4 -6 -2 -5 -13z"/>
<path d="M5420 1680 c-3 -23 -10 -34 -19 -32 -13 3 -31 -14 -31 -30 0 -5 7 -8
16 -8 10 0 13 -6 9 -19 -3 -10 1 -24 10 -31 11 -9 14 -22 10 -37 -5 -22 -3
-23 37 -22 24 1 33 4 21 6 -13 2 -23 11 -23 20 0 9 6 13 14 10 8 -3 27 -2 43
3 l28 8 -28 1 c-24 1 -77 39 -77 56 0 10 56 5 68 -7 7 -7 12 -9 12 -4 0 16
-30 36 -54 36 -22 0 -25 5 -28 43 l-4 42 -4 -35z"/>
<path d="M4680 1660 c-12 -8 -11 -10 8 -10 12 0 22 5 22 10 0 13 -11 13 -30 0z"/>
<path d="M4780 1660 c0 -5 9 -10 20 -10 11 0 20 5 20 10 0 6 -9 10 -20 10 -11
0 -20 -4 -20 -10z"/>
<path d="M4590 1640 c0 -5 9 -10 20 -10 11 0 20 5 20 10 0 6 -9 10 -20 10 -11
0 -20 -4 -20 -10z"/>
<path d="M4850 1640 c0 -5 16 -10 35 -10 19 0 35 5 35 10 0 6 -16 10 -35 10
-19 0 -35 -4 -35 -10z"/>
<path d="M5224 1355 c0 -165 2 -234 3 -153 2 81 2 216 0 300 -1 84 -3 18 -3
-147z"/>
<path d="M4311 1593 c-12 -13 -12 -16 0 -24 12 -8 12 -10 0 -18 -9 -6 -6 -8
13 -8 15 0 26 5 26 13 0 8 5 14 10 14 6 0 10 5 10 10 0 6 -9 10 -19 10 -11 0
-21 4 -23 9 -1 5 -9 2 -17 -6z"/>
<path d="M4630 1585 c0 -18 5 -25 20 -25 15 0 20 7 20 25 0 18 -5 25 -20 25
-15 0 -20 -7 -20 -25z"/>
<path d="M4810 1590 c0 -27 42 -44 52 -21 13 32 8 41 -22 41 -23 0 -30 -4 -30
-20z"/>
<path d="M4466 1574 c-12 -32 22 -47 48 -21 11 10 11 15 0 25 -18 17 -41 15
-48 -4z"/>
<path d="M4976 1574 c-8 -21 1 -34 25 -34 14 0 19 7 19 25 0 29 -34 36 -44 9z"/>
<path d="M5120 1580 c0 -5 5 -10 10 -10 6 0 10 -7 10 -15 0 -8 9 -15 20 -15
11 0 20 7 20 15 0 8 5 15 10 15 6 0 10 5 10 10 0 6 -18 10 -40 10 -22 0 -40
-4 -40 -10z"/>
<path d="M4730 1540 c0 -5 -23 -10 -51 -10 -31 0 -48 -4 -44 -10 4 -6 -37 -10
-117 -10 l-123 0 3 -232 c1 -132 7 -237 12 -242 6 -6 10 -20 10 -32 0 -13 5
-26 10 -29 6 -3 10 -15 10 -26 0 -10 5 -19 10 -19 6 0 10 -7 10 -15 0 -9 11
-27 25 -41 14 -14 25 -29 25 -34 0 -14 59 -68 81 -75 11 -4 19 -10 19 -14 0
-5 14 -14 30 -21 17 -7 30 -15 30 -19 0 -4 21 -13 47 -20 35 -11 48 -11 51 -3
2 7 11 12 20 12 10 0 28 9 42 20 14 11 29 20 33 20 4 0 13 5 20 10 46 39 61
50 69 50 4 0 8 5 8 11 0 6 14 24 30 39 21 20 30 37 30 60 0 17 -4 29 -9 26 -5
-4 -11 -1 -13 6 -3 7 -12 9 -24 4 -17 -7 -18 -8 -2 -17 19 -11 13 -43 -7 -35
-22 8 -49 -19 -42 -43 3 -13 1 -21 -8 -21 -7 0 -15 -3 -18 -7 -2 -5 -2 -1 0 7
9 32 7 35 -24 38 -24 2 -33 -1 -38 -17 -3 -12 -13 -21 -22 -21 -12 0 -14 7 -9
30 4 22 2 30 -9 30 -21 0 -19 18 3 22 12 2 6 9 -20 21 -21 10 -38 24 -38 32 0
46 35 60 60 25 11 -15 25 -20 60 -19 25 1 35 4 23 6 -26 5 -29 18 -9 39 16 16
76 19 76 4 0 -5 16 -10 35 -10 31 0 35 -3 35 -26 0 -23 20 -54 34 -54 3 0 6
14 6 30 0 17 5 30 10 30 6 0 10 18 10 39 0 22 5 43 10 46 6 4 10 88 10 221 l0
214 -131 0 c-84 0 -128 4 -124 10 4 6 -10 10 -34 10 -23 0 -41 5 -41 10 0 6
-9 10 -20 10 -11 0 -20 -4 -20 -10z m226 -194 c24 -24 15 -86 -12 -86 -8 0
-14 -4 -14 -10 0 -19 -41 -10 -65 15 -27 26 -32 58 -12 80 16 19 84 19 103 1z
m-183 -213 c-7 -2 -21 -2 -30 0 -10 3 -4 5 12 5 17 0 24 -2 18 -5z m-266 -35
c-3 -8 -6 -5 -6 6 -1 11 2 17 5 13 3 -3 4 -12 1 -19z m166 15 c-24 -2 -62 -2
-85 0 -24 2 -5 4 42 4 47 0 66 -2 43 -4z m255 0 c-10 -2 -28 -2 -40 0 -13 2
-5 4 17 4 22 1 32 -1 23 -4z m-381 -59 c-3 -3 -12 -4 -19 -1 -8 3 -5 6 6 6 11
1 17 -2 13 -5z m83 -24 c0 -5 -4 -10 -10 -10 -5 0 -10 5 -10 10 0 6 5 10 10
10 6 0 10 -4 10 -10z m80 -34 c0 -8 -7 -17 -16 -20 -23 -9 -24 -8 -24 14 0 13
7 20 20 20 11 0 20 -6 20 -14z"/>
<path d="M5300 1500 c0 -5 5 -10 10 -10 6 0 10 -9 10 -21 0 -24 26 -53 40 -44
6 4 7 -1 3 -12 -6 -15 -4 -16 9 -5 13 11 16 8 20 -18 5 -36 -1 -46 -28 -46
-15 0 -20 5 -16 15 3 9 0 12 -9 9 -20 -7 -23 -35 -5 -54 9 -8 16 -11 16 -5 0
6 18 11 40 11 33 0 40 3 40 20 0 15 7 20 26 20 27 0 59 -28 69 -61 11 -33 25
-21 25 21 0 22 -4 40 -10 40 -5 0 -10 7 -10 16 0 11 -6 14 -20 10 -11 -3 -29
-9 -40 -12 -15 -4 -20 -1 -20 15 0 11 -9 22 -20 26 -15 5 -20 15 -20 39 0 36
-15 56 -42 56 -26 0 -22 -18 5 -23 l22 -4 -23 -2 c-12 0 -25 6 -28 14 -7 17
-44 21 -44 5z"/>
<path d="M5300 1374 c0 -17 22 -14 28 4 2 7 -3 12 -12 12 -9 0 -16 -7 -16 -16z"/>
<path d="M4312 1354 c-7 -7 -12 -22 -12 -34 0 -15 6 -20 25 -20 18 0 25 5 25
19 0 11 4 21 10 23 5 2 -1 8 -13 14 -17 8 -26 7 -35 -2z"/>
<path d="M5130 1350 c-10 -6 -11 -10 -2 -10 6 0 12 -9 12 -20 0 -13 7 -20 20
-20 13 0 20 7 20 20 0 11 6 20 13 20 8 0 7 4 -3 10 -8 5 -22 10 -30 10 -8 0
-22 -5 -30 -10z"/>
<path d="M734 1263 c-16 -25 0 -56 37 -72 17 -8 29 -20 29 -32 0 -16 -7 -19
-42 -19 -52 0 -42 -13 12 -16 40 -1 40 -1 40 35 0 31 -5 38 -30 49 -50 22 -37
60 18 53 6 -1 12 3 12 9 0 18 -64 12 -76 -7z"/>
<path d="M850 1200 c0 -88 -1 -87 65 -70 30 8 30 8 -7 9 -35 1 -38 3 -38 31 0
25 4 30 25 30 14 0 25 5 25 10 0 6 -11 10 -25 10 -18 0 -25 5 -25 20 0 16 7
20 30 20 17 0 30 5 30 10 0 6 -18 10 -40 10 l-40 0 0 -80z"/>
<path d="M1003 1273 c-7 -2 -13 -11 -13 -19 0 -8 -4 -14 -10 -14 -5 0 -10 -19
-10 -41 0 -52 25 -77 75 -74 49 3 57 15 11 15 -21 0 -44 6 -52 14 -21 22 -18
79 6 96 30 22 26 37 -7 23z"/>
<path d="M1040 1270 c0 -5 12 -10 26 -10 14 0 23 4 19 10 -3 6 -15 10 -26 10
-10 0 -19 -4 -19 -10z"/>
<path d="M1130 1198 c0 -45 2 -79 5 -76 9 8 11 158 3 158 -4 0 -8 -37 -8 -82z"/>
<path d="M1180 1270 c0 -5 5 -10 10 -10 6 0 10 5 10 10 0 6 -4 10 -10 10 -5 0
-10 -4 -10 -10z"/>
<path d="M1265 1201 l0 -79 35 5 c46 7 51 13 12 13 l-31 0 1 60 c1 59 1 60 29
60 16 0 29 5 29 10 0 6 -17 10 -38 10 l-37 0 0 -79z"/>
<path d="M1360 1270 c0 -5 14 -10 30 -10 l30 0 0 -70 c0 -40 4 -70 10 -70 6 0
10 33 10 80 l0 80 -40 0 c-22 0 -40 -4 -40 -10z"/>
<path d="M1450 1270 c0 -5 5 -10 10 -10 6 0 10 5 10 10 0 6 -4 10 -10 10 -5 0
-10 -4 -10 -10z"/>
<path d="M1533 1265 c-15 -17 -17 -45 -3 -45 6 0 10 5 10 10 0 6 5 10 10 10
18 0 11 -58 -7 -63 -15 -4 -15 -5 2 -6 11 0 30 -13 44 -28 18 -21 22 -23 17
-8 -5 11 -17 48 -28 83 -21 65 -25 70 -45 47z"/>
<path d="M1645 1272 c-3 -3 -4 -37 -4 -76 1 -39 4 -60 6 -46 3 13 12 29 20 35
14 10 13 13 -1 27 -28 28 -20 48 18 48 19 0 37 -6 39 -12 3 -7 6 -3 6 9 1 19
-4 22 -39 21 -21 0 -41 -3 -45 -6z"/>
<path d="M1783 1205 c0 -44 2 -61 4 -37 2 23 2 59 0 80 -2 20 -4 1 -4 -43z"/>
<path d="M1870 1250 c0 -16 -4 -30 -10 -30 -5 0 -10 -13 -10 -30 0 -16 -4 -30
-10 -30 -5 0 -10 -9 -10 -20 0 -11 5 -20 10 -20 6 0 10 9 10 20 0 11 5 20 10
20 6 0 10 12 10 26 0 23 20 54 34 54 3 0 6 -13 6 -29 0 -20 -6 -31 -17 -34
-11 -3 -7 -5 10 -6 19 -1 27 -6 27 -20 0 -10 7 -21 15 -25 12 -4 14 0 9 22 -4
15 -11 29 -16 30 -4 2 -8 17 -8 33 0 16 -4 29 -10 29 -5 0 -10 9 -10 20 0 13
-7 20 -20 20 -16 0 -20 -7 -20 -30z"/>
<path d="M2050 1202 l0 -78 43 1 c80 0 116 77 61 131 -20 21 -30 24 -52 18
l-27 -8 29 -4 c53 -7 69 -42 44 -97 -9 -21 -18 -25 -51 -25 l-39 0 4 70 c2 39
0 70 -4 70 -4 0 -8 -35 -8 -78z"/>
<path d="M2217 1273 c-9 -9 -9 -141 1 -146 4 -3 25 -1 47 3 l40 8 -42 1 c-39
1 -43 3 -43 26 0 14 5 25 10 25 6 0 10 7 10 15 0 8 -4 15 -10 15 -5 0 -10 9
-10 20 0 17 7 20 42 20 23 0 39 2 37 4 -9 8 -76 16 -82 9z"/>
<path d="M2387 1273 c-4 -3 -7 -37 -7 -74 0 -75 6 -82 61 -69 l34 8 -32 1 -31
1 2 70 c2 49 -1 70 -9 70 -6 0 -15 -3 -18 -7z"/>
<path d="M2430 1270 c0 -5 9 -10 20 -10 11 0 20 5 20 10 0 6 -9 10 -20 10 -11
0 -20 -4 -20 -10z"/>
<path d="M2518 1258 c-6 -34 2 -58 18 -58 20 0 44 -24 44 -44 0 -12 -10 -16
-42 -16 -52 0 -43 -11 11 -14 l41 -2 0 38 c0 27 -4 38 -15 38 -8 0 -15 5 -15
10 0 6 -7 10 -15 10 -8 0 -15 9 -15 20 0 11 7 20 15 20 8 0 15 5 15 10 0 21
-38 10 -42 -12z"/>
<path d="M2570 1270 c0 -5 5 -10 10 -10 6 0 10 5 10 10 0 6 -4 10 -10 10 -5 0
-10 -4 -10 -10z"/>
<path d="M2650 1271 c0 -6 5 -11 10 -11 6 0 10 -30 10 -70 0 -40 4 -70 10 -70
6 0 10 30 10 70 0 39 1 73 3 78 1 4 -8 8 -20 10 -13 2 -23 -1 -23 -7z"/>
<path d="M2783 1265 c-7 -8 -13 -21 -13 -30 0 -8 -4 -15 -10 -15 -5 0 -10 -13
-10 -29 0 -17 -4 -33 -10 -36 -5 -3 -10 -13 -10 -21 0 -8 5 -14 10 -14 6 0 10
9 10 20 0 11 5 20 10 20 6 0 10 12 10 26 0 23 20 54 34 54 3 0 6 -16 6 -35 0
-19 5 -35 10 -35 6 0 10 -5 10 -11 0 -6 7 -17 15 -25 19 -19 19 -16 -1 43 -35
108 -39 114 -61 88z"/>
<path d="M2890 1200 l0 -80 50 5 c28 2 57 11 65 19 19 19 20 103 1 122 -17 16
-46 19 -46 4 0 -5 5 -10 11 -10 20 0 39 -29 39 -60 0 -41 -20 -60 -64 -60
l-36 0 0 60 c0 33 4 60 10 60 6 0 10 5 10 10 0 6 -9 10 -20 10 -18 0 -20 -7
-20 -80z"/>
<path d="M3066 1244 c-19 -41 -15 -83 12 -107 12 -11 22 -13 32 -7 12 8 10 10
-7 10 -16 0 -23 6 -23 20 0 11 -4 20 -10 20 -5 0 -10 9 -10 20 0 11 5 20 10
20 6 0 10 9 10 20 0 15 7 20 26 20 14 0 23 4 19 10 -13 22 -42 9 -59 -26z"/>
<path d="M3140 1272 c0 -4 9 -14 20 -22 28 -20 27 -77 -2 -101 -23 -21 -20
-33 6 -23 9 3 16 12 16 20 0 8 5 14 10 14 6 0 10 18 10 40 0 22 -4 40 -10 40
-5 0 -10 9 -10 20 0 13 -7 20 -20 20 -11 0 -20 -4 -20 -8z"/>
<path d="M5342 1260 c0 -14 2 -19 5 -12 2 6 2 18 0 25 -3 6 -5 1 -5 -13z"/>
<path d="M1212 1240 c0 -14 2 -19 5 -12 2 6 2 18 0 25 -3 6 -5 1 -5 -13z"/>
<path d="M1177 1205 c-15 -11 -16 -15 -4 -22 8 -4 21 -21 30 -38 15 -27 16
-28 17 -7 0 12 -4 22 -9 22 -6 0 -11 13 -13 29 -3 27 -5 28 -21 16z"/>
<path d="M1325 1210 c-3 -5 -1 -10 4 -10 6 0 11 5 11 10 0 6 -2 10 -4 10 -3 0
-8 -4 -11 -10z"/>
<path d="M1701 1203 c-12 -13 -12 -17 2 -25 10 -5 17 -15 17 -22 0 -8 7 -19
15 -26 10 -9 15 -9 15 -1 0 6 -4 11 -10 11 -5 0 -10 9 -10 19 0 11 -6 22 -12
25 -10 5 -10 7 0 12 13 6 17 24 5 24 -5 -1 -14 -8 -22 -17z"/>
<path d="M2445 1210 c-19 -8 -19 -9 3 -9 12 -1 22 4 22 9 0 6 -1 10 -2 9 -2 0
-12 -4 -23 -9z"/>
<path d="M1500 1175 c0 -14 -4 -25 -10 -25 -5 0 -10 -7 -10 -15 0 -23 16 -18
28 10 15 32 15 55 2 55 -5 0 -10 -11 -10 -25z"/>
<path d="M4300 1110 c0 -5 5 -10 10 -10 6 0 10 -7 10 -15 0 -8 9 -15 20 -15
11 0 20 4 20 9 0 5 3 16 6 25 5 13 -1 16 -30 16 -20 0 -36 -4 -36 -10z"/>
<path d="M5120 1110 c0 -5 5 -10 10 -10 6 0 10 -7 10 -15 0 -8 9 -15 20 -15
13 0 20 7 20 19 0 11 6 22 13 24 6 3 -7 6 -30 6 -24 1 -43 -3 -43 -9z"/>
<path d="M4200 1076 c0 -8 5 -18 10 -21 6 -3 10 -17 10 -31 0 -25 26 -61 36
-51 3 3 1 13 -5 24 -6 10 -14 33 -19 52 -8 35 -32 55 -32 27z"/>
<path d="M5200 998 c0 -23 3 -29 9 -19 8 12 4 51 -5 51 -2 0 -4 -15 -4 -32z"/>
<path d="M3973 960 c0 -30 2 -43 4 -27 2 15 2 39 0 55 -2 15 -4 2 -4 -28z"/>
<path d="M2810 963 c0 -11 3 -14 8 -7 4 6 14 14 22 17 10 4 8 6 -7 6 -16 1
-23 -5 -23 -16z"/>
<path d="M5180 931 c0 -25 6 -27 13 -6 4 8 2 17 -3 20 -6 4 -10 -3 -10 -14z"/>
<path d="M2070 866 c0 -85 5 -90 81 -80 39 5 49 10 49 25 0 11 5 19 10 19 6 0
10 16 10 36 0 52 -29 74 -97 74 l-53 0 0 -74z m70 54 c0 -5 9 -10 20 -10 16 0
20 -7 20 -34 0 -54 -8 -66 -46 -66 -34 0 -34 0 -34 45 0 25 6 52 13 60 14 17
27 19 27 5z"/>
<path d="M2280 915 c0 -14 -4 -25 -10 -25 -5 0 -10 -13 -10 -30 0 -16 -4 -30
-10 -30 -11 0 -14 -33 -4 -43 11 -11 34 5 34 24 0 14 7 19 30 19 23 0 30 -5
30 -19 0 -21 26 -36 35 -21 3 5 1 18 -5 29 -5 11 -10 31 -10 45 0 14 -4 26
-10 26 -5 0 -10 11 -10 25 0 21 -5 25 -30 25 -25 0 -30 -4 -30 -25z m40 -40
c0 -14 -4 -25 -10 -25 -5 0 -10 11 -10 25 0 14 5 25 10 25 6 0 10 -11 10 -25z"/>
<path d="M2473 933 c-32 -12 -5 -83 31 -83 9 0 16 -8 16 -20 0 -16 -7 -20 -30
-20 -32 0 -40 -14 -14 -24 27 -11 50 -7 72 13 35 30 27 50 -31 81 -26 13 -27
15 -12 26 9 7 23 10 31 7 8 -3 14 1 14 11 0 12 -9 16 -32 15 -18 0 -39 -3 -45
-6z"/>
<path d="M2612 869 c-12 -40 -19 -76 -16 -80 8 -14 34 2 34 22 0 30 48 25 60
-6 5 -14 16 -25 25 -25 9 0 15 9 15 25 0 14 -4 25 -10 25 -5 0 -10 14 -10 30
0 17 -4 30 -10 30 -5 0 -10 11 -10 25 0 21 -5 25 -28 25 -26 0 -30 -5 -50 -71z
m58 1 c0 -11 -4 -20 -10 -20 -5 0 -10 9 -10 20 0 11 5 20 10 20 6 0 10 -9 10
-20z"/>
<path d="M2750 879 c0 -51 4 -65 22 -80 11 -11 28 -19 37 -19 59 1 81 31 81
110 0 43 -3 50 -20 50 -18 0 -20 -7 -20 -65 l0 -65 -30 0 -30 0 0 65 c0 58 -2
65 -20 65 -18 0 -20 -7 -20 -61z"/>
<path d="M2930 859 l0 -82 50 6 c65 8 80 23 80 85 0 43 -3 50 -25 60 -14 7
-44 12 -65 12 l-40 0 0 -81z m100 10 c0 -35 -20 -59 -49 -59 -16 0 -20 8 -23
43 -2 23 1 49 6 58 8 14 12 14 37 2 22 -11 29 -21 29 -44z"/>
<path d="M3100 867 c0 -41 2 -76 4 -78 3 -2 25 -3 50 -1 51 4 64 22 16 22 -23
0 -30 4 -30 20 0 16 7 20 30 20 38 0 40 18 3 22 -17 2 -29 10 -31 21 -3 13 3
17 27 17 21 0 31 5 31 15 0 11 -12 15 -50 15 l-50 0 0 -73z"/>
<path d="M4883 933 c-18 -6 -16 -23 1 -23 17 0 30 16 19 23 -5 2 -14 2 -20 0z"/>
<path d="M5160 891 c0 -25 6 -27 13 -6 4 8 2 17 -3 20 -6 4 -10 -3 -10 -14z"/>
<path d="M4391 887 c-6 -6 -11 -21 -11 -34 0 -18 6 -23 25 -23 18 0 25 5 25
19 0 11 5 21 11 23 6 2 0 9 -14 15 -18 8 -27 9 -36 0z"/>
<path d="M5050 880 c-10 -6 -11 -10 -2 -10 6 0 12 -9 12 -20 0 -13 7 -20 20
-20 13 0 20 7 20 20 0 11 6 20 13 20 8 0 7 4 -3 10 -8 5 -22 10 -30 10 -8 0
-22 -5 -30 -10z"/>
<path d="M5140 853 c0 -10 -9 -25 -20 -33 -11 -8 -20 -21 -20 -30 0 -9 12 -1
30 20 32 38 35 46 20 55 -5 3 -10 -2 -10 -12z"/>
<path d="M7855 798 c-2 -7 -6 -38 -7 -68 l-3 -55 -49 -3 c-74 -5 -86 -23 -86
-137 0 -115 5 -120 107 -119 41 1 78 5 84 11 6 6 8 84 7 194 -3 182 -3 184
-26 187 -12 2 -24 -3 -27 -10z m-11 -210 c13 -83 12 -106 -6 -117 -47 -29 -78
-2 -78 69 0 58 14 79 52 80 23 0 28 -5 32 -32z"/>
<path d="M9310 740 l0 -70 -56 0 c-35 0 -61 -5 -70 -14 -19 -19 -20 -201 -1
-220 20 -20 60 -26 126 -20 l61 7 0 193 0 194 -30 0 -30 0 0 -70z m-16 -126
c12 -5 16 -21 16 -74 0 -75 -11 -88 -55 -68 -23 10 -25 17 -25 74 0 70 16 86
64 68z"/>
<path d="M6040 780 c0 -5 -11 -10 -25 -10 -14 0 -37 -11 -50 -25 -24 -23 -25
-30 -25 -140 0 -178 16 -193 187 -187 l42 2 3 105 3 105 -57 0 c-54 0 -58 -2
-58 -24 0 -18 7 -25 30 -29 28 -6 30 -9 30 -52 0 -40 -3 -45 -22 -47 -87 -6
-98 8 -98 119 0 80 2 91 23 109 18 16 30 18 71 12 58 -8 66 -5 66 28 0 17 -5
24 -19 24 -11 0 -23 5 -26 10 -3 6 -22 10 -41 10 -19 0 -34 -4 -34 -10z"/>
<path d="M8304 765 c-3 -14 -4 -96 -2 -182 l4 -158 103 -3 102 -3 -3 28 c-3
28 -4 28 -80 31 l-78 3 0 32 c1 51 20 67 79 67 48 0 51 2 51 25 0 23 -3 25
-49 25 -72 0 -79 4 -72 48 l6 37 65 3 c74 3 85 10 76 46 -6 26 -8 26 -101 26
-92 0 -95 -1 -101 -25z"/>
<path d="M5036 719 c-26 -27 -54 -49 -62 -49 -18 0 -19 46 -1 53 6 3 2 6 -10
6 -12 1 -24 7 -26 14 -4 10 -6 10 -6 0 -1 -7 -11 -13 -23 -14 -13 0 -17 -3
-10 -6 6 -2 12 -13 12 -24 0 -12 7 -19 19 -19 11 0 23 -5 26 -10 8 -13 -19
-40 -39 -40 -9 0 -16 -3 -16 -8 0 -4 -15 -13 -32 -21 -18 -8 -51 -22 -73 -32
-22 -9 -47 -19 -55 -22 -8 -3 -3 -6 13 -6 15 -1 27 4 27 9 0 6 11 10 25 10 14
0 25 5 25 10 0 6 11 10 25 10 14 0 25 4 25 9 0 5 12 12 26 15 15 4 32 12 38
19 7 7 27 23 45 37 43 33 111 97 111 104 0 14 -18 1 -64 -45z"/>
<path d="M4561 743 c-1 -7 -10 -13 -20 -13 -17 0 -18 -3 -8 -25 16 -34 53 -34
59 0 4 16 1 25 -8 25 -7 0 -15 6 -17 13 -4 10 -6 10 -6 0z"/>
<path d="M8780 700 c0 -16 -4 -30 -10 -30 -5 0 -10 -11 -10 -25 0 -14 5 -25
10 -25 6 0 10 -35 10 -86 0 -61 4 -90 14 -100 17 -16 82 -19 91 -4 11 18 -6
50 -26 50 -17 0 -19 7 -19 70 0 63 2 70 20 70 15 0 20 7 20 25 0 18 -5 25 -20
25 -16 0 -20 7 -20 30 0 27 -3 30 -30 30 -27 0 -30 -3 -30 -30z"/>
<path d="M6237 635 c-19 -40 -24 -175 -7 -175 6 0 10 -9 10 -20 0 -18 7 -20
85 -20 78 0 85 2 85 20 0 11 5 20 10 20 6 0 10 33 10 80 0 73 -3 83 -25 105
-20 21 -33 25 -88 25 -63 0 -63 0 -80 -35z m121 -27 c7 -7 12 -37 12 -68 0
-50 -3 -58 -24 -67 -56 -26 -103 75 -59 127 19 22 53 26 71 8z"/>
<path d="M6450 650 c0 -11 5 -20 10 -20 6 0 10 -15 10 -34 0 -19 5 -38 10 -41
6 -3 10 -22 10 -41 0 -19 5 -34 10 -34 6 0 10 -13 10 -30 0 -29 1 -30 48 -30
l48 0 13 48 c8 26 19 65 26 87 7 22 16 57 19 78 7 36 6 37 -24 37 -28 0 -30
-3 -30 -34 0 -19 -4 -38 -10 -41 -5 -3 -10 -20 -10 -36 0 -26 -26 -70 -33 -58
-10 15 -27 80 -27 102 0 15 -4 27 -10 27 -5 0 -10 9 -10 20 0 16 -7 20 -30 20
-23 0 -30 -4 -30 -20z"/>
<path d="M6721 653 c-19 -21 -21 -193 -3 -215 17 -21 71 -30 132 -22 47 6 50
8 50 36 0 28 -2 30 -27 24 -70 -17 -83 -18 -98 -3 -8 9 -15 23 -15 31 0 13 13
16 70 16 l70 0 0 61 c0 39 -5 65 -14 75 -21 20 -146 19 -165 -3z m117 -60 c3
-21 -1 -23 -37 -23 -33 0 -41 4 -41 18 0 27 10 33 45 30 22 -2 31 -9 33 -25z"/>
<path d="M6953 655 c-9 -9 -13 -50 -13 -125 l0 -110 30 0 30 0 0 94 c0 99 3
106 51 106 14 0 19 7 19 25 0 24 -3 25 -52 25 -33 -1 -58 -6 -65 -15z"/>
<path d="M7133 663 c-10 -3 -13 -38 -13 -124 l0 -119 25 0 c24 0 24 1 27 98
l3 97 36 3 c44 4 49 -7 49 -120 0 -76 0 -78 25 -78 l25 0 0 111 c0 136 -3 139
-97 138 -37 0 -74 -3 -80 -6z"/>
<path d="M7381 654 c-19 -22 -16 -200 4 -220 19 -19 141 -19 161 0 10 11 14
40 14 109 0 118 -8 127 -101 127 -45 -1 -68 -5 -78 -16z m113 -40 c12 -5 16
-21 16 -68 0 -59 -2 -63 -27 -72 -40 -14 -73 20 -73 76 0 22 5 40 10 40 6 0
10 7 10 15 0 16 35 20 64 9z"/>
<path d="M7973 655 c-19 -21 -18 -202 1 -221 20 -19 142 -19 162 0 10 11 14
41 14 111 0 70 -4 100 -14 111 -20 19 -146 19 -163 -1z m115 -47 c7 -7 12 -37
12 -68 0 -53 -2 -56 -30 -67 -16 -6 -30 -7 -30 -2 0 5 -7 9 -15 9 -11 0 -15
13 -15 54 0 30 3 61 6 70 7 19 55 21 72 4z"/>
<path d="M8567 647 c-25 -31 -19 -89 11 -102 12 -5 22 -13 22 -17 0 -5 12 -8
26 -8 22 0 62 -26 53 -34 -18 -16 -49 -25 -54 -16 -3 5 -22 10 -41 10 -31 0
-34 -2 -34 -30 l0 -30 81 0 c95 0 108 10 109 76 0 38 -3 42 -37 57 -21 9 -47
17 -58 19 -12 2 -21 12 -23 27 -3 22 -1 23 46 20 51 -4 72 7 72 36 0 12 -14
15 -77 15 -69 0 -80 -3 -96 -23z"/>
<path d="M8940 633 c0 -29 3 -34 12 -25 7 7 31 12 55 12 32 0 45 -5 53 -20 12
-23 8 -26 -58 -33 -58 -7 -82 -30 -82 -79 0 -65 36 -83 145 -72 l65 7 0 73 c0
40 -4 76 -10 79 -5 3 -10 20 -10 36 0 48 -19 59 -99 59 l-71 0 0 -37z m101
-128 c26 -14 28 -18 15 -30 -18 -18 -30 -19 -55 -3 -15 9 -17 15 -8 30 14 22
11 22 48 3z"/>
<path d="M9428 645 c-21 -28 -25 -158 -6 -200 10 -23 16 -25 80 -25 71 0 98
12 98 44 0 9 5 16 10 16 6 0 10 28 10 65 0 37 -4 65 -10 65 -5 0 -10 7 -10 16
0 31 -27 44 -92 44 -55 -1 -65 -4 -80 -25z m122 -44 c32 -61 -7 -154 -54 -129
-12 6 -24 16 -28 22 -12 18 -9 84 4 106 17 26 64 27 78 1z"/>
<path d="M4100 641 c0 -5 -8 -12 -17 -14 -10 -3 8 -5 40 -4 67 2 82 21 20 25
-24 2 -43 -1 -43 -7z"/>
<path d="M4718 623 c6 -2 12 -13 12 -24 0 -13 7 -19 21 -19 13 0 18 4 13 12
-4 6 1 17 11 25 17 12 14 13 -26 12 -24 0 -38 -3 -31 -6z"/>
<path d="M4678 563 c6 -2 18 -2 25 0 6 3 1 5 -13 5 -14 0 -19 -2 -12 -5z"/>
</g>
</svg>
