<?xml version="1.0" standalone="no"?>
<!DOCTYPE svg PUBLIC "-//W3C//DTD SVG 20010904//EN"
 "http://www.w3.org/TR/2001/REC-SVG-20010904/DTD/svg10.dtd">
<svg version="1.0" xmlns="http://www.w3.org/2000/svg"
 width="1919.000000pt" height="803.000000pt" viewBox="0 0 1919.000000 803.000000"
 preserveAspectRatio="xMidYMid meet">

<g transform="translate(0.000000,803.000000) scale(0.100000,-0.100000)"
fill="#fff" stroke="none">
<path d="M18566 7490 c-178 -186 -599 -712 -877 -1096 l-138 -191 -54 5 c-205
17 -570 -194 -793 -459 -144 -170 -228 -329 -222 -417 4 -59 38 -88 93 -78 39
8 260 168 453 330 96 81 111 84 57 11 -48 -66 -107 -176 -120 -225 -16 -62 -7
-96 31 -110 55 -21 80 -5 296 182 118 103 249 209 286 232 7 4 0 -14 -16 -41
-48 -81 -67 -142 -67 -215 0 -76 19 -111 76 -141 86 -46 277 19 484 165 38 27
120 76 180 110 131 71 308 186 388 251 68 56 66 62 36 -120 -23 -143 -47 -198
-114 -265 -78 -79 -169 -104 -269 -74 -67 20 -55 0 25 -41 77 -39 146 -43 232
-14 156 54 236 159 301 396 62 221 117 343 170 378 45 30 80 92 72 129 -10 52
-42 78 -96 78 -73 0 -124 -40 -210 -165 -82 -119 -208 -245 -377 -378 -61 -48
-114 -87 -117 -87 -3 0 10 22 29 48 54 75 96 175 102 240 6 66 -9 132 -36 156
-18 16 -18 16 -14 -28 6 -53 -24 -126 -91 -220 -63 -87 -222 -243 -324 -316
-85 -62 -215 -130 -246 -130 -27 0 -19 60 18 135 103 213 368 481 576 583 67
33 84 37 153 37 l78 0 -25 22 c-49 42 -176 43 -296 4 -137 -46 -321 -172 -466
-320 -57 -59 -105 -96 -174 -135 -52 -30 -146 -88 -207 -129 -62 -41 -113 -72
-113 -70 0 2 47 61 104 131 104 128 243 313 572 762 442 603 718 1019 774
1165 19 50 -18 24 -124 -85z m-1062 -1352 c-62 -104 -252 -308 -398 -427 -99
-81 -408 -302 -414 -296 -8 8 81 154 153 251 180 240 369 400 548 465 62 22
122 25 111 7z"/>
<path d="M16875 7562 c-22 -16 -76 -69 -121 -118 -78 -87 -377 -448 -421 -510
-24 -34 -21 -33 -383 -85 -210 -30 -388 -78 -374 -100 9 -15 350 -6 507 12 59
7 110 10 113 6 4 -3 -25 -46 -63 -94 -272 -344 -779 -1041 -888 -1220 -47 -79
-57 -141 -26 -172 11 -11 34 -21 49 -21 32 0 57 17 182 125 97 84 352 286 356
282 2 -1 -12 -33 -31 -70 -113 -235 -22 -385 196 -321 146 43 326 158 464 298
144 146 204 258 204 381 1 58 -27 145 -46 145 -4 0 -6 -22 -5 -49 7 -92 -69
-214 -233 -376 -145 -143 -321 -263 -414 -281 -28 -6 -31 -4 -31 19 0 15 9 48
19 74 83 211 369 512 591 621 67 33 84 37 152 37 72 0 76 1 61 17 -26 29 -81
41 -162 35 -177 -12 -367 -119 -581 -323 -69 -67 -137 -121 -200 -159 -52 -32
-140 -88 -195 -124 -55 -37 -107 -71 -115 -76 -19 -11 -4 8 298 405 289 380
414 549 547 740 l97 138 86 12 c337 46 507 71 912 135 52 8 138 22 190 30 184
28 456 76 510 90 54 14 53 14 -65 9 -116 -5 -370 -26 -700 -59 -88 -9 -227
-22 -310 -30 -247 -24 -442 -44 -485 -51 -22 -4 -40 -4 -40 0 0 3 69 108 153
233 154 229 252 394 245 414 -2 5 -21 -3 -43 -19z"/>
<path d="M10190 7437 c-389 -85 -855 -325 -1061 -544 -114 -122 -136 -219 -61
-269 74 -50 280 -68 612 -54 767 34 907 34 1079 4 140 -25 193 -56 211 -124
23 -84 -46 -211 -207 -384 -124 -134 -222 -215 -398 -331 -372 -245 -822 -462
-1370 -660 -414 -150 -735 -199 -787 -121 -14 21 -7 81 15 137 30 73 107 189
251 379 64 85 112 156 106 158 -18 6 -135 -94 -236 -203 -126 -137 -169 -194
-212 -285 -32 -67 -36 -84 -37 -155 0 -96 19 -130 93 -167 40 -20 65 -23 178
-26 138 -4 199 4 394 54 457 118 808 247 1225 454 568 281 926 559 1049 815
51 104 66 161 66 242 0 74 -32 145 -88 195 -144 130 -375 160 -1177 156 -459
-2 -581 4 -608 31 -14 14 106 129 208 198 382 258 795 423 1062 423 68 0 138
-22 147 -47 12 -30 -38 -107 -122 -190 -75 -74 -80 -81 -48 -68 108 45 217
129 246 190 38 79 11 143 -77 186 -43 20 -65 23 -198 26 -126 2 -167 -1 -255
-20z"/>
<path d="M3446 7185 c-95 -218 -99 -225 -130 -229 -17 -3 -123 -12 -236 -21
-113 -9 -218 -19 -233 -23 -27 -7 -21 -14 167 -181 159 -142 195 -178 191
-195 -56 -236 -110 -486 -105 -486 4 0 72 41 151 91 79 51 178 113 220 139
l75 48 225 -143 c123 -78 225 -141 226 -141 1 1 -29 116 -67 256 -39 140 -70
255 -70 256 0 1 90 79 200 175 110 95 197 175 195 177 -3 3 -117 15 -255 27
-138 12 -252 24 -255 26 -2 2 -45 98 -95 213 -49 115 -94 215 -98 222 -5 9
-42 -64 -106 -211z m168 -35 c36 -85 66 -158 66 -161 0 -3 -23 0 -52 7 -61 16
-156 18 -192 4 -14 -5 -26 -6 -26 -3 0 10 133 313 136 310 1 -1 32 -72 68
-157z m42 -210 c91 -40 145 -103 169 -198 64 -249 -206 -451 -440 -331 -121
63 -190 210 -156 336 27 98 121 187 225 212 56 14 149 5 202 -19z m-386 -36
c0 -3 -9 -19 -21 -35 -30 -42 -60 -133 -62 -190 -1 -27 -3 -49 -5 -49 -1 0
-68 57 -149 128 -106 92 -141 128 -127 130 80 11 364 24 364 16z m839 -13 l73
-6 -143 -125 c-78 -69 -147 -128 -154 -132 -7 -5 -10 4 -7 29 7 54 -26 159
-65 210 l-34 45 128 -8 c70 -4 161 -10 202 -13z m-224 -572 c24 -96 42 -175
40 -177 -3 -3 -208 123 -283 173 l-32 22 64 32 c42 20 82 51 113 85 26 29 49
50 51 46 2 -5 23 -86 47 -181z m-563 80 c17 -13 57 -32 89 -44 l58 -20 -155
-104 c-85 -57 -156 -102 -158 -100 -3 3 49 253 69 338 6 24 6 24 36 -12 16
-20 44 -46 61 -58z"/>
<path d="M3433 6814 c-40 -20 -73 -40 -73 -45 0 -17 40 -49 62 -49 12 0 30 8
41 18 20 17 20 17 2 -10 -9 -16 -21 -28 -26 -28 -4 0 -28 -20 -54 -45 -56 -56
-54 -77 13 -121 59 -39 102 -54 160 -54 100 0 164 43 134 91 -7 10 -12 36 -12
57 0 21 -9 55 -20 77 -11 22 -20 44 -20 50 0 7 -15 28 -32 49 -48 54 -84 56
-175 10z"/>
<path d="M883 6301 c-48 -50 -63 -74 -58 -92 4 -12 -1 -20 -15 -24 -13 -4 -19
-12 -16 -21 3 -8 2 -14 -3 -14 -8 0 -14 -20 -23 -75 -2 -11 -9 -24 -16 -28 -9
-6 -11 -18 -8 -33 5 -17 2 -24 -9 -24 -9 0 -15 -9 -15 -25 0 -14 -5 -25 -11
-25 -7 0 -9 -10 -5 -25 4 -16 2 -25 -5 -25 -6 0 -9 -9 -6 -19 3 -12 -1 -22
-10 -25 -10 -4 -13 -14 -10 -27 3 -13 0 -22 -10 -26 -9 -4 -13 -13 -9 -28 4
-15 1 -25 -9 -29 -8 -3 -15 -14 -15 -25 0 -11 -5 -23 -11 -27 -6 -3 -9 -15 -6
-25 3 -10 1 -22 -4 -25 -5 -3 -9 -16 -9 -29 0 -13 -4 -27 -10 -30 -16 -10 -12
-23 10 -30 11 -3 20 -15 20 -26 0 -13 7 -19 23 -19 51 -1 57 -17 57 -151 l0
-124 -35 64 c-58 107 -125 161 -200 161 l-36 0 39 -47 c80 -95 149 -251 167
-373 l6 -45 -21 32 c-12 18 -52 53 -88 77 -67 45 -130 103 -150 141 -30 53 8
-107 39 -168 11 -21 45 -66 76 -99 30 -33 66 -83 79 -112 21 -46 50 -183 41
-192 -2 -2 -28 24 -57 58 -78 93 -105 110 -181 109 -56 0 -66 -3 -92 -29 -40
-40 -54 -108 -62 -310 -4 -92 -12 -175 -17 -184 -12 -25 5 -22 29 5 26 28 39
71 53 167 21 142 47 190 105 190 83 0 161 -162 251 -524 19 -77 37 -148 40
-156 3 -8 -26 15 -63 52 -80 78 -132 108 -190 108 -55 0 -82 -11 -119 -50 -74
-75 -116 -202 -135 -407 -6 -69 -8 -156 -4 -192 l7 -65 33 129 c62 245 122
374 191 411 35 19 35 19 72 -2 47 -27 110 -121 157 -233 34 -80 113 -309 129
-374 l7 -28 -47 35 c-68 52 -166 97 -227 103 -131 13 -217 -66 -253 -236 -19
-90 -18 -300 3 -443 16 -119 33 -148 33 -58 0 64 26 265 46 360 50 234 130
304 236 211 84 -74 183 -238 314 -518 35 -75 62 -138 60 -140 -2 -2 -40 19
-86 47 -285 177 -452 139 -468 -106 l-5 -74 -36 -1 c-20 0 -67 -10 -106 -23
l-70 -22 70 -11 c39 -6 86 -17 106 -26 44 -18 49 -35 50 -201 l1 -121 28 60
c16 33 37 94 46 135 10 41 18 76 19 78 5 8 192 -55 264 -89 87 -40 325 -179
319 -185 -2 -2 -25 3 -50 11 -75 22 -233 37 -306 29 -37 -4 -58 -10 -48 -12
34 -7 268 -98 350 -136 92 -42 298 -157 292 -163 -2 -3 -21 1 -43 7 -117 33
-232 50 -347 50 -129 0 -194 -13 -271 -53 l-40 -21 90 -8 c365 -30 543 -73
745 -179 104 -55 214 -129 190 -129 -43 1 -220 46 -335 85 -167 57 -276 73
-380 57 -112 -17 -217 -70 -244 -121 -10 -17 -2 -18 172 -13 190 5 256 -2 332
-37 l40 -18 -35 -17 c-71 -36 -142 -120 -165 -194 -6 -21 -2 -20 52 16 144 98
233 126 382 120 97 -5 211 -30 211 -48 0 -3 -17 -12 -37 -19 -37 -13 -122 -70
-123 -82 0 -3 32 -2 72 3 39 5 104 7 142 6 64 -3 51 -6 -124 -28 -161 -20
-237 -25 -440 -25 -251 1 -348 10 -557 54 -46 10 -83 15 -83 12 0 -3 24 -38
53 -76 49 -64 125 -136 202 -192 l30 -21 -20 -23 c-33 -36 -129 -94 -214 -129
-45 -18 -81 -35 -81 -39 0 -9 223 -54 410 -82 117 -18 191 -23 385 -23 267 -1
279 0 615 74 244 54 392 80 454 80 22 0 69 -12 105 -27 64 -27 72 -28 241 -28
119 0 212 6 289 19 62 9 117 14 122 9 4 -4 -100 -43 -233 -86 l-241 -79 -65
-61 c-87 -84 -89 -90 -57 -137 l26 -37 119 53 c169 75 420 173 597 233 l152
51 47 -25 c49 -26 143 -35 173 -16 10 6 42 -5 100 -34 108 -54 206 -93 347
-139 143 -46 343 -100 349 -94 3 2 -18 60 -45 129 l-50 124 -123 23 c-145 28
-305 76 -288 86 21 13 142 10 264 -7 208 -30 388 -20 481 24 22 11 57 19 79
19 62 0 225 -28 438 -76 292 -65 358 -75 539 -81 170 -6 363 6 525 32 163 27
365 69 365 75 0 4 -41 24 -91 45 -89 37 -214 119 -214 141 0 6 23 28 50 49 28
21 67 54 89 74 40 37 136 159 136 171 0 4 -27 1 -60 -7 -149 -34 -323 -54
-516 -60 -111 -3 -217 -3 -237 1 -32 6 -35 9 -25 25 9 15 7 22 -11 40 -22 22
-28 51 -10 51 6 0 9 6 6 13 -4 10 3 12 24 9 16 -2 29 -10 29 -18 0 -25 26 -26
69 -4 26 13 41 27 41 39 0 20 -43 89 -68 109 -13 10 -5 12 47 12 34 0 61 3 59
8 -2 4 -19 39 -37 77 -49 101 -64 115 -125 115 -38 0 -61 6 -88 25 -25 17 -51
25 -78 25 -87 0 -104 42 -43 105 l37 38 8 -30 c9 -37 70 -93 99 -93 13 0 23
-8 26 -21 6 -21 6 -21 19 2 20 36 17 92 -6 122 -29 36 -25 40 19 18 56 -29 71
-48 71 -88 l0 -36 25 23 c24 23 28 23 68 11 23 -8 62 -15 86 -16 38 -2 45 -6
56 -31 7 -16 29 -49 49 -73 30 -36 37 -50 32 -74 -5 -26 -4 -28 17 -22 60 18
96 61 104 124 3 23 9 38 14 36 4 -3 22 -31 40 -63 38 -66 111 -147 151 -168
32 -17 33 -16 13 22 -16 32 -18 88 -5 174 5 39 4 67 -6 95 -11 34 -11 42 1 55
36 40 7 95 -80 155 -30 21 -55 42 -55 46 0 3 11 14 25 23 39 26 50 58 32 92
l-15 29 40 10 c23 6 46 19 52 30 6 11 12 22 14 24 1 3 8 -3 15 -12 6 -9 41
-28 77 -43 79 -31 100 -49 100 -83 1 -25 2 -25 20 9 22 41 25 84 9 163 -11 54
-11 58 19 104 52 82 51 94 -7 156 -47 50 -51 58 -51 103 0 40 6 56 31 87 33
40 35 38 -43 56 -27 6 -62 20 -79 30 -35 21 -42 51 -39 164 0 33 -4 65 -10 71
-6 9 -7 23 -1 42 6 16 11 62 13 101 3 65 2 71 -12 58 -9 -10 -15 -35 -16 -68
-1 -90 -7 -98 -36 -46 -13 22 -15 35 -8 49 6 10 10 27 10 38 0 26 22 43 62 46
43 4 98 32 98 52 0 13 -4 12 -27 -4 -16 -10 -53 -27 -84 -37 -47 -14 -58 -22
-62 -44 -3 -14 -12 -34 -20 -45 -13 -18 -15 -18 -48 -1 -19 10 -35 19 -37 20
-1 1 11 17 28 35 17 18 30 43 30 57 0 25 -1 26 -52 20 -32 -4 -57 -2 -65 4
-23 19 -15 86 17 150 17 33 37 88 46 122 20 84 34 117 48 117 26 0 36 -26 36
-90 0 -38 5 -71 12 -78 17 -17 90 -15 114 3 30 23 38 19 83 -42 l43 -58 66 -5
66 -5 14 -47 c7 -27 17 -48 22 -48 4 0 20 14 34 31 32 37 34 81 5 110 -17 17
-19 25 -11 43 16 31 32 97 32 129 0 38 -33 100 -66 124 -23 17 -25 23 -15 41
30 56 -5 137 -64 148 -99 18 -195 -24 -251 -112 -33 -52 -36 -54 -79 -54 l-45
0 0 38 c0 22 -3 73 -6 115 -7 73 -6 77 14 77 11 0 34 -8 51 -17 16 -10 33 -14
37 -10 10 10 -27 75 -57 101 l-26 21 21 37 c27 48 94 83 158 82 42 0 46 2 37
17 -16 30 -66 59 -123 71 -53 12 -54 13 -61 52 -7 49 -23 72 -57 85 l-26 10
36 74 37 74 73 12 73 12 49 -41 c108 -91 174 -193 174 -272 0 -46 1 -48 29
-48 18 0 39 10 58 29 26 26 29 36 29 93 0 42 -9 86 -26 133 -14 39 -31 93 -37
122 -7 28 -23 63 -36 77 -22 24 -31 26 -106 26 -77 0 -83 -1 -110 -30 -16 -16
-38 -30 -50 -30 -12 0 -30 -7 -41 -15 -22 -17 -54 -20 -54 -5 0 6 5 10 10 10
6 0 10 23 10 50 0 50 0 50 33 50 42 0 97 34 97 60 0 16 7 20 31 20 22 0 41 10
65 34 30 30 34 40 34 88 -1 65 -43 151 -76 156 -17 2 -25 14 -33 47 -13 54
-38 72 -110 82 -36 5 -57 14 -65 27 -8 14 -8 20 3 24 13 4 28 19 60 57 25 31
101 -6 101 -49 1 -19 4 -18 30 12 17 18 30 41 30 52 0 17 4 18 29 9 15 -6 38
-19 50 -31 12 -11 24 -18 27 -16 13 13 -21 129 -52 175 -19 28 -34 58 -34 66
0 8 18 32 40 54 l39 40 -52 12 c-29 6 -65 12 -82 14 -26 2 -30 6 -33 35 -4 42
-22 41 -66 -5 -34 -37 -36 -37 -71 -24 -27 9 -40 10 -48 2 -18 -18 -45 -13
-53 11 -8 27 17 48 58 48 15 0 28 4 28 8 0 12 -44 52 -58 52 -19 0 -14 14 9
28 19 12 20 19 14 80 -5 49 -12 72 -27 84 -11 10 -24 33 -29 51 -5 20 -20 39
-36 48 -36 19 -152 16 -208 -6 -41 -15 -45 -20 -45 -50 0 -19 -5 -46 -12 -60
-10 -22 -8 -38 13 -97 15 -44 33 -77 47 -87 13 -9 31 -24 40 -33 9 -10 24 -18
34 -18 11 0 15 -5 12 -15 -4 -9 0 -15 9 -15 21 0 74 -49 85 -80 22 -61 23 -80
4 -80 -27 0 -52 32 -52 67 0 23 -9 39 -36 63 -39 34 -57 34 -118 4 -16 -8 -48
-14 -72 -14 -51 0 -74 -25 -74 -79 0 -26 9 -43 38 -72 20 -20 45 -47 55 -58
14 -17 28 -21 80 -21 35 0 68 5 74 11 7 7 19 2 39 -18 l29 -28 5 40 5 40 33
-44 c33 -46 39 -61 22 -61 -5 0 -17 -11 -26 -25 -16 -24 -15 -27 9 -64 35 -52
37 -74 9 -86 -12 -5 -25 -17 -27 -26 -3 -9 -14 -24 -24 -33 -18 -17 -19 -16
-26 13 -16 73 -79 103 -134 65 -22 -16 -24 -15 -45 10 -16 21 -33 28 -74 33
l-53 6 7 -44 7 -44 -25 23 c-28 25 -138 45 -138 24 0 -20 86 -137 116 -157 30
-20 30 -21 13 -45 -10 -14 -21 -46 -25 -72 l-6 -48 40 0 c40 0 42 -1 53 -42
33 -127 121 -185 142 -95 7 29 15 39 36 43 35 9 51 23 51 45 0 12 7 19 20 19
26 0 25 -16 -6 -85 -26 -56 -26 -58 -13 -150 10 -74 10 -103 0 -135 -6 -22
-17 -40 -22 -40 -27 0 -74 40 -115 98 -72 100 -168 161 -279 177 l-50 7 35
-23 c34 -23 59 -65 132 -225 15 -32 48 -81 73 -107 45 -47 45 -48 45 -119 0
-45 -5 -77 -13 -87 -20 -24 -38 -97 -31 -126 6 -23 10 -25 43 -19 20 4 55 13
79 20 l44 12 -7 -41 -7 -42 26 24 c14 14 28 22 31 19 3 -2 -4 -31 -15 -63 -23
-68 -20 -99 4 -42 9 20 19 37 23 37 3 0 3 -33 -1 -72 -4 -40 -12 -127 -17
-193 -22 -298 -21 -286 -36 -281 -8 3 -17 6 -19 6 -11 0 11 270 32 400 l6 35
-39 -42 c-21 -24 -45 -43 -53 -43 -8 0 -33 16 -54 36 -34 31 -44 35 -75 30
-20 -3 -44 -6 -54 -6 -10 0 -15 -4 -12 -10 3 -5 24 -9 45 -8 49 2 73 -17 67
-51 -8 -42 21 -81 60 -81 38 0 44 15 9 24 -13 3 -26 15 -29 26 -4 16 -2 18 12
10 13 -6 29 -3 54 10 l37 20 0 -24 c0 -45 -13 -86 -26 -86 -15 0 -20 -45 -5
-54 5 -3 11 -16 13 -28 4 -20 0 -23 -31 -25 -20 -1 -56 -5 -80 -9 l-44 -6 29
36 c16 20 44 45 62 56 17 11 32 25 32 32 0 9 -3 9 -12 0 -7 -7 -18 -12 -26
-12 -8 0 -32 -20 -54 -45 -38 -44 -42 -45 -97 -45 -48 0 -61 4 -80 24 -13 14
-36 30 -52 36 -16 7 -29 16 -29 21 0 4 16 20 36 35 37 29 73 34 134 21 l35 -8
-25 20 c-17 14 -40 21 -71 21 -48 0 -58 9 -74 68 -4 12 -11 22 -16 22 -5 0 -9
7 -9 15 0 17 20 22 110 30 101 8 122 8 165 0 39 -7 40 -7 22 11 -15 16 -31 19
-88 17 l-69 -2 -20 39 -19 38 41 17 c61 24 146 -2 195 -59 13 -14 29 -26 35
-26 7 1 -16 28 -52 60 -59 55 -68 60 -110 60 -25 -1 -63 -7 -85 -15 -22 -8
-47 -15 -56 -15 -9 0 -22 -6 -28 -14 -10 -11 -8 -16 7 -20 10 -4 31 -20 47
-36 l29 -30 -49 0 c-43 0 -52 -4 -84 -39 -36 -39 -36 -40 -14 -46 14 -3 30
-21 42 -48 l19 -42 -23 -20 c-12 -11 -30 -34 -38 -51 l-16 -31 82 -42 c67 -36
88 -42 120 -38 25 3 48 0 66 -10 25 -15 30 -14 73 5 l46 20 6 -37 c12 -72 9
-77 -28 -73 -20 2 -50 -4 -76 -17 -52 -25 -73 -26 -130 -6 -23 8 -44 15 -46
15 -2 0 -4 -21 -4 -46 0 -37 -6 -53 -30 -81 -16 -18 -30 -38 -30 -44 0 -18 28
-64 54 -88 14 -14 26 -29 26 -34 0 -6 8 -19 17 -29 10 -12 13 -22 7 -28 -12
-12 -106 -16 -123 -6 -22 14 -61 -22 -61 -54 0 -62 24 -110 82 -166 51 -49 61
-54 100 -53 33 0 38 2 23 9 -11 5 -31 11 -45 14 -14 3 -34 12 -45 21 -15 11
-15 13 -3 9 10 -3 20 2 28 15 6 12 17 21 25 21 10 0 15 11 15 33 1 30 1 31 15
13 8 -11 15 -30 15 -42 0 -12 8 -32 18 -44 29 -36 66 -21 97 40 14 27 25 52
25 54 0 3 -12 11 -26 19 l-26 13 41 16 41 16 0 -33 c0 -19 9 -52 21 -75 l21
-40 -44 -49 c-23 -26 -59 -75 -78 -107 -34 -56 -35 -63 -39 -171 -3 -111 -4
-113 -26 -113 -13 0 -27 -4 -30 -10 -4 -6 -17 -4 -36 6 -40 20 -64 11 -97 -39
l-27 -41 -3 32 c-2 23 -8 32 -21 32 -15 0 -16 5 -7 44 10 42 11 43 36 34 86
-29 146 88 75 144 -14 11 -25 25 -25 32 0 7 -10 22 -22 34 -19 17 -33 20 -80
18 l-58 -4 0 57 c1 54 27 141 30 96 1 -22 98 -132 151 -170 40 -30 97 -34 105
-7 3 9 14 35 24 56 19 37 19 40 2 52 -19 14 -31 9 -15 -7 8 -8 3 -24 -14 -55
-37 -67 -59 -61 -154 36 -47 49 -80 92 -84 110 -6 26 -9 28 -26 20 -31 -17
-42 -51 -41 -126 l2 -72 -40 19 c-21 10 -48 19 -59 19 -17 0 -70 -50 -72 -68
0 -4 -4 -44 -7 -89 l-7 -83 27 0 c28 0 31 -5 43 -73 4 -28 14 -43 38 -57 38
-23 104 -26 131 -5 18 14 21 12 33 -23 7 -20 13 -37 13 -38 0 -1 -44 -4 -97
-7 -92 -5 -101 -4 -140 19 -24 14 -43 31 -43 39 0 19 -24 19 -39 1 -7 -8 -15
-31 -18 -50 -5 -31 -1 -43 27 -77 l33 -41 -26 -25 c-29 -30 -65 -26 -118 13
-37 27 -42 24 -59 -38 -10 -36 -13 -38 -52 -38 -40 0 -41 0 -35 -32 3 -18 8
-41 12 -50 6 -15 2 -18 -25 -18 -32 0 -32 -1 -25 -37 13 -75 84 -148 180 -189
19 -8 35 -20 35 -27 0 -20 -34 -97 -44 -97 -4 0 -25 9 -45 20 -20 11 -48 24
-63 30 -19 6 -28 17 -28 30 0 26 -18 61 -39 77 -17 13 -147 18 -175 7 -9 -4
-16 -18 -16 -34 0 -22 -13 -39 -66 -82 -98 -79 -144 -168 -87 -168 18 0 36
-12 60 -40 48 -56 91 -67 183 -46 40 9 76 16 80 16 5 0 0 -16 -9 -36 -13 -26
-34 -45 -77 -68 -50 -26 -63 -39 -83 -83 -24 -52 -26 -53 -68 -53 -38 0 -43 3
-49 27 -16 67 -71 139 -129 171 -44 24 -189 19 -280 -8 -94 -29 -132 -53 -283
-174 -144 -115 -217 -162 -317 -205 -69 -29 -69 -29 -93 -10 -29 23 -65 25
-82 4 -22 -26 -73 -29 -116 -6 -49 26 -72 26 -100 0 l-22 -20 -73 31 c-105 44
-206 110 -328 213 -175 147 -265 187 -426 190 -100 2 -118 -5 -177 -60 l-36
-36 -34 21 c-19 12 -43 30 -53 42 -10 11 -22 20 -26 20 -11 0 10 -60 34 -93
l19 -28 -43 3 c-40 3 -44 6 -50 35 -9 47 -49 110 -150 235 -144 178 -194 304
-222 548 l-13 115 -23 -43 c-27 -52 -56 -163 -66 -252 l-7 -64 -24 46 c-33 64
-63 179 -71 266 -3 40 -9 69 -13 65 -18 -21 -40 -138 -41 -219 l0 -89 -20 55
c-29 79 -86 305 -94 372 -9 72 7 126 41 134 35 9 65 -1 130 -45 32 -22 60 -38
62 -36 9 9 -63 126 -100 164 -132 132 -259 33 -246 -191 3 -43 3 -78 1 -78 -9
0 -66 141 -86 214 -20 74 -22 104 -22 329 0 136 -1 247 -2 247 -2 0 -16 -26
-32 -57 -32 -65 -75 -194 -86 -263 l-8 -45 -13 38 c-58 167 -79 454 -40 567
39 116 91 148 154 95 41 -34 67 -94 107 -245 40 -152 67 -213 105 -240 30 -21
75 -26 100 -10 13 9 13 10 -1 10 -19 0 -51 34 -73 78 -10 18 -33 108 -52 200
-51 247 -86 327 -165 368 -35 18 -120 18 -163 0 -37 -15 -89 -66 -113 -111
l-17 -30 -8 35 c-16 69 -12 359 7 440 30 131 87 220 148 235 23 6 33 2 60 -27
32 -34 48 -75 98 -248 23 -80 69 -140 108 -140 26 0 27 12 1 35 -33 30 -52
110 -75 320 -10 89 -31 133 -74 154 -50 25 -104 32 -164 20 -27 -5 -52 -8 -54
-6 -10 10 43 131 73 166 52 61 137 74 190 30 8 -7 17 -9 20 -7 3 3 -14 22 -37
42 -104 89 -198 65 -312 -79 l-40 -50 7 50 c4 28 18 94 31 147 68 275 180 343
365 219 33 -22 60 -36 60 -31 0 20 -103 118 -150 144 -41 22 -66 29 -114 29
-96 1 -161 -44 -210 -146 -23 -48 -25 -49 -20 -17 16 102 49 205 91 290 41 83
60 108 155 203 60 59 104 107 99 107 -29 0 -121 -25 -156 -42 -64 -32 -137
-94 -175 -147 -19 -28 -38 -50 -42 -51 -12 0 -7 179 6 235 11 48 13 50 44 47
22 -2 34 2 38 12 3 9 10 14 14 11 12 -7 40 5 40 17 0 6 8 17 18 24 14 11 15
16 5 33 -10 15 -9 22 3 32 8 6 14 19 12 28 -1 9 1 22 6 29 4 7 3 19 -4 27 -8
10 -8 15 0 20 6 4 10 17 9 28 -1 12 3 35 9 50 15 36 15 37 -3 37 -8 0 -15 5
-15 10 0 6 5 10 10 10 16 0 11 28 -7 39 -13 7 -14 12 -6 23 14 16 13 90 -1
100 -6 4 -5 12 3 22 11 13 11 19 1 31 -9 10 -9 15 -1 15 14 0 14 37 0 42 -8 3
-8 10 2 26 12 19 12 24 0 31 -9 6 -10 11 -2 15 13 8 15 46 2 46 -4 0 -6 11 -3
25 3 18 -2 31 -19 45 -32 26 -43 25 -76 -9z m57 -36 c0 -8 -6 -15 -14 -15 -17
0 -28 14 -19 24 12 12 33 6 33 -9z m13 -50 c1 -5 -6 -11 -15 -13 -11 -2 -18 3
-18 13 0 17 30 18 33 0z m-48 -25 c0 -7 -6 -15 -12 -17 -8 -3 -13 4 -13 17 0
13 5 20 13 18 6 -3 12 -11 12 -18z m59 -41 c-8 -14 -34 -11 -34 4 0 8 3 17 7
20 9 9 34 -13 27 -24z m-104 -13 c0 -8 -4 -17 -8 -20 -13 -8 -35 11 -28 23 10
16 36 14 36 -3z m50 -1 c0 -8 -7 -15 -15 -15 -16 0 -20 12 -8 23 11 12 23 8
23 -8z m5380 -25 c0 -12 9 -39 20 -60 11 -22 16 -40 10 -40 -5 0 -10 -13 -10
-29 0 -23 -5 -30 -22 -33 -15 -2 -24 -11 -26 -25 -2 -15 -13 -25 -29 -29 -34
-9 -109 29 -117 59 -11 40 -7 95 8 100 7 3 16 19 19 35 7 34 19 39 95 41 46 1
52 -1 52 -19z m-5400 -20 c0 -11 -7 -20 -15 -20 -15 0 -21 21 -8 33 12 13 23
7 23 -13z m63 5 c1 -5 -6 -11 -15 -13 -11 -2 -18 3 -18 13 0 17 30 18 33 0z
m-113 -35 c0 -5 -7 -10 -15 -10 -8 0 -15 5 -15 10 0 6 7 10 15 10 8 0 15 -4
15 -10z m109 -27 c-15 -18 -34 -1 -25 22 5 14 9 15 21 5 12 -10 13 -16 4 -27z
m-56 11 c3 -4 2 -15 -3 -25 -7 -12 -7 -20 0 -24 13 -8 3 -25 -14 -25 -9 0 -13
14 -13 40 0 37 13 51 30 34z m-43 -50 c0 -8 -7 -14 -15 -14 -15 0 -21 21 -9
33 10 9 24 -2 24 -19z m104 -15 c-10 -16 -24 -9 -24 12 0 18 2 19 15 9 8 -7
12 -16 9 -21z m5436 -36 c0 -12 -11 -34 -25 -49 -33 -35 -30 -70 4 -66 23 4
22 2 -10 -27 -29 -27 -32 -34 -21 -49 23 -33 34 -67 33 -110 0 -35 4 -45 27
-59 15 -9 29 -18 31 -20 3 -2 -5 -10 -17 -19 -19 -13 -22 -25 -22 -80 l0 -65
39 33 c38 32 39 34 34 83 -4 30 -16 63 -30 81 -32 43 -29 49 12 18 29 -22 35
-33 35 -65 0 -35 3 -39 25 -39 22 0 24 -3 15 -19 -17 -33 -12 -39 43 -43 28
-2 60 -8 70 -12 14 -7 16 -5 11 10 -5 18 -5 18 10 0 20 -25 20 -40 1 -56 -18
-15 -35 -5 -35 21 0 17 -7 19 -69 19 -61 0 -70 -3 -76 -20 -3 -11 -15 -25 -27
-31 -16 -9 -19 -19 -16 -49 3 -33 0 -39 -19 -43 -26 -5 -60 36 -70 83 -4 23 0
36 16 54 27 29 19 53 -37 116 -39 44 -41 44 -56 25 -14 -19 -15 -19 -22 -2 -6
16 -8 17 -24 2 -16 -15 -17 -14 -12 11 4 22 2 26 -12 21 -22 -9 -20 10 3 25
16 9 17 16 8 35 -12 26 -5 38 18 30 9 -4 15 -19 15 -41 0 -29 4 -37 24 -42 14
-3 32 -14 42 -25 23 -25 34 -24 34 4 0 13 4 27 10 33 6 6 5 28 -4 61 -17 64
-22 72 -52 84 -14 5 -33 22 -42 39 -10 18 -29 34 -46 38 -43 12 -45 32 -3 32
56 0 97 11 97 27 0 8 5 11 10 8 6 -3 14 5 19 19 6 13 18 34 28 45 19 23 33 13
33 -26z m-5555 -3 c0 -22 -29 -18 -33 3 -3 14 1 18 15 15 10 -2 18 -10 18 -18z
m95 -15 c0 -8 -4 -15 -9 -15 -13 0 -22 16 -14 24 11 11 23 6 23 -9z m-54 -31
c-5 -13 -10 -14 -18 -6 -6 6 -8 18 -4 28 5 13 10 14 18 6 6 -6 8 -18 4 -28z
m82 -21 c-4 -22 -22 -20 -26 1 -2 10 3 16 13 16 10 0 15 -7 13 -17z m-130 -11
c2 -7 -6 -12 -17 -12 -21 0 -27 11 -14 24 9 9 26 2 31 -12z m50 -10 c2 -7 -3
-12 -12 -12 -9 0 -16 7 -16 16 0 17 22 14 28 -4z m-61 -32 c24 0 31 -14 12
-26 -6 -3 -16 -1 -22 5 -6 6 -21 11 -34 11 -13 0 -23 4 -23 9 0 13 23 20 35
10 5 -5 19 -9 32 -9z m113 5 c0 -8 -4 -15 -9 -15 -13 0 -22 16 -14 24 11 11
23 6 23 -9z m-50 -40 c0 -8 -4 -15 -10 -15 -5 0 -10 7 -10 15 0 8 5 15 10 15
6 0 10 -7 10 -15z m88 -3 c2 -7 -6 -12 -17 -12 -21 0 -27 11 -14 24 9 9 26 2
31 -12z m-210 -4 c-7 -19 -38 -22 -38 -4 0 10 9 16 21 16 12 0 19 -5 17 -12z
m57 -9 c0 -7 -8 -15 -17 -17 -18 -3 -25 18 -11 32 10 10 28 1 28 -15z m105
-20 c0 -5 -7 -9 -15 -9 -8 0 -15 7 -15 15 0 9 6 12 15 9 8 -4 15 -10 15 -15z
m5671 -11 c-9 -25 -9 -25 62 -32 78 -7 89 -12 66 -29 -8 -7 -20 -21 -26 -32
-11 -19 -12 -18 -18 8 -6 22 -11 26 -31 21 -13 -4 -30 -2 -37 4 -23 18 -66 22
-113 12 -34 -8 -50 -7 -60 1 -25 20 -4 32 47 25 44 -6 51 -4 81 23 38 34 42
34 29 -1z m-5736 -18 c-5 -8 -11 -8 -21 1 -12 10 -12 14 -2 20 16 10 33 -5 23
-21z m-85 4 c0 -17 -22 -14 -28 4 -2 7 3 12 12 12 9 0 16 -7 16 -16z m194 7
c3 -5 -1 -11 -9 -15 -9 -3 -15 0 -15 9 0 16 16 20 24 6z m-152 -26 c0 -5 -5
-11 -11 -13 -6 -2 -11 4 -11 13 0 9 5 15 11 13 6 -2 11 -8 11 -13z m103 -5 c0
-7 -6 -15 -12 -17 -8 -3 -13 4 -13 17 0 13 5 20 13 18 6 -3 12 -11 12 -18z
m5259 4 c11 -28 6 -71 -9 -84 -18 -15 -20 -37 -3 -42 6 -2 8 -10 4 -16 -9 -14
-86 -16 -86 -2 0 6 -5 10 -10 10 -17 0 -80 68 -80 85 0 9 5 25 11 36 9 18 17
19 63 14 35 -5 56 -3 60 4 11 16 43 13 50 -5z m-5454 -2 c0 -13 -12 -22 -22
-16 -10 6 -1 24 13 24 5 0 9 -4 9 -8z m57 -28 c3 -9 0 -20 -8 -25 -11 -7 -11
-9 -1 -9 8 0 12 -8 10 -17 -6 -33 -32 -20 -34 17 -1 19 0 38 3 43 7 12 23 8
30 -9z m93 -5 c0 -5 -4 -9 -10 -9 -5 0 -10 7 -10 16 0 8 5 12 10 9 6 -3 10
-10 10 -16z m93 6 c1 -5 -6 -11 -15 -13 -11 -2 -18 3 -18 13 0 17 30 18 33 0z
m5643 -7 c55 -13 64 -26 64 -93 0 -12 7 -28 15 -35 10 -8 12 -17 5 -30 -15
-28 -106 -15 -136 19 -13 14 -24 31 -24 37 0 6 -16 29 -35 51 l-35 41 38 10
c51 14 50 14 108 0z m-5686 -23 c0 -8 -7 -15 -15 -15 -8 0 -15 7 -15 15 0 8 7
15 15 15 8 0 15 -7 15 -15z m-190 -5 c0 -5 -9 -10 -21 -10 -11 0 -17 5 -14 10
3 6 13 10 21 10 8 0 14 -4 14 -10z m110 0 c0 -5 -9 -10 -20 -10 -11 0 -20 5
-20 10 0 6 9 10 20 10 11 0 20 -4 20 -10z m40 -30 c0 -11 -4 -20 -10 -20 -5 0
-10 9 -10 20 0 11 5 20 10 20 6 0 10 -9 10 -20z m-195 -10 c0 -7 -6 -15 -12
-17 -8 -3 -13 4 -13 17 0 13 5 20 13 18 6 -3 12 -11 12 -18z m245 -5 c0 -8 -7
-15 -15 -15 -16 0 -20 12 -8 23 11 12 23 8 23 -8z m-194 -31 c-5 -13 -10 -14
-18 -6 -6 6 -8 18 -4 28 5 13 10 14 18 6 6 -6 8 -18 4 -28z m64 16 c0 -5 -4
-10 -10 -10 -5 0 -10 5 -10 10 0 6 5 10 10 10 6 0 10 -4 10 -10z m60 -15 c0
-8 -6 -15 -14 -15 -17 0 -28 14 -19 24 12 12 33 6 33 -9z m58 -17 c-6 -18 -28
-21 -28 -4 0 9 7 16 16 16 9 0 14 -5 12 -12z m-215 -13 c10 -4 20 -5 23 -3 2
3 19 -9 38 -26 33 -31 33 -32 20 -70 -9 -24 -14 -83 -14 -157 0 -111 -1 -119
-19 -119 -29 0 -36 67 -21 192 18 148 19 142 -10 146 -14 2 -29 10 -33 18 -4
8 -15 14 -22 14 -8 0 -15 4 -15 10 0 10 23 8 53 -5z m115 -2 c2 -8 -5 -13 -17
-13 -12 0 -21 6 -21 16 0 18 31 15 38 -3z m42 -13 c0 -21 -15 -27 -25 -10 -7
12 2 30 16 30 5 0 9 -9 9 -20z m5884 -34 c25 -54 22 -67 -14 -54 -39 13 -42
19 -29 57 14 40 23 39 43 -3z m-308 9 c6 -16 -12 -45 -27 -45 -5 0 -9 14 -9
30 0 32 26 43 36 15z m-5849 -138 c32 -30 85 -120 98 -167 3 -14 -15 12 -41
58 -53 92 -68 103 -30 21 36 -75 56 -147 55 -194 -1 -37 -2 -36 -14 20 -26
120 -70 214 -139 293 l-41 46 40 -23 c22 -13 54 -38 72 -54z m445 -24 c-84
-83 -149 -182 -188 -286 -21 -58 -23 -60 -23 -27 -1 35 34 116 85 200 41 67 0
29 -48 -44 -29 -45 -39 -55 -44 -42 -15 38 90 172 174 224 43 26 94 49 115 51
4 1 -28 -34 -71 -76z m5004 -45 c28 -14 44 -28 44 -40 0 -10 7 -18 15 -18 8 0
15 4 15 10 0 5 9 14 20 20 48 26 120 -55 120 -135 0 -24 5 -47 10 -50 6 -3 10
-21 10 -38 l0 -32 -20 25 c-11 14 -20 39 -20 55 0 17 -5 37 -10 45 -7 11 -10
4 -10 -27 0 -23 -4 -44 -10 -48 -17 -10 -45 48 -45 94 0 56 -25 71 -26 14 0
-21 -4 -47 -8 -58 -8 -18 -11 -16 -31 18 -15 25 -26 35 -32 29 -7 -7 -23 -5
-45 5 -47 19 -55 8 -9 -13 42 -21 45 -31 11 -40 -35 -9 -19 -27 17 -20 16 3
39 1 50 -5 20 -11 19 -11 -8 -40 -32 -34 -19 -39 20 -8 24 19 31 20 54 9 l27
-12 -35 -29 c-19 -16 -38 -29 -42 -29 -4 0 -8 -10 -8 -22 0 -22 0 -22 28 3 15
13 42 33 60 43 29 16 38 16 58 5 33 -17 30 -29 -6 -29 -24 0 -32 -6 -43 -32
-8 -18 -26 -39 -40 -47 -14 -8 -32 -29 -40 -48 -13 -34 -14 -34 -36 -16 -12
10 -32 47 -45 83 -23 62 -25 65 -60 68 -33 3 -36 6 -36 35 0 18 7 45 15 61 21
40 19 49 -15 75 -35 25 -90 97 -90 117 0 17 19 10 81 -28 25 -15 49 -28 53
-28 3 0 6 23 6 50 0 28 3 50 6 50 4 0 26 -10 50 -22z m524 -60 c11 -12 28 -39
38 -60 12 -26 27 -41 50 -49 17 -6 32 -16 32 -23 0 -7 7 -27 16 -45 34 -67 -5
-135 -71 -124 -31 5 -35 3 -49 -30 -28 -69 -74 -68 -150 1 -35 31 -42 43 -46
86 -5 46 -7 50 -40 61 -33 11 -35 14 -38 63 -3 45 1 55 23 78 23 23 32 26 71
20 24 -3 44 -2 44 3 0 20 33 41 65 41 22 0 41 -8 55 -22z m-6038 -161 c52 -33
118 -105 118 -130 0 -5 -16 5 -35 22 -20 17 -38 31 -40 31 -2 0 14 -29 36 -65
22 -37 39 -77 38 -92 0 -16 -3 -21 -6 -13 -23 63 -51 107 -110 172 -37 41 -79
95 -92 119 l-24 44 29 -26 c16 -15 55 -43 86 -62z m255 51 c5 -7 10 -86 11
-175 l0 -161 -30 -13 c-43 -18 -61 -2 -72 61 -8 44 -6 58 9 86 16 31 17 40 5
102 -15 83 -5 112 39 112 16 0 33 -6 38 -12z m5560 -168 c-4 -31 -17 -64 -39
-95 -33 -46 -33 -48 -38 -182 -4 -104 -8 -137 -19 -141 -11 -4 -12 1 -5 24 10
34 10 143 0 199 -6 33 -2 53 22 110 16 39 33 89 37 112 6 39 8 42 27 32 18
-10 20 -18 15 -59z m-5190 15 c28 -14 58 -34 68 -45 17 -19 17 -19 -20 0 -92
47 -177 28 -235 -52 -52 -70 -70 -120 -124 -343 -9 -40 -14 -50 -15 -32 -2 61
73 340 100 374 7 7 10 16 7 19 -13 12 -78 -126 -78 -166 0 -31 -20 -23 -21 8
-2 46 2 63 27 116 64 135 172 180 291 121z m5306 -223 l-6 -72 44 -1 c61 -1
22 -17 -43 -18 -34 -1 -48 -5 -48 -15 0 -27 -39 -101 -60 -114 -34 -21 -35 -7
-2 35 51 64 65 112 59 206 -3 45 -8 92 -12 105 -6 19 -1 17 33 -15 l41 -38 -6
-73z m-73 -16 c0 -65 -24 -127 -63 -164 l-22 -21 4 132 c3 123 5 134 29 168
l27 37 12 -47 c7 -25 12 -73 13 -105z m-5930 59 c68 -45 161 -148 175 -195 5
-15 -10 -2 -37 35 -76 103 -80 92 -13 -38 45 -88 67 -143 75 -188 15 -94 13
-93 -29 11 -57 144 -88 198 -146 257 -45 44 -60 53 -89 53 -57 0 -81 -42 -110
-189 -13 -67 -25 -124 -28 -126 -8 -8 2 195 13 265 22 138 91 179 189 115z
m5443 -32 c52 -26 133 -90 155 -120 19 -27 19 -29 2 -50 -24 -30 -40 -12 -40
44 0 48 -11 55 -28 18 -7 -16 -17 -23 -27 -19 -30 12 -14 -17 20 -37 35 -21
49 -44 20 -33 -9 4 -15 0 -15 -9 0 -16 20 -27 48 -27 10 0 23 -9 29 -19 10
-16 9 -22 -3 -32 -12 -10 -21 -5 -52 31 -56 66 -63 77 -87 147 -13 35 -32 75
-44 87 -36 38 -28 45 22 19z m-5105 -18 c6 -5 5 -94 -3 -161 -6 -56 -4 -82 9
-120 15 -46 15 -50 -1 -61 -26 -20 -71 -16 -83 7 -6 11 -10 53 -8 92 1 40 -4
107 -12 149 -18 101 -14 110 47 102 26 -3 49 -7 51 -8z m6012 -26 l21 -40 -29
21 c-21 16 -40 21 -73 18 l-44 -3 40 -14 c45 -15 84 -48 126 -105 28 -37 37
-66 22 -66 -5 1 -20 19 -35 40 -15 22 -32 40 -38 40 -15 0 13 -50 45 -80 59
-55 71 -120 30 -167 l-24 -28 -1 32 c0 41 -32 110 -67 148 -56 59 -184 160
-211 166 l-27 7 26 1 c14 0 36 13 50 27 32 35 54 43 116 43 52 1 53 0 73 -40z
m-5676 -102 c16 -12 14 -14 -22 -25 -74 -22 -171 -164 -220 -322 l-17 -55 -3
56 c-3 61 15 113 66 189 17 24 28 47 26 50 -6 6 -46 -39 -75 -85 -10 -16 -19
-25 -19 -19 0 6 25 46 56 88 40 55 71 85 107 106 58 33 75 36 101 17z m5010
-95 c-45 -4 -80 24 -69 57 6 20 8 19 56 -17 l50 -37 -37 -3z m142 -57 c10 -8
40 -15 65 -15 58 0 67 -11 85 -96 14 -65 14 -67 -9 -98 -14 -17 -51 -44 -85
-60 -60 -29 -61 -29 -136 -15 -104 18 -121 36 -111 118 4 34 11 61 16 61 5 0
9 19 9 43 0 39 3 43 38 59 47 21 103 22 128 3z m-5496 -98 l37 5 5 -89 c3 -49
11 -99 17 -112 17 -30 32 -129 25 -158 -5 -20 -12 -23 -49 -23 -24 0 -47 -4
-50 -10 -3 -5 -14 -10 -24 -10 -16 0 -19 15 -25 157 -3 87 -12 172 -18 190
-14 38 3 69 30 54 8 -5 32 -6 52 -4z m395 -43 c34 -22 51 -57 60 -119 3 -28
13 -92 21 -144 9 -51 13 -95 10 -98 -2 -2 -16 35 -31 84 -49 162 -79 213 -140
233 -59 19 -120 -28 -173 -133 -23 -45 -31 -54 -35 -38 -5 21 21 86 54 132 28
39 88 69 141 69 31 0 39 3 28 10 -19 12 -71 13 -103 1 -34 -13 -84 -66 -112
-120 -16 -31 -24 -40 -25 -25 0 23 46 100 78 127 53 48 170 58 227 21z m-508
-26 c-3 -8 -6 -5 -6 6 -1 11 2 17 5 13 3 -3 4 -12 1 -19z m5877 12 c38 -14 32
-24 -26 -43 -28 -9 -46 -11 -40 -5 8 8 6 17 -5 34 -15 23 -15 24 15 24 17 0
42 -4 56 -10z m-453 -152 c-4 -4 -22 -11 -40 -14 -36 -8 -36 -7 -9 65 l8 23
24 -33 c13 -19 20 -37 17 -41z m315 19 c-33 -43 -32 -48 6 -72 47 -30 47 -45
1 -38 -21 3 -46 10 -57 15 -17 9 -18 6 -14 -36 l3 -46 -33 40 c-19 22 -38 40
-43 40 -4 0 -15 -12 -23 -27 l-15 -28 -1 42 c0 23 -3 49 -7 58 -5 15 -1 16 23
11 22 -4 45 3 99 34 39 22 74 40 78 40 4 0 -3 -15 -17 -33z m-5885 -75 c44
-29 110 -101 144 -157 17 -29 17 -30 -1 -9 -11 11 -30 35 -44 52 -29 36 -102
92 -121 92 -8 0 -4 -6 7 -14 34 -24 129 -147 163 -209 29 -56 59 -173 47 -185
-3 -3 -6 0 -6 7 0 26 -101 217 -149 282 -77 104 -143 124 -210 64 -39 -35 -98
-137 -121 -208 -19 -62 -22 -36 -4 44 17 76 60 178 91 214 55 64 130 73 204
27z m5804 -275 c0 -131 0 -136 12 -90 8 26 14 85 14 131 0 47 5 80 10 76 5 -3
9 -22 9 -42 0 -20 5 -54 11 -74 l10 -38 57 0 57 0 60 64 c64 69 118 94 175 81
37 -8 46 -20 55 -74 6 -35 4 -42 -6 -38 -45 18 -90 29 -96 23 -9 -9 22 -32 86
-63 76 -38 93 -69 88 -161 -2 -40 -7 -75 -10 -79 -14 -13 -37 21 -37 56 0 21
-6 44 -12 53 -17 21 -109 91 -114 86 -2 -3 14 -22 36 -43 28 -28 40 -48 40
-68 0 -38 21 -74 69 -122 31 -29 41 -47 40 -70 0 -27 -1 -28 -9 -8 -12 29 -40
43 -90 43 -58 0 -93 22 -121 74 -13 25 -27 46 -30 46 -4 0 -5 19 -2 43 5 51
-18 93 -68 121 l-34 19 21 -24 c62 -71 66 -115 16 -169 -22 -23 -33 -28 -55
-23 -35 7 -47 35 -47 108 0 47 -3 57 -25 71 -47 30 -55 19 -112 -146 -30 -85
-56 -163 -59 -172 -4 -10 -10 -15 -15 -12 -5 3 3 28 17 55 14 28 23 56 21 62
-2 6 -13 -10 -26 -36 -22 -46 -23 -46 -47 -31 -28 19 -27 15 -14 85 6 30 15
126 19 214 8 140 13 169 37 230 l28 69 20 -44 c18 -39 21 -65 21 -183z m-5475
-57 c3 -104 10 -173 18 -187 6 -12 12 -40 12 -62 0 -39 -1 -40 -28 -35 -19 4
-32 1 -41 -10 -18 -21 -41 -20 -42 2 -1 9 -1 49 1 89 1 50 -6 102 -25 177 -14
59 -25 123 -23 144 3 32 7 38 33 43 17 4 44 6 60 6 l30 -2 5 -165z m377 -122
c61 -41 99 -150 134 -382 5 -38 18 -94 28 -124 15 -43 16 -51 4 -39 -9 8 -35
83 -58 165 -24 83 -56 176 -71 207 -48 97 -122 133 -186 91 -35 -23 -85 -124
-99 -201 -17 -87 -21 -95 -30 -55 -11 44 -4 79 32 158 36 80 64 119 103 144
27 17 28 19 6 13 -38 -11 -96 -74 -129 -140 -27 -56 -29 -58 -36 -34 -13 50
77 183 140 209 42 18 127 11 162 -12z m4856 -179 c48 -26 49 -59 2 -106 -19
-19 -35 -43 -35 -53 0 -16 5 -15 50 9 30 15 55 37 63 54 15 33 48 36 78 6 17
-17 20 -29 16 -62 -3 -22 -13 -47 -21 -56 -15 -14 -17 -13 -32 7 -17 25 -60
30 -86 10 -9 -7 -18 -26 -20 -43 -2 -19 -9 -30 -18 -30 -17 0 -63 88 -49 93 6
3 5 10 -2 18 -18 22 -20 132 -2 149 17 18 28 19 56 4z m-5472 -46 c75 -40 153
-103 170 -136 9 -18 5 -16 -22 8 -19 17 -36 32 -39 36 -24 25 -128 76 -202 99
-45 14 -33 4 45 -35 89 -46 148 -89 208 -152 46 -47 47 -49 51 -126 3 -42 4
-76 3 -75 -2 2 -31 46 -66 98 -85 128 -200 244 -258 261 -61 18 -103 -6 -146
-84 -33 -59 -78 -225 -92 -332 l-7 -60 -8 50 c-14 85 10 274 44 354 28 66 54
97 100 120 60 31 130 22 219 -26z m5347 9 c17 -11 22 -24 22 -58 0 -31 5 -47
18 -55 24 -15 23 -110 -2 -138 -22 -24 -86 -50 -66 -27 8 11 8 20 1 35 -10 17
-7 22 18 35 33 17 33 49 0 67 -20 10 -59 -3 -59 -21 0 -6 -8 -10 -19 -10 -25
0 -45 50 -37 95 7 36 26 49 26 18 0 -10 14 -26 30 -35 21 -12 30 -13 30 -5 -1
18 -25 47 -40 47 -7 0 -10 7 -6 16 3 9 6 26 6 38 0 20 4 22 28 18 15 -3 37
-12 50 -20z m-5069 -14 c6 -18 15 -63 21 -99 5 -37 21 -105 34 -150 39 -138
41 -149 18 -149 -11 0 -33 -3 -50 -6 -42 -9 -50 11 -67 167 -10 86 -22 143
-35 169 -29 58 -27 80 9 80 17 0 33 5 36 10 11 18 23 10 34 -22z m5502 -115
c-5 -10 -22 -30 -38 -46 -24 -22 -35 -26 -61 -21 -53 11 -30 63 29 65 19 0 43
4 54 9 11 5 21 9 23 9 1 1 -2 -7 -7 -16z m-154 -88 c34 0 38 -3 41 -27 2 -20
-1 -28 -12 -28 -9 0 -16 -5 -16 -10 0 -19 -49 -31 -70 -18 -15 10 -22 10 -32
0 -19 -19 -30 -14 -18 7 5 11 10 31 10 45 0 30 39 63 52 43 4 -6 24 -12 45
-12z m200 -123 c59 -52 63 -59 57 -87 -10 -43 -8 -66 6 -101 12 -28 11 -34
-10 -62 -20 -27 -30 -32 -64 -32 -27 0 -47 -7 -63 -22 -21 -20 -27 -21 -56
-10 -19 7 -46 12 -62 12 -32 0 -65 25 -65 50 0 9 -5 21 -10 26 -6 6 -13 34
-17 62 -4 35 -13 58 -29 73 -16 15 -24 34 -24 54 0 44 32 57 121 49 58 -5 69
-3 69 9 0 9 7 23 16 32 25 25 58 11 131 -53z m-670 6 c23 -21 24 -22 53 -4 17
9 30 13 30 9 0 -15 -59 -44 -82 -41 -31 4 -36 -28 -9 -53 18 -17 29 -49 17
-49 -15 0 -56 82 -56 111 0 54 11 61 47 27z m176 -10 c-2 -5 -19 -8 -38 -8
-19 0 -36 3 -38 8 -3 4 14 7 38 7 24 0 41 -3 38 -7z m-4767 -191 c0 -108 6
-195 18 -261 9 -54 16 -100 13 -102 -2 -2 -21 31 -42 73 -37 76 -37 79 -31
159 3 44 8 96 11 115 4 28 2 26 -9 -11 -8 -25 -18 -67 -22 -95 -7 -45 -9 -47
-12 -17 -3 31 17 135 38 192 5 14 14 44 20 68 6 23 12 42 13 42 1 0 2 -73 3
-163z m-185 63 c5 0 9 -8 9 -17 0 -34 52 -187 86 -250 19 -36 34 -71 34 -78 0
-20 -32 -35 -73 -35 -38 0 -44 10 -87 145 -12 39 -31 85 -42 104 -10 19 -22
56 -25 82 l-6 48 34 4 c19 2 40 2 47 0 8 -1 18 -3 23 -3z m5094 -162 c-15 -61
-68 -168 -106 -217 l-19 -24 0 25 c0 86 42 196 102 268 40 47 45 35 23 -52z
m74 21 c4 -29 13 -36 69 -50 23 -6 45 -15 48 -20 9 -16 73 -9 111 11 48 26
140 26 210 2 l52 -18 -26 -26 c-19 -19 -27 -40 -31 -77 -7 -78 1 -97 50 -113
37 -11 44 -18 52 -49 7 -30 5 -43 -18 -81 -17 -29 -27 -62 -28 -95 l-3 -51
-40 20 c-84 42 -100 74 -70 145 28 67 15 90 -74 124 l-51 19 6 -27 c4 -16 16
-48 26 -72 15 -33 19 -59 16 -99 -5 -56 -17 -72 -54 -72 -19 0 -22 8 -28 60
-10 83 -56 124 -64 56 -5 -36 -55 -62 -94 -47 -20 8 -29 19 -34 47 -10 56 10
82 93 123 81 41 113 66 113 92 0 14 -7 16 -42 12 -24 -3 -52 -10 -63 -15 -19
-10 -19 -9 1 12 12 12 54 36 95 53 49 21 75 39 77 51 3 16 0 18 -25 12 -15 -4
-59 -23 -97 -42 -76 -37 -120 -42 -154 -18 -25 17 -37 13 -45 -16 -4 -16 4
-27 34 -47 45 -30 47 -38 16 -75 l-22 -28 3 42 c4 40 4 41 -24 34 -40 -10 -64
-34 -64 -64 0 -25 -50 -80 -122 -134 -41 -31 -55 -74 -27 -88 43 -24 94 3 129
68 l19 37 -3 -70 c-3 -70 -3 -70 -39 -87 -61 -30 -60 -92 1 -100 l27 -4 -30
-13 c-28 -11 -32 -10 -52 14 -17 19 -23 39 -23 74 0 55 -7 61 -74 61 -44 0
-70 18 -95 67 -28 55 3 103 69 103 43 0 53 -18 26 -49 -7 -9 -17 -27 -21 -39
-6 -22 -5 -23 17 -17 12 4 28 12 35 17 14 11 63 136 63 159 0 9 7 22 15 29 8
7 15 17 15 22 0 5 18 31 40 59 22 28 44 69 50 92 21 85 34 117 44 114 6 -2 13
-14 15 -28z m-5479 -38 c113 -43 307 -177 286 -198 -4 -4 -10 -3 -14 3 -20 28
-172 128 -221 145 -23 7 -24 7 -7 -4 106 -69 139 -93 192 -141 34 -31 72 -73
84 -93 21 -35 18 -34 -41 22 -161 153 -275 218 -380 217 -87 -1 -103 -28 -129
-227 -12 -88 -27 -180 -35 -205 -13 -43 -14 -38 -14 105 -1 251 21 343 87 380
38 20 133 19 192 -4z m4879 -23 c7 -8 42 -13 93 -13 79 0 80 0 109 -35 16 -19
29 -42 29 -51 0 -25 -28 -49 -56 -49 -16 0 -38 -13 -58 -35 -30 -31 -39 -35
-85 -35 -41 0 -57 5 -75 24 -13 12 -31 26 -40 29 -12 5 -16 21 -16 72 0 84 11
105 53 105 18 0 39 -6 46 -12z m-4894 -82 c68 -31 186 -128 268 -220 l68 -75
-58 25 c-139 62 -345 124 -409 124 -26 0 -26 1 -22 57 4 48 10 61 37 85 38 34
52 35 116 4z m845 3 c35 -21 83 -69 101 -102 8 -15 3 -14 -28 6 -21 14 -55 30
-76 37 -105 33 -131 -87 -76 -349 10 -52 17 -96 15 -98 -2 -2 -13 13 -25 33
-30 50 -56 291 -41 372 5 30 15 61 21 68 9 11 8 14 0 14 -7 0 -18 -15 -26 -32
-8 -18 -14 -27 -15 -20 0 22 32 70 54 81 33 15 58 13 96 -10z m-153 -181 c0
-51 3 -115 7 -143 6 -47 6 -49 -8 -25 -10 17 -15 53 -16 111 0 73 7 149 14
149 1 0 2 -42 3 -92z m-198 31 c7 -12 24 -52 38 -88 35 -95 68 -146 108 -170
38 -22 46 -41 17 -41 -10 0 -27 -7 -38 -15 -32 -24 -70 -19 -94 14 -42 60
-130 241 -130 269 0 21 7 31 28 39 42 17 56 15 71 -8z m-779 -32 c0 -8 -14
-11 -47 -8 -37 3 -43 6 -28 12 32 12 75 10 75 -4z m260 -16 c117 -30 365 -115
388 -134 23 -19 4 -18 -35 1 -73 36 -309 110 -319 99 -2 -2 42 -21 99 -41 218
-81 307 -128 340 -180 15 -24 27 -46 27 -50 0 -3 -17 5 -38 18 -134 84 -433
206 -566 232 -32 6 -37 10 -32 28 3 11 6 29 6 39 0 22 -6 22 130 -12z m5520
20 c0 -5 -9 -19 -20 -32 l-21 -24 16 33 c15 31 25 41 25 23z m-694 -148 c49
-20 54 -28 24 -38 -11 -3 -25 -15 -31 -27 -10 -19 -12 -19 -30 -2 -22 20 -34
73 -23 106 8 23 8 23 12 1 2 -15 17 -27 48 -40z m322 -47 c16 -8 32 -24 35
-35 3 -13 21 -24 53 -33 49 -14 49 -14 52 -60 2 -38 -1 -51 -17 -65 -12 -10
-21 -28 -21 -41 0 -16 -7 -26 -20 -29 -11 -3 -23 -16 -26 -29 -3 -13 -20 -35
-36 -49 -24 -20 -40 -25 -84 -25 -30 0 -68 7 -84 15 -37 19 -80 82 -80 117 0
15 -6 31 -13 35 -45 27 -61 108 -32 163 13 24 22 30 49 30 19 0 39 7 47 16 11
13 26 15 81 11 36 -3 80 -13 96 -21z m552 6 c0 -32 29 -62 61 -62 16 0 29 -4
29 -10 0 -5 -20 -10 -45 -10 l-45 0 0 -55 c0 -49 -3 -58 -38 -95 -37 -39 -82
-54 -82 -27 0 6 11 34 25 61 l24 50 -31 23 c-36 26 -70 30 -88 8 -17 -20 -4
-35 31 -35 16 0 29 -4 29 -9 0 -19 -20 -21 -62 -6 -24 8 -51 15 -60 15 -23 0
-23 2 6 45 14 20 26 41 28 47 3 8 24 8 81 -1 94 -15 117 -7 117 44 0 19 5 35
10 35 6 0 10 -8 10 -18z m-1002 -127 c30 -6 33 -10 27 -32 -5 -20 1 -32 30
-58 23 -22 35 -43 35 -60 0 -31 42 -75 90 -95 17 -7 30 -20 30 -30 0 -10 5
-20 12 -22 6 -2 -10 -26 -35 -54 -26 -27 -49 -57 -53 -67 -6 -18 31 -87 47
-87 5 0 9 -9 9 -20 0 -27 -11 -25 -46 8 -50 50 -66 54 -112 31 -38 -19 -43
-19 -57 -5 -15 14 -14 20 6 63 45 99 57 231 26 293 -44 87 -48 92 -64 78 -12
-9 -14 -24 -9 -64 5 -48 4 -52 -13 -47 -30 8 -54 40 -67 89 l-11 44 49 0 c45
0 61 11 38 25 -5 3 -10 15 -10 26 0 18 2 18 23 5 12 -8 37 -17 55 -21z m136
-6 c4 -22 17 -51 30 -64 13 -13 27 -38 31 -54 7 -34 70 -110 109 -130 14 -8
26 -21 26 -29 0 -8 11 -37 25 -65 14 -27 24 -54 23 -59 -4 -12 -78 43 -78 59
0 8 -18 31 -40 53 -22 22 -40 46 -40 55 0 9 -9 15 -24 15 -13 0 -36 10 -51 22
-23 18 -26 27 -22 58 4 33 1 39 -24 54 -34 20 -37 48 -9 94 26 42 36 40 44 -9z
m-3651 -269 c32 -101 87 -198 182 -325 29 -38 67 -96 85 -128 l33 -59 -29 4
c-25 3 -34 14 -74 93 -43 86 -118 205 -131 205 -3 0 28 -66 68 -147 40 -80 73
-147 73 -149 0 -1 -13 3 -30 9 -25 10 -35 25 -71 117 -38 97 -69 152 -69 122
0 -11 57 -182 75 -224 7 -19 -2 -23 -22 -10 -17 10 -47 93 -73 197 -12 52 -30
99 -42 110 -19 20 -19 20 -13 -10 11 -48 35 -135 60 -212 13 -40 22 -73 20
-73 -21 0 -57 29 -61 49 -3 14 -8 32 -10 39 -2 8 -14 75 -25 150 -23 148 -32
433 -15 507 9 38 10 33 32 -90 12 -71 29 -150 37 -175z m-439 254 c3 -9 6 -23
6 -31 0 -8 15 -36 34 -62 18 -25 43 -66 56 -90 12 -24 33 -54 47 -67 l25 -23
-37 -15 c-77 -33 -110 -15 -159 83 -19 37 -51 89 -70 114 -20 26 -36 51 -36
56 0 17 36 40 70 44 19 2 40 5 46 5 7 1 15 -5 18 -14z m227 -144 c17 -52 43
-116 60 -143 16 -26 29 -60 29 -75 0 -26 -1 -26 -13 -6 -30 52 -67 102 -77
106 -17 5 -39 104 -44 198 -5 70 -4 79 5 50 6 -19 24 -78 40 -130z m-721 110
c120 -21 238 -59 338 -109 66 -33 79 -46 92 -90 8 -30 8 -30 -13 -16 -12 8
-60 29 -107 48 -47 19 -112 47 -145 62 -95 42 -116 51 -190 79 -84 32 -114 50
-70 42 17 -3 59 -10 95 -16z m5263 -27 c23 -3 37 -10 37 -20 0 -23 47 -63 75
-63 40 0 175 -113 175 -147 0 -14 -7 -31 -15 -37 -14 -10 -14 -17 0 -68 14
-55 11 -218 -4 -218 -8 0 -61 82 -94 145 -50 95 -71 107 -81 48 -8 -52 -69
-156 -74 -128 -2 11 -21 41 -43 67 -34 40 -39 53 -39 95 0 27 6 58 14 68 13
18 14 17 29 -6 9 -13 21 -45 28 -71 7 -29 17 -48 25 -48 12 0 12 5 -1 30 -8
16 -15 42 -15 59 0 49 -9 61 -46 61 -27 0 -36 -6 -49 -29 -15 -30 -15 -30
-120 -33 -69 -2 -105 1 -105 8 0 5 -20 24 -45 42 -52 36 -57 57 -17 65 28 6
76 43 83 66 8 24 57 -10 90 -61 27 -41 49 -61 49 -43 0 13 -30 62 -45 75 -9 7
-21 22 -26 32 -10 18 -9 19 20 4 43 -23 54 -20 36 7 l-15 24 66 -12 c37 -7 75
-22 87 -33 49 -44 97 -56 71 -17 -20 30 -84 62 -154 75 -30 6 -59 15 -64 20
-6 6 -20 10 -33 10 -13 0 -23 4 -23 9 0 16 23 25 55 22 17 -1 41 3 55 8 14 6
36 8 50 5 14 -3 42 -8 63 -11z m-896 -115 c23 -12 43 -23 43 -25 0 -2 -7 -18
-16 -34 -14 -28 -14 -32 2 -50 17 -19 16 -19 -15 -8 -34 12 -93 78 -111 123
-10 28 -10 29 21 22 18 -3 52 -16 76 -28z m-4157 -115 c202 -33 587 -134 606
-159 10 -12 34 -138 34 -175 0 -5 -24 8 -53 30 -161 118 -339 201 -536 247
-86 20 -287 44 -376 44 -57 1 -66 3 -50 12 48 28 210 29 375 1z m3991 -39 c16
-15 29 -37 29 -49 0 -17 10 -25 42 -34 22 -7 54 -22 69 -33 23 -18 26 -23 14
-34 -18 -18 -29 -18 -73 5 -20 10 -48 22 -61 26 -21 6 -23 4 -19 -13 5 -18 0
-20 -58 -24 -43 -3 -70 -10 -81 -21 -16 -16 -16 -17 4 -17 11 0 26 -7 33 -15
17 -20 39 -19 78 5 46 28 72 26 72 -5 0 -38 -49 -81 -103 -89 -50 -8 -174 9
-195 26 -7 6 -20 24 -28 40 -8 15 -21 28 -29 28 -8 0 -15 4 -15 10 0 17 85
113 138 157 28 23 47 45 42 48 -6 3 -10 11 -10 17 0 7 21 9 61 5 49 -4 67 -11
90 -33z m-3474 -7 c11 -24 11 -24 -34 -13 -40 9 -43 11 -27 23 27 20 50 16 61
-10z m3693 -162 c0 -20 32 -35 78 -35 26 0 45 -6 57 -20 22 -24 35 -26 35 -5
0 12 14 15 66 15 86 0 180 -25 223 -58 19 -15 44 -32 55 -39 32 -19 -4 -17
-54 3 -43 18 -70 13 -70 -11 0 -9 -9 -15 -26 -15 -39 0 -62 17 -69 50 -5 24
-12 30 -31 30 -58 0 -81 -41 -49 -84 8 -11 15 -28 15 -38 0 -34 -43 -5 -58 40
-19 58 -91 98 -130 73 -11 -7 -11 -16 1 -52 12 -35 21 -45 46 -51 l31 -8 -28
-31 -27 -31 -12 29 c-7 15 -12 40 -13 56 0 53 -55 24 -71 -38 -13 -53 -23 -56
-38 -15 -13 39 -41 40 -41 3 0 -16 6 -40 14 -54 26 -50 1 -58 -111 -34 -31 7
-33 6 -33 -18 0 -14 8 -31 18 -36 14 -8 10 -10 -19 -11 -51 0 -65 20 -45 61
19 38 20 49 5 49 -13 0 -51 -38 -76 -76 -20 -31 -47 -33 -38 -1 4 12 14 27 23
32 9 6 33 27 53 49 32 33 40 37 68 31 17 -3 33 -11 36 -16 4 -5 13 -9 21 -9
18 0 19 49 0 56 -27 11 -5 44 38 55 61 16 76 34 76 91 0 46 2 50 33 63 41 18
47 18 47 0z m-4188 -39 c40 -8 120 -30 178 -49 58 -20 125 -41 150 -48 l45
-13 -105 -6 c-87 -5 -113 -3 -154 12 -99 36 -219 51 -372 46 -79 -2 -144 -3
-144 -1 0 8 92 48 135 59 69 17 179 17 267 0z m411 -123 c-7 -2 -19 -2 -25 0
-7 3 -2 5 12 5 14 0 19 -2 13 -5z m60 -10 c-7 -2 -21 -2 -30 0 -10 3 -4 5 12
5 17 0 24 -2 18 -5z m-68 -19 c62 -6 120 -18 292 -59 57 -14 115 -26 130 -26
16 -1 -19 -5 -77 -9 -58 -5 -110 -4 -115 0 -6 5 -48 19 -95 31 -104 27 -282
29 -375 4 -68 -18 -181 -68 -207 -92 -36 -32 -17 4 26 49 57 60 132 98 215
108 65 7 86 7 206 -6z m118 9 c-7 -2 -19 -2 -25 0 -7 3 -2 5 12 5 14 0 19 -2
13 -5z m127 -17 c0 -11 -10 -11 -52 -4 -71 13 -72 18 -5 18 42 0 57 -4 57 -14z
m3924 -51 c10 -15 26 -25 41 -25 18 0 26 7 31 25 7 28 10 29 27 15 7 -6 25
-20 40 -31 18 -14 27 -29 25 -43 -4 -30 -42 -32 -94 -4 -63 33 -79 20 -79 -63
l0 -64 -60 0 c-58 0 -366 34 -374 41 -2 1 3 22 10 46 12 36 19 44 44 48 17 3
42 13 57 23 15 10 31 16 36 13 5 -3 12 -29 15 -57 4 -28 12 -57 18 -65 12 -15
59 -20 59 -6 1 4 12 20 25 37 l25 30 29 -35 c24 -28 32 -33 42 -23 11 11 9 22
-9 59 -27 55 -23 67 8 25 38 -54 68 -30 54 44 -7 41 6 46 30 10z m-3384 -43
c-12 -4 -50 26 -50 40 0 5 14 -2 31 -14 16 -12 25 -24 19 -26z m3230 19 c0
-13 -8 -21 -22 -23 -15 -2 -24 -11 -26 -26 -2 -15 -9 -22 -20 -20 -12 2 -18
15 -20 46 l-3 42 45 0 c39 0 46 -3 46 -19z m-3490 -41 c209 -14 240 -19 240
-38 0 -15 -27 -17 -297 -17 -164 0 -325 -3 -358 -7 -59 -7 -60 -7 -26 8 47 21
146 46 216 54 33 4 65 8 70 8 6 1 75 -3 155 -8z m2443 -74 c5 -14 -20 -26 -53
-26 -10 1 -8 7 9 20 28 24 37 25 44 6z m-1849 -11 c21 -16 15 -18 -21 -9 -13
4 -23 10 -23 15 0 13 23 10 44 -6z m-796 -2 c-10 -2 -26 -2 -35 0 -10 3 -2 5
17 5 19 0 27 -2 18 -5z m838 -123 c8 0 14 -10 14 -25 0 -18 -5 -25 -20 -25
-17 0 -20 -7 -20 -44 0 -34 5 -47 22 -58 41 -27 -7 -52 -53 -28 -16 9 -19 22
-19 75 0 37 -4 65 -10 65 -5 0 -10 9 -10 20 0 11 7 20 15 20 8 0 15 8 15 18 0
11 10 24 23 29 20 9 22 7 25 -18 2 -17 9 -29 18 -29z m1984 -4 c0 -34 -3 -91
-6 -125 -6 -50 -10 -61 -25 -61 -11 0 -19 5 -19 10 0 7 -6 7 -19 0 -56 -30
-111 12 -111 85 0 73 55 115 111 85 17 -10 19 -7 19 30 0 36 2 40 25 40 24 0
25 -2 25 -64z m-2770 -93 c36 -59 67 -111 68 -115 2 -4 -10 -8 -26 -8 -20 0
-35 8 -45 23 -12 19 -22 22 -53 19 -48 -5 -64 -17 -64 -48 0 -20 -5 -24 -31
-24 -24 0 -29 4 -25 18 2 9 15 62 27 117 24 111 32 125 63 125 16 0 36 -26 86
-107z m615 97 c15 0 45 -27 45 -41 0 -13 -37 -11 -59 3 -20 12 -56 4 -47 -11
3 -5 21 -12 39 -15 71 -13 97 -56 57 -96 -37 -37 -150 -18 -150 26 0 19 44 18
60 -1 16 -19 34 -19 50 0 10 12 4 16 -35 26 -29 7 -52 21 -62 35 -14 22 -14
26 1 48 15 24 48 37 74 30 8 -2 20 -4 27 -4z m2628 3 c2 -5 -4 -48 -14 -98
-10 -49 -18 -100 -19 -112 0 -26 -14 -36 -39 -28 -19 6 -18 18 4 139 7 36 7
38 -13 27 -30 -16 -42 -14 -42 9 0 13 11 25 34 34 18 8 37 19 40 25 8 12 43
15 49 4z m-2796 -27 c37 -32 40 -103 5 -138 -35 -35 -106 -32 -138 5 -76 89
44 209 133 133z m-198 -61 c21 -143 13 -170 -53 -185 -53 -12 -105 10 -106 43
0 5 26 7 58 5 54 -3 57 -2 60 22 3 20 1 23 -9 13 -7 -7 -30 -13 -51 -13 -32 0
-41 5 -58 33 -28 45 -26 92 6 124 20 20 32 24 58 20 18 -3 39 -1 47 4 29 18
37 8 48 -66z m733 45 c27 -27 30 -36 25 -73 -9 -69 -71 -103 -133 -73 -89 42
-56 176 43 176 25 0 43 -8 65 -30z m1959 1 c20 -20 29 -39 29 -61 l0 -32 -60
7 c-62 7 -64 7 -54 -19 7 -18 39 -22 49 -6 6 9 42 5 54 -6 2 -2 -4 -13 -14
-24 -27 -29 -89 -27 -120 5 -41 40 -30 130 19 153 37 18 67 13 97 -17z m512 3
c9 -3 17 -15 17 -26 0 -19 -4 -20 -50 -15 -40 5 -50 3 -50 -8 0 -8 6 -15 14
-15 7 0 25 -9 40 -21 20 -16 26 -29 26 -60 0 -82 -92 -121 -145 -63 -28 30
-33 64 -10 64 8 0 26 -12 40 -27 20 -23 28 -26 43 -17 21 14 28 64 10 75 -7 5
-27 6 -44 3 -18 -3 -34 -1 -38 4 -3 6 4 36 16 67 l21 57 46 -7 c25 -3 54 -8
64 -11z m-4235 -20 c13 -3 22 -12 22 -24 0 -15 -8 -19 -47 -22 -52 -3 -74 -28
-25 -28 37 0 72 -39 72 -81 0 -15 -11 -40 -24 -56 -32 -37 -99 -39 -127 -4
-10 13 -19 29 -19 37 0 21 40 17 58 -7 30 -37 73 2 57 52 -6 18 -12 20 -56 14
-27 -4 -49 -3 -49 2 0 13 27 110 33 120 6 9 57 7 105 -3z m306 -86 c3 -50 6
-107 6 -126 0 -33 -1 -34 -32 -29 -18 2 -41 0 -51 -5 -46 -24 -97 25 -97 93 0
64 28 93 83 86 l37 -5 0 39 c0 34 3 39 24 39 22 0 23 -4 30 -92z m4096 72 c24
-24 26 -72 5 -90 -11 -9 -13 -16 -5 -24 17 -17 12 -74 -10 -96 -26 -26 -80
-26 -114 1 -32 25 -36 77 -6 104 15 13 17 22 10 36 -24 45 8 89 65 89 22 0 43
-8 55 -20z m191 -10 c14 0 19 -7 19 -26 0 -26 -2 -26 -45 -22 -25 3 -45 4 -45
3 0 -2 -3 -10 -6 -18 -4 -12 0 -14 15 -10 14 3 30 -4 51 -25 38 -38 40 -79 5
-116 -31 -33 -94 -37 -125 -6 -27 27 -26 50 4 50 13 0 26 -7 30 -15 12 -33 66
-6 66 34 0 23 -30 40 -55 31 -22 -8 -55 -5 -55 6 0 2 8 32 17 65 l17 61 44 -6
c25 -3 53 -6 63 -6z m-4123 -42 c11 -13 23 -35 27 -49 6 -23 3 -27 -26 -33
-17 -3 -42 -6 -55 -6 -14 0 -24 -6 -24 -14 0 -21 31 -28 50 -11 19 17 60 20
60 5 0 -17 -38 -49 -65 -56 -58 -14 -105 31 -105 102 0 73 90 113 138 62z
m1673 -228 c39 0 16 -18 -48 -38 -139 -42 -324 -111 -486 -181 -92 -40 -171
-70 -177 -66 -19 12 -10 31 38 78 45 44 57 50 257 115 116 38 233 76 260 85
30 10 67 15 94 12 24 -3 52 -5 62 -5z m615 -23 c68 -27 262 -81 347 -97 38 -8
57 -16 57 -26 0 -17 6 -17 -77 1 -149 33 -403 122 -403 140 0 9 16 5 76 -18z
m34 -55 c92 -39 260 -98 348 -121 31 -9 42 -17 42 -31 0 -11 -2 -20 -3 -20
-40 0 -305 86 -422 137 -188 81 -199 88 -147 95 30 4 41 0 182 -60z"/>
<path d="M6274 6058 c3 -10 1 -18 -4 -18 -6 0 -10 -7 -10 -15 0 -8 4 -15 9
-15 13 0 20 36 9 51 -8 11 -9 10 -4 -3z"/>
<path d="M6150 5996 c0 -9 5 -16 10 -16 6 0 10 4 10 9 0 6 -4 13 -10 16 -5 3
-10 -1 -10 -9z"/>
<path d="M6206 5981 c-4 -7 -5 -15 -2 -18 9 -9 19 4 14 18 -4 11 -6 11 -12 0z"/>
<path d="M6142 5660 c0 -14 2 -19 5 -12 2 6 2 18 0 25 -3 6 -5 1 -5 -13z"/>
<path d="M6080 5589 c0 -5 5 -7 10 -4 6 3 10 8 10 11 0 2 -4 4 -10 4 -5 0 -10
-5 -10 -11z"/>
<path d="M6610 5601 c0 -12 26 -32 33 -25 3 4 0 13 -8 20 -16 16 -25 18 -25 5z"/>
<path d="M6580 5538 c0 -12 24 -20 50 -16 17 2 14 5 -14 14 -20 6 -36 7 -36 2z"/>
<path d="M6055 5180 c3 -5 8 -10 11 -10 2 0 4 5 4 10 0 6 -5 10 -11 10 -5 0
-7 -4 -4 -10z"/>
<path d="M6330 5095 c0 -2 10 -10 23 -16 20 -11 21 -11 8 4 -13 16 -31 23 -31
12z"/>
<path d="M6492 5080 l-23 -19 29 -32 28 -31 17 26 c17 26 17 26 -8 26 -22 0
-25 3 -19 25 7 30 6 30 -24 5z"/>
<path d="M6400 4962 c0 -9 10 -23 21 -31 19 -11 21 -11 15 4 -3 9 -6 20 -6 25
0 4 -7 10 -15 14 -10 3 -15 -1 -15 -12z"/>
<path d="M6600 4964 c0 -15 26 -19 34 -5 3 5 -3 11 -14 14 -13 3 -20 0 -20 -9z"/>
<path d="M6508 4929 c-23 -25 -23 -27 7 -21 16 3 25 11 25 23 0 24 -10 23 -32
-2z"/>
<path d="M5915 4690 c3 -5 11 -10 16 -10 6 0 7 5 4 10 -3 6 -11 10 -16 10 -6
0 -7 -4 -4 -10z"/>
<path d="M6110 4308 c0 -7 11 -18 25 -25 32 -15 32 0 0 21 -18 12 -25 13 -25
4z"/>
<path d="M6240 4301 c0 -11 -6 -22 -12 -24 -8 -3 -6 -6 5 -6 9 -1 17 6 17 14
0 8 5 15 10 15 6 0 10 5 10 10 0 6 -7 10 -15 10 -8 0 -15 -9 -15 -19z"/>
<path d="M6287 4263 c-15 -14 -6 -24 16 -18 35 11 44 25 16 25 -14 0 -29 -3
-32 -7z"/>
<path d="M6170 4210 c0 -16 7 -20 30 -20 37 0 39 13 5 28 -34 16 -35 15 -35
-8z"/>
<path d="M6312 3640 c0 -14 2 -19 5 -12 2 6 2 18 0 25 -3 6 -5 1 -5 -13z"/>
<path d="M6297 3573 c-4 -3 -7 -16 -6 -27 0 -19 1 -19 10 3 10 24 8 36 -4 24z"/>
<path d="M6117 3046 c-4 -9 5 -21 19 -31 30 -20 43 -13 20 10 -9 9 -16 21 -16
26 0 14 -17 11 -23 -5z"/>
<path d="M6214 3032 c-9 -23 -8 -33 4 -48 14 -18 14 -18 8 0 -4 12 1 25 15 37
11 10 18 23 14 28 -11 20 -30 11 -41 -17z"/>
<path d="M6228 2900 c2 -18 10 -30 19 -30 8 0 12 6 9 13 -3 6 -9 20 -12 30
-10 28 -21 20 -16 -13z"/>
<path d="M6410 2884 c0 -9 7 -14 17 -12 25 5 28 28 4 28 -12 0 -21 -6 -21 -16z"/>
<path d="M6328 2873 c7 -3 16 -2 19 1 4 3 -2 6 -13 5 -11 0 -14 -3 -6 -6z"/>
<path d="M6308 2808 c17 -8 26 -8 34 0 9 9 4 12 -22 11 -33 0 -34 -1 -12 -11z"/>
<path d="M5470 2653 c0 -15 28 -43 43 -43 6 0 5 5 -3 13 -8 6 -21 18 -27 26
-8 9 -13 10 -13 4z"/>
<path d="M5750 2649 c0 -5 5 -7 10 -4 6 3 10 8 10 11 0 2 -4 4 -10 4 -5 0 -10
-5 -10 -11z"/>
<path d="M5547 2604 c-11 -11 3 -24 25 -24 17 0 18 2 8 15 -13 16 -23 19 -33
9z"/>
<path d="M5570 2160 c0 -5 5 -10 11 -10 5 0 7 5 4 10 -3 6 -8 10 -11 10 -2 0
-4 -4 -4 -10z"/>
<path d="M5660 2116 c0 -15 18 -31 26 -23 7 7 -7 37 -17 37 -5 0 -9 -6 -9 -14z"/>
<path d="M5740 2100 c0 -5 10 -10 23 -10 18 0 19 2 7 10 -19 13 -30 13 -30 0z"/>
<path d="M5600 2068 c0 -8 7 -21 15 -28 19 -16 19 -1 0 24 -12 16 -15 17 -15
4z"/>
<path d="M5804 2040 c-4 -16 -11 -30 -17 -30 -8 0 -7 -4 0 -11 7 -7 19 -9 28
-5 12 4 15 13 10 35 -5 25 -3 30 17 34 20 4 20 4 -5 6 -23 1 -28 -4 -33 -29z"/>
<path d="M5693 1998 c22 -6 42 -7 47 -2 5 5 -11 10 -38 11 l-47 2 38 -11z"/>
<path d="M4979 1843 c-1 -5 -1 -17 0 -29 2 -15 -12 -27 -55 -50 -71 -36 -114
-78 -114 -110 0 -13 5 -24 10 -24 6 0 16 -11 22 -25 8 -18 19 -25 40 -25 54 0
92 35 46 42 -40 5 -29 41 16 53 24 7 51 25 70 48 17 20 44 41 60 47 28 10 28
11 10 31 -33 36 -102 63 -105 42z"/>
<path d="M4552 1078 c-17 -17 -15 -73 4 -89 33 -27 72 29 50 72 -13 28 -36 35
-54 17z"/>
<path d="M1806 1040 c-3 -18 -6 -36 -6 -41 0 -11 21 -11 39 0 12 8 11 14 -6
41 l-20 32 -7 -32z"/>
<path d="M2254 1065 c-14 -21 -15 -31 -6 -51 24 -52 72 -37 72 22 0 23 -6 37
-19 44 -27 14 -28 13 -47 -15z"/>
<path d="M2030 1055 c-17 -20 -3 -73 21 -80 40 -13 62 32 39 76 -13 23 -43 25
-60 4z"/>
<path d="M2792 1071 c-8 -5 -12 -23 -10 -47 2 -33 7 -40 27 -42 43 -7 67 50
35 82 -17 18 -32 20 -52 7z"/>
<path d="M4764 1063 c-17 -17 -16 -18 15 -21 40 -4 48 2 31 23 -16 19 -25 19
-46 -2z"/>
<path d="M1312 958 c-25 -25 -5 -98 28 -98 20 0 37 41 31 73 -7 35 -37 47 -59
25z"/>
<path d="M5444 1025 c-9 -22 22 -53 37 -38 15 15 7 47 -14 51 -9 2 -20 -4 -23
-13z"/>
<path d="M5427 934 c-11 -11 -8 -52 3 -59 6 -3 19 -3 31 0 28 9 23 59 -6 63
-12 2 -24 0 -28 -4z"/>
<path d="M1507 984 c-17 -18 -6 -35 21 -32 16 2 27 9 27 18 0 16 -36 26 -48
14z"/>
<path d="M12154 6129 c-280 -286 -410 -438 -502 -591 -91 -152 -116 -254 -72
-298 44 -44 56 -35 207 146 120 143 329 348 468 457 110 88 141 105 111 65
-114 -161 -256 -412 -256 -453 0 -73 79 -24 381 231 87 73 276 216 310 235 11
5 -17 -39 -61 -98 -86 -115 -178 -283 -204 -372 -9 -30 -16 -79 -16 -108 0
-44 5 -58 25 -78 41 -42 66 -33 168 61 68 63 370 306 387 312 5 2 -4 -27 -21
-64 -39 -87 -49 -183 -22 -233 41 -78 116 -97 234 -61 96 29 151 57 284 144
61 40 164 103 230 140 137 78 272 167 363 239 l63 50 -7 -54 c-18 -145 -44
-262 -67 -302 -35 -60 -114 -130 -170 -152 -46 -17 -105 -17 -182 1 -49 12
-15 -19 57 -51 81 -36 165 -32 262 13 131 61 195 159 266 402 64 223 92 284
167 360 58 59 63 68 63 108 0 60 -32 92 -93 92 -70 0 -127 -45 -213 -168 -39
-57 -93 -126 -120 -154 -54 -55 -265 -234 -337 -286 l-47 -33 50 72 c81 118
110 218 90 312 -6 30 -20 63 -31 73 -20 18 -20 17 -14 -22 15 -89 -58 -208
-234 -384 -135 -135 -267 -232 -365 -269 -81 -30 -88 -29 -80 17 16 86 91 213
205 348 123 145 274 268 409 333 66 32 84 36 152 36 72 0 76 1 61 17 -21 24
-76 38 -143 38 -177 0 -408 -127 -625 -346 -74 -74 -140 -129 -196 -164 -112
-70 -315 -206 -360 -242 -20 -15 -39 -28 -42 -28 -13 0 29 81 87 170 65 99
118 165 272 341 157 181 169 205 119 254 -56 56 -112 29 -350 -170 -185 -155
-323 -262 -386 -299 l-33 -19 21 29 c12 16 67 80 122 142 166 185 185 221 143
272 -38 47 -106 26 -247 -75 -74 -53 -137 -106 -425 -353 -58 -50 -107 -89
-109 -86 -6 5 52 91 167 246 54 73 118 161 141 196 49 73 105 186 99 203 -2 6
-72 -58 -154 -142z"/>
<path d="M11581 6185 c-78 -19 -223 -94 -321 -166 -107 -80 -263 -235 -319
-317 -132 -196 -149 -367 -40 -422 66 -34 151 -22 289 43 332 155 589 472 550
679 -9 44 -33 98 -44 98 -2 0 -3 -24 -3 -52 1 -98 -98 -246 -271 -408 -132
-124 -333 -250 -398 -250 -25 0 -10 61 36 155 102 208 347 451 559 558 78 39
91 42 163 42 l79 0 -27 22 c-15 11 -40 24 -57 27 -47 9 -137 5 -196 -9z"/>
<path d="M3519 5988 c-94 -36 -375 -108 -531 -137 -213 -40 -356 -53 -598 -53
-282 0 -514 26 -774 86 -37 9 -74 16 -82 16 -13 0 -14 -143 -11 -1187 3 -1029
6 -1203 20 -1298 47 -323 110 -540 227 -783 139 -288 328 -535 607 -794 237
-221 470 -361 907 -548 104 -44 204 -91 222 -105 l33 -25 34 23 c19 13 111 54
203 92 453 182 712 351 1034 674 420 421 631 846 727 1461 15 92 17 256 20
1303 2 694 0 1196 -5 1193 -11 -6 -166 -39 -282 -60 -377 -66 -792 -66 -1160
0 -116 21 -333 76 -461 117 -79 25 -112 31 -130 25z m141 -102 c346 -105 612
-146 956 -146 150 0 257 6 371 20 150 19 363 57 442 80 19 5 36 9 37 7 1 -1 3
-517 5 -1147 2 -1041 1 -1157 -15 -1275 -78 -586 -268 -977 -666 -1376 -165
-165 -360 -327 -371 -307 -4 7 -10 37 -14 67 l-7 53 53 54 53 54 -72 0 c-79 0
-87 6 -112 82 -6 21 -15 38 -19 38 -5 0 -16 -20 -26 -45 -25 -67 -37 -75 -113
-75 l-67 0 57 -55 56 -55 -14 -52 c-21 -80 -19 -82 41 -43 31 19 60 35 65 35
14 0 110 -62 110 -72 0 -5 -37 -33 -83 -62 -185 -121 -338 -201 -597 -311
-139 -59 -177 -79 -196 -102 -9 -11 -19 -9 -55 11 -24 14 -129 61 -234 106
-449 192 -649 324 -949 626 -397 400 -602 801 -698 1361 -22 126 -22 148 -25
1312 -4 1067 -2 1183 12 1178 26 -11 186 -46 280 -62 359 -61 769 -61 1100 1
148 27 372 84 505 127 52 17 41 19 190 -27z"/>
<path d="M3085 5728 l-30 -63 -70 -3 -70 -3 54 -48 55 -48 -17 -69 c-9 -37
-15 -69 -13 -71 1 -1 27 13 57 32 30 19 59 35 64 35 6 0 35 -15 65 -34 30 -19
56 -33 58 -32 1 2 -7 34 -19 71 l-21 68 33 26 c19 14 45 36 59 48 l25 22 -67
1 -68 0 -33 66 -33 65 -29 -63z"/>
<path d="M3897 5720 l-26 -60 -65 0 c-36 0 -66 -2 -66 -5 0 -2 22 -25 48 -49
l49 -46 -17 -67 c-9 -38 -16 -70 -14 -71 1 -2 28 12 58 32 31 20 61 36 66 36
5 0 34 -16 64 -35 30 -19 57 -35 60 -35 2 0 -4 31 -14 69 l-18 69 50 49 49 48
-72 5 -73 5 -20 58 c-12 31 -24 57 -27 57 -3 0 -17 -27 -32 -60z"/>
<path d="M5226 5671 c-31 -63 -45 -71 -135 -71 l-35 0 54 -48 53 -48 -12 -54
c-7 -30 -15 -63 -18 -73 -3 -14 10 -9 60 22 l64 39 61 -39 c34 -22 62 -35 62
-30 0 5 -7 38 -16 73 l-16 63 53 47 54 48 -40 0 c-22 0 -57 3 -77 6 -34 6 -38
11 -58 65 -13 33 -23 59 -24 59 -1 0 -15 -27 -30 -59z"/>
<path d="M1760 5666 c-24 -58 -38 -65 -130 -66 l-35 -1 51 -47 51 -47 -17 -73
-17 -72 46 26 c25 15 54 33 65 40 16 11 26 7 73 -23 30 -19 57 -32 60 -29 3 3
-4 34 -14 70 l-20 64 60 46 60 46 -40 0 c-86 0 -102 9 -131 66 -14 30 -29 54
-33 54 -4 0 -17 -24 -29 -54z"/>
<path d="M2430 5636 l-22 -66 -71 0 -71 0 48 -49 47 -48 -11 -63 c-6 -34 -10
-64 -8 -66 2 -2 28 13 58 33 60 40 45 42 144 -17 36 -22 38 -22 33 -4 -4 10
-11 41 -18 67 l-12 49 49 49 48 49 -65 0 -65 0 -24 58 c-12 31 -26 61 -30 65
-4 5 -18 -21 -30 -57z"/>
<path d="M4561 5638 l-30 -68 -68 0 -68 -1 53 -49 53 -50 -15 -54 c-23 -77
-21 -80 27 -51 82 51 79 51 137 11 29 -20 54 -35 55 -34 2 2 -2 32 -7 67 l-10
64 48 48 48 49 -71 0 c-68 0 -71 1 -81 28 -5 15 -17 45 -25 67 l-15 40 -31
-67z"/>
<path d="M3480 5459 c-34 -14 -196 -56 -305 -79 -276 -59 -508 -82 -820 -82
-137 -1 -274 3 -302 7 l-53 7 1 -244 c0 -133 4 -526 9 -873 8 -661 11 -708 60
-919 63 -270 191 -542 360 -767 87 -116 305 -331 426 -421 170 -126 362 -233
563 -313 115 -46 103 -48 348 75 539 270 887 617 1081 1080 64 154 99 276 134
472 21 120 22 148 25 1017 l4 893 -52 -7 c-101 -14 -557 -8 -707 9 -247 28
-467 73 -645 131 -86 28 -91 28 -127 14z m817 -865 c122 -71 130 -259 14 -338
-83 -57 -182 -54 -255 6 -70 58 -96 158 -62 240 18 43 86 105 123 114 16 3 33
7 38 9 24 9 103 -8 142 -31z m-1983 -905 l49 -13 -6 -76 c-3 -42 -9 -82 -12
-90 -5 -16 -52 -20 -72 -7 -6 4 -14 1 -16 -5 -3 -7 -6 -2 -7 12 l-1 25 -19
-24 c-11 -13 -20 -19 -21 -15 0 5 -4 -1 -9 -13 -6 -13 -18 -23 -30 -23 -11 0
-20 -4 -20 -10 0 -12 -7 -11 119 -19 70 -4 106 -10 109 -18 2 -8 -6 -13 -22
-13 -14 0 -26 -4 -26 -9 0 -12 164 -25 192 -16 13 4 66 11 118 16 131 10 160
17 160 39 0 17 -25 35 -42 32 -5 -1 -8 4 -8 10 0 9 -3 9 -9 -1 -12 -19 -41 -6
-41 18 0 25 -20 38 -21 14 -2 -24 -18 52 -21 98 l-3 36 89 7 c49 3 238 6 420
6 330 0 331 0 306 20 -14 11 -32 20 -40 20 -8 0 -22 5 -30 10 -10 7 77 10 260
9 216 -2 277 -5 288 -15 14 -15 47 -16 289 -14 l142 1 3 -37 c3 -35 6 -38 51
-51 26 -7 47 -18 47 -23 0 -6 9 -10 20 -10 17 0 20 -7 20 -40 0 -27 -4 -40
-13 -40 -8 0 -22 -9 -32 -20 -10 -11 -24 -20 -32 -20 -7 0 -13 -4 -13 -9 0
-10 82 -21 158 -21 28 0 52 -4 52 -10 0 -5 25 -10 56 -10 49 0 55 2 44 15 -11
13 -8 15 18 15 17 0 34 5 37 10 3 6 18 10 32 10 21 0 23 2 13 15 -7 8 -16 13
-20 10 -5 -3 -15 2 -23 10 -9 8 -17 10 -19 5 -2 -7 -13 -6 -30 2 -23 11 -28
19 -28 50 0 40 6 48 58 78 28 17 32 25 32 60 l0 40 53 0 c103 0 101 3 93 -119
-14 -222 -68 -466 -143 -646 -201 -483 -565 -836 -1132 -1100 l-154 -72 -76
29 c-459 175 -829 472 -1083 869 -170 265 -276 598 -303 946 l-6 82 43 4 c67
7 158 1 212 -14z m216 -16 c0 -5 10 -13 23 -18 20 -9 22 -18 25 -87 2 -67 1
-77 -13 -72 -10 4 -15 0 -15 -15 0 -25 -20 -29 -20 -3 -1 16 -2 16 -15 -1 -8
-11 -23 -17 -37 -15 -22 3 -23 7 -26 108 l-2 105 27 16 c22 12 31 12 41 3 6
-7 12 -16 12 -21z m2140 -156 c0 -37 -17 -52 -60 -52 -35 0 -35 0 -38 48 -3
42 0 49 17 54 12 3 21 9 21 14 0 5 14 0 30 -13 21 -15 30 -30 30 -51z"/>
<path d="M3637 3484 c-3 -3 -16 -7 -29 -9 -12 -2 -41 -9 -63 -15 -22 -6 -62
-15 -89 -20 -45 -9 -65 -16 -55 -23 2 -1 104 -1 225 1 l222 4 -11 28 c-9 24
-13 26 -29 17 -13 -9 -21 -8 -30 1 -15 15 -48 16 -48 1 0 -8 -4 -8 -12 -2 -16
12 -74 24 -81 17z"/>
<path d="M2952 3445 c-29 -21 -62 -86 -62 -123 0 -16 9 -37 20 -47 28 -26 25
-42 -12 -61 -63 -33 -78 -54 -78 -114 1 -30 5 -85 9 -122 7 -53 5 -89 -10
-165 -20 -105 -25 -248 -9 -258 6 -3 10 -23 10 -43 0 -30 6 -41 30 -57 16 -11
30 -25 30 -31 0 -6 7 -17 15 -24 9 -8 15 -30 15 -56 0 -32 -4 -44 -15 -44 -8
0 -15 -8 -15 -17 0 -16 16 -18 171 -20 163 -2 170 -2 164 16 -4 14 0 21 13 25
42 14 47 44 34 239 -25 380 -27 463 -8 470 10 4 16 17 15 34 0 27 -1 28 -11 6
-6 -13 -15 -23 -19 -23 -13 0 -21 39 -14 70 5 24 12 30 32 30 17 0 23 -4 20
-13 -3 -8 -1 -20 4 -28 7 -11 9 -11 9 3 0 23 20 34 31 17 5 -8 9 -26 9 -41 0
-34 25 -38 34 -5 11 40 6 67 -14 87 -21 21 -74 27 -85 10 -3 -5 -15 -10 -26
-10 -10 0 -19 -6 -19 -14 0 -8 -10 -22 -22 -30 -20 -14 -24 -14 -39 0 -9 8
-23 28 -29 44 -7 16 -24 33 -39 39 -16 6 -20 10 -9 10 10 1 21 9 26 19 11 20
13 105 2 112 -13 9 -22 50 -11 50 18 0 12 36 -8 54 -27 25 -110 32 -139 11z
m72 -141 c3 -8 2 -12 -4 -9 -14 9 -12 -6 4 -24 7 -9 16 -31 20 -50 6 -33 5
-33 -12 -18 -10 10 -28 17 -40 17 -28 0 -39 20 -19 35 10 7 17 24 17 39 0 29
24 36 34 10z m186 -396 c0 -18 7 -146 16 -285 17 -273 18 -264 -35 -292 -19
-10 -26 -10 -40 3 -10 9 -23 16 -29 16 -21 0 -25 65 -7 101 13 25 19 66 21
167 3 74 7 138 9 142 3 5 7 36 10 70 3 35 12 68 20 77 8 8 15 19 15 24 0 5 5
9 10 9 6 0 10 -15 10 -32z m-184 -564 c-3 -8 -10 -14 -16 -14 -14 0 -12 47 3
53 14 5 21 -17 13 -39z"/>
<path d="M4221 3224 c-60 -16 -89 -34 -145 -93 -37 -38 -38 -41 -26 -70 12
-29 13 -29 35 -15 13 9 36 14 52 12 25 -3 28 -7 31 -45 l3 -43 -190 0 c-175 0
-193 2 -228 21 -79 44 -87 61 -52 118 11 18 18 35 16 38 -9 8 -78 -9 -92 -23
-7 -8 -17 -14 -22 -14 -4 0 -23 -35 -41 -78 -61 -141 -59 -128 -31 -151 30
-26 35 -26 62 -1 41 39 67 18 121 -95 13 -28 13 -31 -7 -38 l-22 -9 23 -9 c17
-6 22 -16 22 -42 0 -20 7 -40 16 -48 14 -11 16 -33 13 -144 l-4 -130 28 3 c17
2 29 -3 33 -12 4 -11 18 -13 60 -9 33 4 59 1 67 -6 22 -17 98 -24 182 -16 l78
7 -43 24 c-49 28 -65 30 -56 9 3 -10 -1 -15 -13 -15 -29 0 -52 11 -45 21 3 5
-19 9 -48 10 -86 1 -89 4 -60 71 28 64 32 65 143 74 l76 7 6 -71 c8 -85 14
-102 36 -102 9 0 21 -4 27 -10 6 -6 33 -7 69 -2 l60 8 -37 24 c-43 28 -45 43
-28 162 8 53 17 78 45 114 19 25 35 50 35 55 0 12 36 -7 64 -32 24 -23 30 -23
45 -5 10 11 9 21 -3 45 -9 16 -16 42 -16 56 0 18 -7 28 -26 35 -36 14 -27 29
31 51 71 27 101 25 122 -8 10 -15 26 -36 36 -45 32 -33 19 -75 -33 -107 -22
-14 -37 -28 -34 -33 7 -11 52 -10 59 2 3 6 17 10 31 10 15 0 24 6 24 15 0 8 5
15 10 15 6 0 10 8 10 18 0 10 5 23 12 30 8 8 11 50 9 131 -2 119 -2 120 23
136 37 24 32 40 -17 65 -41 20 -45 21 -122 6 l-80 -15 66 5 c53 4 70 2 83 -11
22 -23 20 -67 -5 -99 -22 -28 -44 -32 -83 -15 -20 10 -30 9 -50 -5 -32 -20
-55 -20 -77 0 -16 14 -23 15 -49 4 -45 -19 -95 -5 -133 37 -103 114 -93 107
-135 94 -20 -7 -43 -15 -49 -17 -29 -12 -10 35 30 73 44 44 101 73 139 72 18
0 15 -3 -14 -16 -25 -10 -38 -22 -38 -33 0 -36 22 -32 61 11 59 64 54 68 -40
43z m-554 -141 c-6 -36 -3 -40 49 -85 l55 -48 200 0 c220 0 225 -2 172 -60
-27 -29 -30 -29 -71 -18 -42 10 -45 10 -65 -15 -12 -15 -34 -31 -50 -37 -24
-8 -32 -6 -66 25 -44 40 -65 44 -83 15 -29 -46 -112 -9 -152 68 -21 40 -32 40
-73 0 -18 -17 -35 -29 -39 -25 -16 16 67 203 94 210 33 9 35 7 29 -30z m583
-183 c13 -27 27 -50 32 -50 4 0 8 -4 8 -9 0 -5 -9 -7 -20 -4 -24 6 -75 87 -65
103 12 19 21 10 45 -40z m429 8 c4 -13 11 -41 15 -63 l6 -40 -19 35 c-11 19
-23 41 -27 48 -6 12 1 42 11 42 3 0 9 -10 14 -22z m-323 -53 c18 -19 37 -35
43 -35 6 0 11 -6 11 -14 0 -7 9 -16 20 -19 13 -3 20 -14 20 -30 0 -14 3 -33 7
-43 4 -10 -12 1 -34 24 -22 23 -45 42 -51 42 -6 0 -23 -18 -39 -40 -26 -37
-53 -52 -53 -30 0 6 -9 10 -20 10 -22 0 -26 -20 -9 -37 17 -17 4 -40 -28 -47
-15 -4 -35 -14 -45 -23 -14 -13 -20 -13 -48 2 -29 15 -35 15 -72 0 -49 -19
-98 -12 -98 15 0 10 -3 27 -7 37 -6 16 -8 15 -13 -7 -5 -22 -10 -24 -50 -21
-91 6 -105 43 -41 105 l39 38 74 -10 c40 -6 106 -16 146 -23 58 -10 77 -11 90
-1 9 7 41 24 70 39 55 29 58 36 37 86 -12 29 15 20 51 -18z m-516 -83 c0 -5
-16 -17 -35 -28 -19 -10 -38 -27 -41 -36 -8 -26 -26 -22 -22 4 4 29 98 86 98
60z m-29 -255 c-6 -29 -13 -68 -15 -87 -2 -19 -3 15 -2 77 1 98 3 109 14 87
10 -19 11 -37 3 -77z m84 31 c-4 -13 -11 -27 -16 -32 -5 -6 -9 -25 -9 -42 0
-44 -16 -52 -24 -12 -5 24 -1 36 14 50 11 10 20 28 20 38 0 11 5 20 11 20 6 0
8 -9 4 -22z m343 -118 c0 -33 -1 -32 -9 10 -4 25 -7 59 -7 75 0 26 1 25 9 -10
4 -22 8 -56 7 -75z m-38 80 c0 -11 -2 -20 -4 -20 -2 0 -6 9 -9 20 -3 11 -1 20
4 20 5 0 9 -9 9 -20z"/>
<path d="M3343 3213 c-40 -8 -26 -26 15 -19 20 3 53 6 72 7 32 1 33 2 10 9
-27 9 -62 10 -97 3z"/>
<path d="M4260 3153 c1 -33 43 -70 85 -76 38 -6 38 -6 10 5 -40 14 -75 47 -75
70 0 10 -4 18 -10 18 -5 0 -10 -8 -10 -17z"/>
<path d="M2310 3106 c0 -7 -10 -17 -22 -20 -22 -7 -22 -7 -3 -16 25 -11 96
-11 150 -2 l40 8 -34 12 c-19 7 -45 12 -57 12 -13 0 -24 6 -24 13 0 9 -3 8 -9
-2 -6 -9 -11 -10 -15 -2 -10 15 -26 14 -26 -3z"/>
<path d="M2547 2780 c-4 -14 -14 -20 -34 -21 l-28 -1 30 -13 c31 -14 127 -18
180 -6 l30 6 -36 17 c-20 10 -45 16 -57 13 -12 -2 -24 1 -27 6 -4 5 -11 7 -16
4 -5 -4 -9 -1 -9 4 0 19 -28 12 -33 -9z"/>
<path d="M3990 2251 c0 -5 -15 -13 -32 -17 -29 -6 -30 -8 -13 -15 11 -4 58 -8
105 -8 77 0 83 1 66 14 -11 8 -32 15 -46 15 -15 0 -30 3 -34 7 -11 11 -46 14
-46 4z"/>
<path d="M3535 2200 c-3 -5 -16 -10 -28 -9 -45 0 -100 -10 -110 -20 -6 -6 -29
-11 -51 -11 -23 0 -48 -5 -56 -10 -17 -11 429 -12 468 -1 23 6 23 7 5 23 -11
10 -29 16 -42 13 -13 -2 -24 2 -27 10 -4 10 -12 11 -28 5 -12 -4 -42 -4 -67 1
-57 11 -57 11 -64 -1z"/>
<path d="M3090 2120 c0 -14 -7 -20 -22 -20 -17 0 -19 -3 -10 -12 11 -11 100
-13 161 -1 l34 6 -31 13 c-17 7 -39 13 -49 13 -25 0 -51 6 -59 14 -13 13 -24
7 -24 -13z"/>
<path d="M3635 2029 c-142 -21 -92 -37 115 -36 86 0 126 2 99 6 -26 4 -53 12
-60 17 -8 6 -27 11 -42 10 -16 -1 -31 2 -33 6 -3 4 -8 7 -12 7 -4 -1 -34 -5
-67 -10z"/>
<path d="M5225 4678 c-26 -55 -34 -63 -60 -66 -16 -1 -46 -5 -65 -8 l-35 -6
49 -42 49 -43 -16 -69 c-8 -38 -14 -70 -12 -72 2 -2 27 12 57 32 29 20 57 36
63 36 5 0 34 -16 64 -35 30 -19 56 -33 58 -31 2 2 -4 34 -13 71 l-17 67 48 41
c42 36 45 42 29 48 -11 4 -40 8 -66 8 -52 1 -54 3 -83 79 l-20 53 -30 -63z"/>
<path d="M1758 4670 c-25 -57 -28 -60 -61 -60 -19 0 -48 -3 -65 -6 l-31 -6 48
-44 49 -44 -14 -53 c-7 -28 -14 -60 -14 -70 0 -18 2 -18 33 3 84 55 88 56 150
16 62 -40 67 -36 42 34 -23 64 -19 75 35 118 46 37 48 40 27 46 -12 3 -41 6
-64 6 -43 0 -43 0 -70 60 -14 33 -29 60 -32 60 -4 0 -18 -27 -33 -60z"/>
<path d="M1771 3682 c-29 -58 -34 -62 -65 -62 -18 0 -48 -3 -65 -6 l-32 -7 51
-46 50 -46 -15 -64 c-9 -35 -14 -66 -11 -68 2 -2 30 12 62 31 l58 35 35 -21
c20 -12 45 -28 56 -35 11 -7 22 -13 26 -13 3 0 -1 32 -10 71 l-15 70 48 42
c43 36 46 42 30 48 -11 4 -39 8 -64 8 l-46 1 -30 62 -31 63 -32 -63z"/>
<path d="M5214 3680 c-26 -58 -28 -60 -64 -60 -21 0 -51 -3 -67 -6 l-30 -6 50
-47 49 -47 -16 -64 c-9 -34 -15 -65 -12 -67 2 -2 30 12 62 31 31 19 62 32 68
29 6 -4 30 -20 54 -36 24 -16 45 -27 47 -25 2 2 -1 35 -7 72 l-11 68 48 41
c42 36 45 42 29 48 -11 4 -42 8 -71 8 l-52 1 -22 60 c-12 33 -23 60 -25 60 -1
0 -15 -27 -30 -60z"/>
<path d="M2086 2701 l-26 -59 -65 -7 c-36 -3 -65 -10 -64 -13 0 -4 20 -23 44
-42 24 -19 44 -41 44 -49 1 -7 -6 -40 -15 -73 -8 -33 -14 -62 -12 -64 2 -2 30
14 63 36 32 21 63 36 69 32 6 -3 32 -21 59 -40 26 -19 47 -31 47 -29 0 3 -7
36 -16 74 -17 76 -22 66 65 134 l34 27 -75 7 -76 7 -22 59 c-11 32 -22 59 -24
59 -2 0 -15 -26 -30 -59z"/>
<path d="M4915 2724 c-8 -21 -18 -48 -21 -60 -5 -19 -15 -23 -82 -29 -86 -8
-86 0 1 -70 l38 -30 -25 -73 -25 -73 32 19 c108 66 98 63 126 43 14 -10 43
-27 63 -40 l36 -22 -14 53 c-22 85 -19 97 34 144 l47 42 -69 7 -68 8 -28 59
-29 60 -16 -38z"/>
<path d="M2720 2039 l-25 -64 -73 -5 -73 -5 51 -50 c55 -54 54 -51 33 -159
l-5 -28 58 40 59 39 60 -38 c33 -21 61 -37 62 -36 1 2 -5 31 -14 66 l-16 62
53 54 53 54 -69 3 -68 3 -31 64 -31 63 -24 -63z"/>
<path d="M3501 1654 c-21 -58 -25 -62 -59 -68 -21 -3 -55 -6 -77 -6 l-39 0 53
-54 53 -54 -11 -51 c-18 -85 -16 -86 45 -42 l56 40 65 -40 c49 -30 63 -35 59
-22 -3 10 -11 40 -17 68 l-12 49 59 53 59 53 -50 1 c-94 2 -105 8 -134 74
l-28 60 -22 -61z"/>
<path d="M15198 4842 c-65 -109 -118 -201 -118 -205 0 -4 98 -7 218 -7 l218 0
24 28 c21 24 257 286 319 355 l25 27 -285 0 -284 -1 -117 -197z"/>
<path d="M8530 3310 l0 -1150 205 0 205 0 0 404 0 404 243 5 c208 4 254 8 327
27 241 63 389 202 445 415 43 163 40 502 -6 650 -69 226 -245 350 -546 385
-48 5 -265 10 -480 10 l-393 0 0 -1150z m765 750 c140 -20 214 -61 258 -143
20 -38 22 -56 22 -187 -1 -160 -8 -189 -65 -254 -76 -86 -184 -116 -420 -116
l-150 0 0 355 0 355 143 0 c78 0 174 -5 212 -10z"/>
<path d="M10473 4333 c-126 -319 -280 -862 -402 -1418 -60 -274 -83 -395 -137
-722 l-5 -33 205 0 c205 0 206 0 210 23 7 32 76 460 76 470 0 4 155 7 344 7
320 0 345 -1 350 -17 3 -10 22 -123 42 -250 l37 -233 205 0 204 0 -7 58 c-33
275 -169 902 -295 1367 -97 354 -160 550 -245 765 l-42 105 -245 3 -245 2 -50
-127z m352 -517 c67 -217 204 -726 205 -758 0 -5 -118 -8 -261 -8 l-262 0 7
43 c29 185 237 900 256 881 5 -5 29 -76 55 -158z"/>
<path d="M11750 3310 l0 -1150 205 0 205 0 0 405 0 405 188 0 c103 0 210 3
238 6 l50 6 27 -63 c57 -135 144 -427 197 -661 l22 -98 209 0 c115 0 209 3
209 6 0 51 -137 548 -216 785 l-66 196 49 64 c52 69 83 132 110 226 25 89 31
445 8 555 -56 276 -233 420 -562 458 -48 5 -265 10 -480 10 l-393 0 0 -1150z
m845 736 c76 -21 128 -55 162 -108 27 -40 28 -47 31 -194 3 -139 1 -157 -19
-203 -29 -69 -91 -122 -176 -151 -59 -20 -93 -24 -250 -28 l-183 -4 0 357 0
358 188 -6 c128 -3 206 -10 247 -21z"/>
<path d="M13946 4433 c-27 -54 -125 -330 -175 -493 -114 -373 -230 -835 -315
-1250 -35 -168 -86 -468 -86 -502 l0 -28 203 0 204 0 17 118 c9 64 27 176 39
247 l22 130 345 0 345 0 16 -90 c9 -49 27 -161 40 -248 l24 -157 206 0 206 0
-4 33 c-3 17 -18 111 -34 207 -111 651 -332 1502 -507 1943 l-46 117 -243 0
-242 0 -15 -27z m302 -585 c81 -261 212 -743 212 -783 0 -13 -32 -15 -260 -15
-173 0 -260 3 -260 10 0 18 89 379 121 490 51 180 132 430 139 430 4 0 25 -60
48 -132z"/>
<path d="M15150 3310 l0 -1150 200 0 200 0 0 1150 0 1150 -200 0 -200 0 0
-1150z"/>
<path d="M15790 3310 l0 -1150 469 0 c513 0 571 5 719 59 96 35 143 64 206
127 159 162 196 529 78 786 -31 68 -108 176 -148 207 -23 18 -23 19 -5 42 54
71 100 187 121 305 16 88 8 266 -14 347 -42 154 -141 275 -276 340 -159 76
-258 87 -757 87 l-393 0 0 -1150z m790 746 c196 -32 257 -98 248 -268 -8 -137
-55 -200 -179 -239 -51 -16 -92 -19 -255 -19 l-194 0 0 270 0 270 148 0 c81 0
185 -6 232 -14z m98 -941 c126 -30 199 -91 228 -191 19 -65 21 -165 4 -209
-17 -44 -57 -93 -92 -111 -79 -41 -118 -46 -370 -51 l-248 -5 0 291 0 291 208
0 c147 0 225 -5 270 -15z"/>
<path d="M17939 4393 c-26 -59 -135 -373 -182 -528 -31 -99 -136 -493 -176
-655 -90 -369 -201 -929 -201 -1017 l0 -33 204 0 204 0 7 58 c13 114 67 427
74 435 4 4 160 6 346 5 l339 -3 12 -67 c7 -36 25 -147 40 -247 l28 -181 203 0
203 0 0 25 c0 65 -74 465 -149 800 -116 524 -306 1176 -410 1408 l-30 67 -241
0 -241 0 -30 -67z m315 -535 c80 -256 216 -757 216 -797 0 -8 -75 -11 -261
-11 l-261 0 7 38 c34 191 234 892 254 892 4 0 24 -55 45 -122z"/>
<path d="M13990 1530 l0 -200 -27 7 c-16 4 -75 8 -133 8 -114 0 -142 -9 -192
-62 -53 -55 -58 -83 -58 -322 l0 -219 28 -53 c22 -42 38 -58 77 -79 45 -23 60
-25 175 -25 85 0 154 6 218 19 l92 20 0 553 0 553 -90 0 -90 0 0 -200z m-69
-361 l69 -12 0 -197 0 -197 -31 -7 c-60 -12 -154 -7 -177 10 -21 15 -22 20
-22 198 0 192 1 198 45 209 33 8 43 7 116 -4z"/>
<path d="M18160 1530 l0 -200 -32 8 c-18 4 -76 7 -128 7 -79 0 -102 -4 -137
-22 -53 -29 -89 -76 -102 -133 -17 -73 -14 -407 4 -468 19 -62 75 -115 140
-131 81 -20 237 -11 403 25 l32 7 0 553 0 554 -90 0 -90 0 0 -200z m-69 -361
l69 -12 0 -198 0 -198 -45 -7 c-60 -8 -152 -1 -168 15 -8 8 -13 63 -15 168 -4
193 0 218 36 231 36 14 42 14 123 1z"/>
<path d="M8758 1644 c-98 -23 -160 -73 -200 -159 -22 -49 -23 -58 -23 -360 0
-269 2 -316 17 -353 28 -70 65 -109 136 -144 l67 -33 170 0 c105 0 192 5 228
13 l57 13 0 300 0 299 -170 0 -170 0 0 -90 0 -90 80 0 80 0 0 -135 0 -135 -97
1 c-119 0 -160 13 -190 58 -22 33 -23 40 -23 288 0 295 3 312 72 343 56 25
176 26 281 1 42 -10 77 -18 78 -17 6 9 34 178 30 181 -4 2 -44 10 -90 19 -101
19 -255 19 -333 0z"/>
<path d="M15280 1125 l0 -535 310 0 310 0 0 90 0 90 -215 0 -215 0 0 135 0
135 170 0 170 0 0 95 0 95 -170 0 -170 0 0 120 0 120 215 0 216 0 -3 93 -3 92
-307 3 -308 2 0 -535z"/>
<path d="M16660 1440 c0 -89 0 -90 -25 -90 -25 0 -25 -1 -25 -85 0 -83 1 -85
24 -85 l24 0 4 -227 c4 -255 10 -280 71 -327 40 -31 107 -42 191 -32 l57 8 -3
81 -3 82 -62 9 -63 9 0 198 0 199 55 0 55 0 0 85 0 85 -55 0 -55 0 0 90 0 90
-95 0 -95 0 0 -90z"/>
<path d="M9500 1341 c-49 -11 -95 -36 -119 -66 -40 -52 -46 -90 -46 -310 0
-204 1 -211 25 -260 45 -90 128 -121 305 -113 162 7 232 52 255 164 7 35 11
127 8 247 -3 181 -4 195 -28 242 -20 39 -35 55 -74 74 -43 22 -64 25 -170 28
-67 1 -137 -2 -156 -6z m192 -171 c21 -6 42 -19 48 -30 5 -10 10 -88 10 -174
0 -141 -2 -158 -19 -175 -40 -40 -161 -39 -197 0 -16 18 -19 41 -22 163 -2 83
1 152 7 169 19 48 94 69 173 47z"/>
<path d="M9990 1340 c0 -57 125 -513 182 -663 l32 -87 111 0 111 0 42 118 c66
181 172 569 172 626 0 13 -15 16 -88 16 l-87 0 -38 -162 c-20 -90 -53 -215
-73 -278 l-36 -114 -13 32 c-21 49 -69 222 -106 380 l-33 142 -88 0 c-53 0
-88 -4 -88 -10z"/>
<path d="M10848 1337 c-67 -19 -97 -43 -121 -95 -20 -44 -22 -63 -22 -267 0
-230 5 -267 47 -320 40 -51 92 -68 218 -73 117 -4 282 16 303 37 9 9 -4 155
-15 166 -2 2 -33 -3 -68 -12 -36 -8 -111 -16 -166 -17 -122 -1 -144 11 -144
78 l0 41 143 0 c78 0 172 4 210 8 l67 9 0 127 c0 192 -31 267 -130 309 -48 21
-258 26 -322 9z m229 -172 c24 -17 48 -78 39 -100 -4 -12 -29 -15 -122 -15
l-117 0 6 42 c8 63 42 88 115 88 35 0 66 -6 79 -15z"/>
<path d="M11590 1339 c-36 -5 -94 -14 -130 -22 l-65 -13 -3 -357 -2 -357 90 0
90 0 0 285 c0 263 1 286 18 293 9 4 56 7 105 7 l87 0 0 88 0 87 -62 -1 c-35
-1 -92 -5 -128 -10z"/>
<path d="M12070 1340 c-30 -5 -82 -15 -115 -23 l-60 -14 -3 -356 -2 -357 85 0
85 0 0 284 c0 185 4 287 10 291 6 4 43 9 83 12 57 4 80 2 105 -11 l32 -17 0
-279 0 -280 90 0 90 0 0 303 c0 297 -1 305 -23 347 -16 31 -38 51 -76 73 -47
27 -64 30 -150 33 -53 2 -121 -1 -151 -6z"/>
<path d="M12755 1341 c-84 -23 -138 -72 -152 -138 -4 -21 -8 -130 -8 -243 0
-222 6 -258 53 -305 49 -49 85 -59 232 -59 192 -1 255 27 292 131 18 53 18
433 0 485 -18 52 -47 85 -95 110 -35 18 -62 22 -167 24 -69 2 -138 -1 -155 -5z
m233 -196 c21 -25 22 -35 22 -175 0 -140 -1 -150 -22 -175 -45 -50 -182 -43
-207 11 -6 15 -11 82 -11 168 0 129 2 146 20 169 24 31 47 37 120 32 44 -3 59
-9 78 -30z"/>
<path d="M14428 1337 c-64 -19 -94 -41 -120 -90 -22 -40 -23 -52 -23 -277 0
-232 0 -236 25 -280 19 -33 38 -51 75 -70 46 -23 61 -25 190 -24 121 0 146 3
186 21 94 43 109 92 109 359 0 260 -12 298 -105 347 -33 17 -62 21 -165 24
-82 2 -141 -2 -172 -10z m222 -175 c44 -22 48 -38 48 -192 0 -154 -4 -170 -48
-192 -59 -30 -159 -18 -180 22 -15 28 -13 322 3 343 26 37 122 47 177 19z"/>
<path d="M16169 1341 c-115 -23 -179 -106 -179 -231 0 -50 27 -116 56 -142 30
-26 100 -54 197 -79 49 -12 97 -29 108 -38 18 -15 19 -20 8 -44 -12 -27 -20
-31 -83 -40 -36 -6 -155 9 -218 28 -46 13 -48 13 -53 -8 -3 -12 -7 -53 -8 -91
l-2 -69 50 -15 c31 -9 101 -15 185 -16 149 -1 199 11 253 62 43 41 58 77 64
156 4 61 1 77 -19 116 -19 37 -34 51 -84 75 -33 17 -101 41 -152 54 -99 25
-125 43 -111 78 14 38 77 48 194 30 55 -9 108 -19 117 -22 13 -5 18 8 28 79 7
48 11 89 8 92 -3 3 -41 12 -84 19 -83 15 -214 18 -275 6z"/>
<path d="M17220 1341 c-25 -5 -65 -14 -88 -21 -38 -10 -43 -14 -39 -33 3 -12
9 -51 13 -85 7 -62 7 -64 33 -58 258 57 321 42 321 -76 0 -37 -2 -40 -22 -34
-13 3 -59 9 -104 12 -107 9 -179 -12 -228 -67 -41 -44 -56 -92 -56 -175 0 -89
38 -160 105 -194 45 -23 61 -25 175 -25 121 0 282 24 304 45 5 5 7 130 4 282
-4 227 -8 280 -22 313 -39 90 -91 117 -241 121 -60 2 -130 -1 -155 -5z m230
-486 c5 -3 10 -26 10 -49 0 -41 -2 -44 -31 -50 -60 -12 -154 -7 -177 10 -28
19 -31 78 -4 94 17 11 182 7 202 -5z"/>
<path d="M18615 1341 c-90 -25 -137 -71 -154 -151 -14 -66 -14 -374 0 -440 13
-60 55 -113 108 -137 54 -25 289 -25 353 0 54 21 90 59 110 114 18 53 18 433
0 485 -18 52 -47 85 -95 110 -35 18 -62 22 -167 24 -69 2 -138 -1 -155 -5z
m229 -191 c20 -19 21 -32 21 -180 0 -147 -2 -161 -21 -180 -25 -26 -108 -37
-156 -21 -51 17 -58 42 -58 205 0 129 2 146 20 169 24 31 47 37 119 32 38 -3
61 -10 75 -25z"/>
</g>
</svg>
