<?xml version="1.0" standalone="no"?>
<!DOCTYPE svg PUBLIC "-//W3C//DTD SVG 20010904//EN"
 "http://www.w3.org/TR/2001/REC-SVG-20010904/DTD/svg10.dtd">
<svg version="1.0" xmlns="http://www.w3.org/2000/svg"
 width="600.000000pt" height="315.000000pt" viewBox="0 0 600.000000 315.000000"
 preserveAspectRatio="xMidYMid meet">

<g transform="translate(0.000000,315.000000) scale(0.100000,-0.100000)"
fill="#fff" stroke="none">
<path d="M906 2434 c-9 -20 -14 -39 -11 -42 2 -3 10 9 16 26 6 18 14 32 18 32
6 0 31 -57 31 -71 0 -2 -19 -4 -42 -5 -24 0 -54 -4 -67 -7 -13 -3 -41 -7 -62
-9 -42 -2 -47 -9 -24 -28 13 -11 14 -10 10 2 -5 12 3 17 34 20 23 2 42 -1 44
-6 2 -5 14 -2 27 7 32 23 62 21 94 -4 20 -16 26 -29 26 -58 0 -66 -60 -97
-117 -61 -18 11 -33 26 -33 33 0 7 -13 23 -30 35 -36 27 -41 18 -5 -10 14 -11
25 -25 25 -31 0 -12 30 -36 59 -47 8 -4 -1 -15 -27 -33 -28 -18 -42 -23 -45
-14 -3 7 -6 4 -6 -5 -1 -24 0 -23 59 13 l50 31 51 -32 c27 -18 52 -30 55 -27
3 3 -1 31 -10 61 l-16 56 41 37 c23 21 45 40 50 41 26 10 3 22 -42 22 -66 0
-84 11 -104 65 -10 25 -21 45 -25 45 -3 0 -14 -16 -24 -36z m151 -120 c-21
-20 -40 -34 -41 -32 -2 1 -6 18 -9 36 l-6 32 47 0 47 -1 -38 -35z m-39 -114
c5 -22 8 -40 5 -40 -3 0 -21 9 -39 21 l-34 21 22 19 c32 26 34 24 46 -21z"/>
<path d="M907 2332 c-12 -2 -16 -9 -13 -19 4 -9 1 -22 -5 -30 -14 -17 -4 -29
31 -37 40 -10 51 4 38 46 -12 39 -22 47 -51 40z"/>
<path d="M831 2204 c0 -11 3 -14 6 -6 3 7 2 16 -1 19 -3 4 -6 -2 -5 -13z"/>
<path d="M224 2168 c-9 -17 -27 -62 -39 -99 -19 -54 -21 -69 -10 -80 7 -8 15
-27 19 -44 l6 -30 -23 28 c-36 42 -47 32 -21 -20 13 -25 22 -49 19 -51 -3 -3
-19 4 -35 17 -17 12 -30 19 -30 17 0 -14 24 -56 32 -56 5 0 6 5 2 12 -4 7 -3
8 5 4 6 -4 9 -11 6 -16 -3 -5 0 -20 7 -35 10 -22 9 -28 -2 -35 -9 -5 -20 -4
-28 2 -10 9 -18 9 -32 0 -16 -10 -18 -9 -14 3 7 18 35 19 53 3 11 -11 13 -10
9 2 -6 19 -58 26 -69 8 -5 -7 -8 -38 -7 -68 1 -49 2 -50 5 -13 5 50 36 69 60
37 16 -21 56 -145 49 -151 -2 -3 -14 5 -26 17 -23 23 -61 24 -68 0 -5 -13 -3
-13 12 -1 14 12 19 12 29 1 9 -10 9 -11 -1 -6 -7 4 -18 3 -25 -2 -7 -6 -16
-10 -22 -11 -13 0 -23 -36 -23 -86 l-1 -40 14 46 c8 25 23 53 34 63 18 16 20
16 39 -4 17 -19 62 -123 62 -145 0 -4 -11 0 -25 9 -40 26 -82 21 -100 -14 -17
-32 -20 -137 -5 -160 7 -11 10 0 10 38 0 59 22 122 43 122 21 0 53 -39 86
-105 33 -63 37 -80 21 -70 -6 4 -23 9 -37 11 -15 3 -30 10 -34 16 -13 20 -44
3 -55 -32 -6 -18 -19 -37 -30 -40 -16 -6 -16 -7 3 -12 16 -4 23 -15 25 -44 l4
-39 8 33 c5 17 14 32 20 32 6 0 38 -13 71 -29 l60 -29 -45 -2 -45 -1 38 -14
c21 -8 45 -12 55 -9 13 4 14 3 4 -4 -10 -7 -6 -12 17 -21 16 -7 32 -19 35 -26
2 -7 27 -18 55 -25 30 -7 55 -20 61 -30 16 -30 12 -31 -26 -5 -20 14 -54 30
-75 37 -21 6 -36 15 -32 21 4 6 -5 8 -26 4 -18 -4 -30 -3 -27 1 5 9 -80 -1
-89 -10 -3 -3 25 -8 63 -11 42 -3 91 -16 128 -32 67 -31 58 -45 -13 -21 -53
18 -115 21 -144 6 -33 -18 -21 -25 43 -26 34 0 63 -5 65 -11 2 -5 16 -8 31 -5
15 3 24 2 21 -2 -3 -3 -19 -7 -35 -8 -31 -2 -54 -14 -54 -29 0 -5 13 -3 30 6
28 14 120 21 120 9 0 -3 -10 -14 -23 -25 -17 -14 -38 -18 -97 -18 -41 0 -94 4
-117 8 -24 5 -43 5 -43 2 0 -4 13 -20 30 -36 17 -16 30 -32 30 -37 0 -4 -16
-16 -36 -26 l-37 -19 58 -11 c88 -18 210 -14 324 9 83 17 108 18 136 9 21 -7
56 -9 89 -5 35 5 61 3 73 -4 16 -11 15 -11 -6 -5 -17 4 -21 3 -16 -6 5 -9 1
-10 -15 -5 -14 4 -20 3 -17 -3 7 -9 -73 -46 -81 -37 -3 2 6 9 19 14 15 6 18
10 8 10 -24 1 -53 -35 -45 -56 4 -10 10 -13 14 -8 8 13 45 29 134 61 77 28
106 26 236 -20 70 -25 102 -31 102 -22 0 3 -4 16 -9 29 -7 19 -20 27 -48 32
-75 12 -72 27 4 20 43 -3 88 -1 110 5 31 9 55 8 130 -9 104 -23 222 -27 321
-10 53 9 61 13 46 22 -66 34 -66 33 -27 72 20 20 34 38 32 40 -3 2 -22 0 -44
-5 -51 -12 -162 -13 -169 -1 -3 4 -17 6 -31 3 -15 -2 -25 0 -25 7 0 7 4 9 10
6 5 -3 24 1 41 10 17 9 28 12 25 6 -4 -6 -2 -11 4 -11 8 0 10 9 6 26 -5 17 -3
23 4 19 15 -9 12 7 -5 32 -8 11 -30 24 -50 27 -21 4 -35 13 -35 21 0 19 14 19
30 0 16 -19 30 -19 30 0 0 8 5 15 10 15 6 0 10 -4 10 -10 0 -5 11 -10 24 -10
15 0 33 -11 46 -27 20 -26 22 -27 35 -10 13 17 14 17 27 -1 7 -10 18 -21 23
-24 13 -8 13 92 0 112 -15 22 -13 59 3 65 8 3 28 -1 44 -9 29 -15 29 -15 27
12 -1 15 2 35 6 45 4 10 2 23 -5 32 -6 7 -10 24 -8 37 4 27 -38 56 -56 38 -5
-5 -23 -10 -39 -10 -23 0 -31 7 -43 35 -17 41 -11 59 17 52 10 -3 22 -1 25 4
9 15 42 -9 47 -33 2 -13 5 -1 6 26 1 39 -2 47 -11 38 -17 -17 -29 -15 -22 3 4
9 0 15 -10 15 -19 0 -20 8 -4 60 14 43 28 53 28 20 0 -11 4 -20 9 -20 6 0 6
12 2 28 -8 25 -5 31 26 52 26 17 37 20 45 12 9 -9 7 -12 -7 -12 -17 -1 -16 -3
7 -21 16 -12 28 -30 28 -42 0 -21 -1 -21 -13 2 -6 14 -18 26 -25 29 -7 2 -3
-12 10 -35 l23 -38 -25 16 c-14 9 -27 25 -28 35 -7 33 -22 40 -20 9 2 -29 19
-47 65 -72 22 -11 23 -10 23 37 0 27 -5 52 -10 55 -6 4 -10 12 -9 18 3 29 -3
37 -26 37 -14 0 -34 -9 -45 -20 -28 -28 -40 -25 -40 11 0 16 4 28 9 24 6 -3 9
7 8 22 -2 21 3 28 23 33 l25 6 -22 12 c-28 16 -33 15 -33 -3 0 -27 -44 -39
-79 -22 -30 15 -31 15 -37 -9 -4 -15 -13 -24 -26 -24 -13 0 -18 -5 -15 -14 3
-8 1 -16 -6 -19 -6 -2 -12 -20 -13 -40 -1 -34 2 -38 34 -47 19 -5 39 -7 43 -4
4 2 10 0 14 -6 14 -23 25 -7 25 38 0 45 13 82 25 71 10 -11 8 -94 -4 -123 -8
-20 -15 -25 -24 -18 -6 5 -31 9 -54 9 -36 -1 -43 -5 -48 -26 -3 -13 -1 -29 4
-34 17 -17 13 -35 -6 -33 -24 2 -28 -28 -7 -49 14 -13 19 -14 25 -3 7 10 9 10
9 1 0 -7 7 -13 15 -13 8 0 15 5 15 10 0 23 16 8 18 -17 2 -29 -35 -93 -55 -93
-6 0 -20 -3 -30 -6 -15 -5 -15 -3 3 13 12 10 25 27 29 38 5 14 9 16 12 7 3 -9
10 -4 19 14 8 15 12 29 9 32 -3 3 -5 0 -5 -7 0 -7 -5 -9 -12 -5 -6 4 -8 3 -5
-3 4 -6 -2 -13 -13 -16 -14 -3 -28 4 -45 25 -17 20 -25 24 -25 14 0 -9 6 -16
13 -16 8 0 7 -4 -3 -10 -8 -5 -23 -7 -32 -4 -10 3 -18 1 -18 -4 0 -5 10 -9 23
-9 48 -1 57 -4 57 -18 0 -17 -30 -35 -59 -35 -15 0 -21 7 -22 23 0 12 -3 16
-6 9 -9 -24 18 -62 44 -62 33 0 20 -17 -16 -22 -17 -2 -28 -1 -25 3 2 4 0 11
-6 14 -7 4 -10 -3 -8 -22 2 -23 -1 -28 -17 -26 -20 2 -67 -45 -59 -59 3 -5 9
-6 13 -4 4 3 13 0 21 -6 12 -8 12 -9 -2 -4 -10 3 -18 1 -18 -4 0 -5 9 -12 20
-15 26 -8 26 -31 -1 -38 -12 -3 -18 -3 -15 0 8 8 -24 43 -40 43 -15 0 -74 -51
-74 -64 0 -14 33 -35 55 -35 l20 0 -20 9 c-23 10 -21 11 20 15 17 2 24 1 17
-2 -6 -3 -10 -9 -6 -14 3 -5 -9 -23 -26 -41 l-32 -31 -25 31 c-41 53 -85 44
-196 -41 -42 -32 -51 -35 -116 -35 -57 0 -77 4 -101 22 -17 11 -48 34 -69 49
-49 35 -111 46 -130 23 -10 -12 -17 -14 -27 -5 -11 9 -14 8 -14 -6 0 -10 -14
2 -35 31 -48 67 -74 122 -76 164 -2 33 -2 33 -6 6 -6 -38 -28 -62 -37 -40 -3
9 -6 24 -6 35 0 10 -5 19 -10 19 -6 0 -8 -11 -4 -26 5 -18 3 -25 -4 -20 -6 3
-16 31 -23 62 -15 65 -5 83 32 63 23 -12 23 -12 8 12 -9 13 -25 26 -35 28 -22
4 -44 -24 -37 -49 3 -11 1 -20 -5 -20 -16 0 -32 65 -33 130 0 47 -2 51 -10 30
-6 -14 -8 -33 -5 -44 5 -18 4 -18 -11 -3 -26 25 -31 132 -8 157 17 19 19 19
37 4 10 -10 18 -23 18 -30 0 -21 31 -94 40 -94 6 0 -9 59 -28 110 -3 8 -4 19
-3 23 1 5 -4 5 -10 1 -9 -5 -10 -2 -6 9 3 9 1 19 -5 23 -7 4 -8 3 -4 -4 10
-16 -17 -15 -32 0 -9 9 -15 9 -24 0 -24 -24 -31 -11 -25 54 3 49 10 72 25 87
18 17 23 18 36 7 9 -7 16 -22 16 -34 0 -12 7 -31 15 -42 14 -18 15 -17 9 11
-4 17 -10 39 -14 50 -4 11 -5 26 -3 33 3 6 0 12 -7 12 -6 0 -8 -6 -5 -12 4 -7
0 -5 -8 5 -8 9 -22 17 -31 17 -20 0 -20 9 0 39 11 15 23 21 35 18 11 -3 16 -1
13 5 -8 13 -54 1 -78 -20 -18 -16 -19 -16 -12 13 18 75 52 109 86 87 11 -7 20
-8 20 -2 0 5 -10 12 -22 15 -32 8 -74 0 -71 -14 2 -6 -2 -11 -7 -11 -13 0 -13
36 1 63 6 12 25 37 42 55 17 17 27 32 21 32 -16 0 -74 -39 -74 -50 0 -5 -4
-10 -10 -10 -5 0 -10 15 -10 33 0 26 6 36 25 45 26 12 26 12 29 132 3 88 -11
104 -40 48z m-14 -325 c0 -30 -3 -44 -10 -37 -8 8 -3 84 6 84 2 0 4 -21 4 -47z
m0 -100 c0 -55 -5 -54 -14 5 -4 26 -2 42 4 42 5 0 10 -21 10 -47z m6 -76 c1
-7 5 -24 9 -38 5 -19 2 -28 -9 -32 -13 -5 -16 2 -16 45 0 45 10 61 16 25z
m1443 -48 c-7 -4 -17 -5 -22 -2 -5 3 -3 9 4 14 7 4 17 5 22 2 5 -3 3 -9 -4
-14z m-55 5 c9 -3 16 -14 16 -23 0 -20 -36 -45 -45 -31 -3 6 0 10 7 11 7 0 0
7 -17 15 l-30 15 29 -6 c26 -6 28 -4 17 9 -14 17 -5 21 23 10z m-1380 -101 c5
-36 3 -53 -4 -53 -6 0 -9 4 -6 8 3 4 1 26 -4 47 -5 21 -6 43 -3 48 8 13 10 7
17 -50z m1341 18 c7 -19 -8 -34 -31 -29 -23 4 -14 24 10 20 11 -2 16 1 12 7
-4 6 -14 11 -22 11 -8 0 -14 7 -14 15 0 13 3 13 20 3 11 -7 22 -19 25 -27z
m22 -103 c-3 -8 -6 -5 -6 6 -1 11 2 17 5 13 3 -3 4 -12 1 -19z m-1479 -8 c-7
-10 -14 -17 -17 -15 -4 4 18 35 25 35 2 0 -1 -9 -8 -20z m138 -30 c6 -28 8
-53 4 -55 -4 -3 -10 12 -13 33 -3 20 -8 45 -12 55 -4 9 -3 17 2 17 5 0 14 -23
19 -50z m1312 25 c-3 -3 -9 2 -12 12 -6 14 -5 15 5 6 7 -7 10 -15 7 -18z m72
-5 c0 -5 -2 -10 -4 -10 -3 0 -8 5 -11 10 -3 6 -1 10 4 10 6 0 11 -4 11 -10z
m-1412 -45 c-3 -3 -13 7 -23 22 l-17 28 23 -22 c12 -12 20 -25 17 -28z m1409
9 c-3 -3 -12 -4 -19 -1 -8 3 -5 6 6 6 11 1 17 -2 13 -5z m-1349 -105 c17 -53
8 -63 -12 -14 -18 42 -20 55 -8 55 4 0 13 -19 20 -41z m-135 -17 c-10 -10 -20
-17 -22 -16 -6 5 20 34 30 34 5 0 1 -8 -8 -18z m1497 2 c0 -2 -9 -4 -20 -4
-11 0 -20 4 -20 9 0 5 9 7 20 4 11 -3 20 -7 20 -9z m75 -13 c-3 -11 1 -25 10
-35 10 -10 13 -24 9 -41 -7 -30 -24 -24 -24 9 0 13 -9 30 -21 37 -25 17 -17
49 13 49 14 0 18 -5 13 -19z m-1495 -27 c22 -20 39 -38 38 -40 -4 -4 -107 31
-115 39 -7 8 15 37 28 37 5 0 27 -16 49 -36z m1364 -8 c-9 -15 -19 -24 -22
-22 -2 3 3 17 12 32 10 14 20 23 23 21 2 -3 -3 -17 -13 -31z m90 -12 c9 -23 7
-44 -4 -44 -5 0 -7 6 -4 14 3 7 -2 16 -10 19 -10 4 -16 1 -16 -8 0 -8 -4 -15
-10 -15 -17 0 -11 28 8 39 24 14 29 13 36 -5z m-1359 -14 c3 -11 13 -26 21
-34 8 -8 10 -17 5 -20 -8 -5 -51 52 -51 68 0 15 19 4 25 -14z m-105 -6 c23 -9
39 -18 37 -20 -2 -2 -25 5 -53 16 -27 10 -43 19 -37 20 7 0 31 -7 53 -16z
m1317 -26 c-8 -5 -6 -9 6 -14 9 -3 17 -12 17 -19 0 -22 -41 -65 -61 -65 -13 0
-18 -4 -13 -12 4 -7 -7 2 -25 20 -36 38 -36 40 -15 70 11 15 25 22 50 22 26 0
34 4 34 18 0 14 2 15 10 2 6 -9 5 -17 -3 -22z m-1242 -16 c-3 -3 -11 0 -18 7
-9 10 -8 11 6 5 10 -3 15 -9 12 -12z m1367 -17 c-2 -14 -8 -25 -13 -25 -5 0
-6 7 -3 15 4 9 0 15 -7 16 -8 0 -5 4 6 9 11 5 21 9 21 9 1 1 -1 -10 -4 -24z
m-238 -38 c20 -29 24 -42 16 -56 -5 -10 -7 -20 -5 -23 2 -2 -4 -4 -14 -5 -17
-1 -18 2 -9 33 7 28 6 41 -6 59 -9 14 -16 27 -16 31 0 10 5 4 34 -39z m-1031
-2 c14 -30 15 -35 2 -35 -8 0 -15 6 -15 14 0 7 -7 19 -15 26 -8 7 -12 16 -9
21 10 16 20 9 37 -26z m1245 -1 c37 -18 44 -28 47 -66 3 -34 -10 -46 -18 -17
-4 15 -11 20 -21 16 -10 -4 -16 -1 -16 8 0 20 -19 29 -34 16 -14 -12 -43 -11
-65 3 -11 7 -11 10 3 18 13 7 21 5 31 -9 14 -17 14 -17 15 5 0 23 14 30 25 12
3 -5 13 -10 21 -10 20 0 8 19 -20 30 -11 5 -16 9 -10 9 6 1 25 -6 42 -15z
m-1292 -10 c18 -14 18 -14 -6 -3 -31 14 -36 19 -24 19 6 0 19 -7 30 -16z m168
-83 c-9 -10 -34 31 -34 56 1 27 1 26 19 -12 10 -22 17 -42 15 -44z m1106 14
c14 -19 14 -19 -2 -6 -10 7 -18 18 -18 24 0 6 1 8 3 6 1 -2 9 -13 17 -24z
m-275 5 c-3 -5 -11 -10 -16 -10 -6 0 -7 5 -4 10 3 6 11 10 16 10 6 0 7 -4 4
-10z m104 -33 c17 1 20 -1 10 -8 -8 -4 -23 -6 -35 -3 -14 4 -23 0 -27 -10 -4
-9 -14 -16 -23 -16 -10 0 -14 -5 -10 -15 4 -11 -1 -15 -17 -14 -12 0 -16 3 -9
6 6 2 12 11 12 19 0 8 7 14 15 14 8 0 15 9 15 21 0 17 4 19 23 13 12 -5 33 -8
46 -7z m-1104 -13 c17 -8 21 -11 10 -8 -11 3 -45 10 -75 14 l-55 7 45 1 c25 1
59 -6 75 -14z m1165 2 c0 -2 -7 -6 -15 -10 -8 -3 -15 -1 -15 4 0 6 7 10 15 10
8 0 15 -2 15 -4z m-90 -61 c0 -8 -7 -15 -15 -15 -26 0 -18 20 13 29 1 1 2 -6
2 -14z m-872 -2 c-10 -2 -26 -2 -35 0 -10 3 -2 5 17 5 19 0 27 -2 18 -5z m169
-68 c-1 -19 -4 -35 -8 -35 -8 0 -19 52 -12 62 11 19 21 5 20 -27z m513 2 c0
-25 -4 -33 -19 -34 -35 -3 -37 51 -3 60 10 3 18 5 20 6 1 0 2 -14 2 -32z
m-717 1 c13 -19 16 -20 16 -5 1 11 9 17 27 17 23 0 25 -3 22 -32 -3 -36 -38
-55 -38 -21 0 14 -2 15 -9 4 -6 -9 -11 -10 -15 -2 -5 8 -13 8 -27 1 -16 -9
-19 -7 -19 9 0 25 10 51 20 51 4 0 15 -10 23 -22z m171 -1 c7 -27 6 -28 -44
-31 -28 -2 -43 1 -47 10 -10 28 5 41 45 41 32 0 41 -4 46 -20z m84 11 c7 -7
12 -17 12 -24 0 -19 -32 -26 -48 -10 -13 12 -13 18 -2 30 15 19 22 20 38 4z
m588 -4 c-3 -9 -6 -24 -6 -35 0 -29 -17 -23 -23 8 -3 16 0 31 6 35 20 13 30 9
23 -8z m-1041 -25 c2 -13 -2 -29 -7 -36 -10 -13 -38 -7 -38 9 0 6 7 8 15 4 8
-3 15 -1 15 4 0 6 -7 10 -15 10 -18 0 -19 12 -3 28 17 17 31 10 33 -19z m968
18 c8 -20 -9 -41 -27 -34 -23 9 -21 47 3 47 10 0 21 -6 24 -13z m176 -8 c2 -8
5 -8 11 1 5 8 15 10 26 5 14 -5 15 -9 5 -12 -10 -4 -11 -7 -1 -13 7 -4 10 -15
7 -24 -5 -12 -17 -15 -49 -12 -24 2 -45 5 -48 6 -3 1 -14 3 -25 4 -11 0 -20 7
-19 14 1 6 2 21 3 32 1 18 6 20 43 16 24 -3 44 -10 47 -17z m-1069 3 c0 -5 10
-8 23 -8 16 1 23 -5 25 -23 3 -21 0 -23 -22 -19 -14 3 -26 1 -26 -4 0 -5 -10
-8 -22 -6 -29 4 -36 37 -12 55 20 15 34 17 34 5z"/>
<path d="M1430 1115 c0 -5 5 -17 10 -25 5 -8 10 -10 10 -5 0 6 -5 17 -10 25
-5 8 -10 11 -10 5z"/>
<path d="M730 830 c0 -5 5 -10 10 -10 6 0 10 5 10 10 0 6 -4 10 -10 10 -5 0
-10 -4 -10 -10z"/>
<path d="M1395 820 c3 -5 8 -10 11 -10 2 0 4 5 4 10 0 6 -5 10 -11 10 -5 0 -7
-4 -4 -10z"/>
<path d="M1458 793 c7 -3 16 -2 19 1 4 3 -2 6 -13 5 -11 0 -14 -3 -6 -6z"/>
<path d="M1595 2152 c-22 -16 -15 -48 20 -82 35 -34 43 -50 25 -50 -5 0 -10 6
-10 14 0 18 -23 27 -41 15 -11 -7 -9 -9 8 -9 16 0 20 -5 16 -20 -6 -23 -23
-26 -43 -7 -12 10 -12 9 -1 -5 8 -11 27 -18 47 -18 26 0 34 -4 34 -17 0 -12 8
-18 25 -19 14 -1 25 3 25 8 0 6 7 5 16 -3 13 -10 17 -10 24 0 5 8 13 10 21 5
11 -6 12 -5 3 7 -6 8 -11 27 -10 42 2 35 -6 41 -58 39 -23 -1 -36 2 -29 6 14
9 11 48 -6 80 -12 22 -46 29 -66 14z m51 -17 c6 -14 -11 -45 -25 -45 -19 1
-32 20 -26 39 7 24 43 29 51 6z m7 -55 c-3 -11 -9 -17 -15 -14 -5 3 -4 12 3
20 16 19 18 18 12 -6z m88 -67 c7 -19 5 -23 -11 -23 -10 0 -22 5 -25 10 -4 6
-11 7 -17 4 -6 -4 -5 3 2 15 14 27 40 24 51 -6z"/>
<path d="M2332 2105 c-146 -45 -224 -219 -178 -394 28 -104 101 -178 198 -201
55 -14 175 -9 221 9 l28 11 -3 156 -3 156 -95 0 -95 0 0 -39 0 -38 48 -3 48
-3 -3 -82 -3 -82 -52 -3 c-68 -4 -117 19 -151 70 -21 32 -26 54 -30 123 -6
120 25 192 99 230 36 19 130 19 176 0 20 -8 37 -14 39 -13 1 2 4 23 5 48 4 44
3 45 -36 56 -53 16 -160 16 -213 -1z"/>
<path d="M2810 2107 c-52 -17 -114 -84 -136 -148 -27 -76 -26 -224 1 -299 52
-142 202 -201 328 -127 87 51 134 167 124 307 -10 136 -54 215 -141 256 -55
26 -117 30 -176 11z m151 -103 c36 -34 54 -102 53 -199 -1 -93 -16 -149 -52
-187 -52 -57 -130 -41 -173 35 -21 38 -24 54 -24 157 0 103 3 119 24 157 43
75 116 91 172 37z"/>
<path d="M5066 2105 c-52 -18 -100 -67 -128 -129 -20 -44 -23 -67 -23 -166 0
-100 3 -122 24 -167 92 -205 364 -184 427 34 22 74 21 193 -1 268 -39 134
-172 206 -299 160z m156 -105 c39 -42 51 -99 46 -216 -5 -118 -23 -159 -81
-187 -70 -35 -133 8 -158 106 -17 69 -8 214 17 263 39 76 123 93 176 34z"/>
<path d="M850 2094 c-112 -35 -272 -38 -417 -8 l-33 7 0 -284 c0 -404 20 -507
124 -653 72 -101 156 -171 281 -232 60 -30 116 -54 124 -54 7 0 55 20 105 43
216 103 342 251 396 463 18 69 20 112 20 396 0 248 -3 318 -12 318 -10 0 -12
-68 -10 -314 2 -249 0 -328 -12 -386 -41 -197 -166 -343 -388 -454 l-109 -54
-112 55 c-97 49 -123 67 -198 142 -66 66 -95 104 -122 161 -64 130 -67 157
-67 516 l0 321 73 -14 c94 -19 267 -11 362 16 l70 20 75 -22 c62 -18 100 -21
215 -21 77 1 154 6 170 12 25 9 18 10 -35 4 -108 -12 -230 -5 -323 17 -101 24
-115 24 -177 5z"/>
<path d="M3137 2028 c13 -46 37 -126 53 -178 15 -52 44 -148 64 -212 20 -65
36 -120 36 -123 0 -3 26 -5 58 -5 l58 0 82 268 c45 147 86 282 91 300 l10 33
-56 -3 c-53 -3 -57 -5 -65 -33 -5 -16 -28 -106 -53 -200 -59 -224 -56 -215
-65 -215 -5 0 -12 15 -15 33 -7 30 -71 280 -96 375 l-12 42 -57 0 -58 0 25
-82z"/>
<path d="M3610 1810 l0 -300 160 0 160 0 0 45 0 45 -105 0 -106 0 3 88 3 87
98 3 97 3 0 39 0 40 -100 0 -100 0 0 80 0 79 103 3 102 3 3 43 3 42 -160 0
-161 0 0 -300z"/>
<path d="M3990 1810 l0 -300 55 0 55 0 0 130 c0 122 1 130 20 130 10 0 30 -5
44 -11 26 -12 34 -29 79 -169 l24 -75 58 -3 c44 -2 56 0 53 10 -3 7 -22 64
-43 127 -23 70 -47 124 -62 139 -13 13 -23 25 -21 26 50 23 66 38 86 78 29 58
23 113 -16 160 -41 48 -77 58 -212 58 l-120 0 0 -300z m232 190 c27 -33 24
-95 -7 -125 -18 -19 -35 -25 -70 -25 l-45 0 0 91 0 92 52 -5 c38 -4 57 -12 70
-28z"/>
<path d="M4420 1810 l0 -300 50 0 50 0 0 232 c0 128 4 228 8 223 5 -6 35 -73
66 -150 32 -77 74 -177 93 -223 l36 -83 66 3 66 3 3 298 2 297 -55 0 -55 0 0
-232 -1 -233 -98 230 -98 230 -67 3 -66 3 0 -301z"/>
<path d="M810 2039 c0 -5 -7 -9 -15 -9 -12 0 -13 -5 -7 -17 5 -10 7 -25 4 -33
-4 -13 -3 -13 11 -2 9 8 20 11 24 9 5 -3 13 5 19 17 9 19 7 24 -13 33 -13 6
-23 7 -23 2z"/>
<path d="M1020 2039 c0 -5 -7 -9 -15 -9 -12 0 -13 -4 -6 -19 6 -10 7 -22 3
-26 -4 -5 1 -5 12 -1 10 3 26 1 34 -6 13 -11 15 -10 9 6 -4 10 -3 24 2 30 6 8
2 15 -15 23 -13 6 -24 7 -24 2z"/>
<path d="M459 2021 c-8 -9 -14 -26 -15 -37 0 -17 6 -21 27 -20 33 1 43 33 18
57 -15 15 -18 15 -30 0z"/>
<path d="M1370 2030 c0 -6 -10 -15 -22 -20 -13 -5 -17 -9 -10 -9 6 -1 12 -9
12 -18 0 -12 8 -18 24 -18 31 0 39 33 14 58 -10 9 -18 12 -18 7z"/>
<path d="M630 2011 c-22 -23 -14 -49 15 -47 29 1 39 30 16 49 -14 12 -18 12
-31 -2z"/>
<path d="M1177 2006 c-12 -9 -14 -16 -7 -21 5 -3 8 -10 6 -14 -3 -4 8 -8 24
-8 34 0 46 28 19 45 -22 14 -20 15 -42 -2z"/>
<path d="M840 1958 c-50 -12 -115 -20 -192 -21 l-118 -2 0 -215 c0 -235 11
-311 55 -408 54 -117 150 -212 277 -272 l61 -29 81 42 c100 51 208 156 248
239 50 103 59 165 56 413 l-3 225 -115 4 c-69 3 -147 13 -194 26 -44 11 -80
20 -80 19 -1 -1 -35 -10 -76 -21z m-97 -45 c-7 -2 -19 -2 -25 0 -7 3 -2 5 12
5 14 0 19 -2 13 -5z m380 0 c-7 -2 -19 -2 -25 0 -7 3 -2 5 12 5 14 0 19 -2 13
-5z m11 -169 c36 -36 8 -87 -44 -82 -27 2 -37 9 -44 30 -18 51 49 91 88 52z
m-519 -249 c0 -11 -5 -19 -12 -18 -6 1 -17 -4 -23 -12 -10 -13 -8 -15 13 -15
14 0 27 -5 29 -10 4 -13 118 -2 118 11 0 5 -9 13 -20 19 -41 22 -18 30 85 30
71 0 105 4 105 11 0 13 221 3 230 -10 3 -4 14 -11 24 -15 15 -5 17 -9 8 -18
-21 -21 -13 -28 31 -28 53 0 77 13 52 27 -15 9 -15 13 -4 31 19 31 39 28 39
-5 -1 -29 -21 -116 -39 -168 l-11 -30 5 32 c3 26 0 35 -16 44 -16 8 -24 8 -33
-1 -8 -8 -7 -10 5 -5 19 7 34 -21 18 -31 -19 -11 -91 -6 -108 9 -16 14 -61 29
-61 21 0 -3 10 -9 23 -14 17 -8 9 -9 -35 -7 -31 1 -54 -1 -51 -5 2 -5 27 -8
54 -8 35 0 49 -4 47 -12 -6 -16 -59 -29 -73 -18 -7 6 -15 7 -18 3 -7 -7 -57
16 -68 30 -3 5 -9 2 -12 -7 -7 -18 8 -30 28 -22 16 6 35 -48 35 -101 0 -38 16
-45 92 -42 61 2 72 6 60 22 -5 7 -5 25 0 44 6 25 12 30 28 26 11 -3 20 -1 20
5 0 18 -38 20 -58 2 -33 -31 -122 -25 -122 7 0 13 10 15 51 11 41 -4 55 -2 70
13 10 10 21 15 23 10 3 -5 16 -6 30 -4 24 5 50 -17 28 -25 -7 -2 -12 -10 -12
-18 0 -9 5 -12 11 -8 24 14 -11 -33 -55 -76 -57 -56 -150 -117 -197 -131 -34
-11 -43 -8 -110 27 -78 41 -170 123 -211 189 -35 56 -65 140 -73 208 l-7 58
33 -3 c26 -2 34 -8 34 -23z m55 -5 c0 -10 -4 -22 -10 -25 -6 -4 -10 7 -10 25
0 18 4 29 10 25 6 -3 10 -15 10 -25z m545 -9 c3 -5 1 -12 -5 -16 -5 -3 -10 1
-10 9 0 18 6 21 15 7z m-101 -167 c3 -8 2 -12 -4 -9 -6 3 -10 10 -10 16 0 14
7 11 14 -7z m-106 -119 c-3 -3 -9 2 -12 12 -6 14 -5 15 5 6 7 -7 10 -15 7 -18z
m99 3 c-3 -8 -6 -5 -6 6 -1 11 2 17 5 13 3 -3 4 -12 1 -19z m-17 -3 c0 -9 -9
-15 -25 -15 -16 0 -25 6 -25 15 0 9 9 15 25 15 16 0 25 -6 25 -15z"/>
<path d="M913 1463 c-45 -9 -22 -23 38 -23 44 0 60 3 57 13 -5 12 -56 18 -95
10z"/>
<path d="M761 1441 c-6 -10 -8 -21 -4 -24 3 -4 1 -13 -6 -21 -19 -23 -23 -166
-5 -193 8 -13 12 -33 9 -43 -6 -18 -1 -20 43 -20 36 0 52 4 56 16 9 24 7 194
-2 194 -13 0 -32 48 -32 80 0 25 -4 30 -25 30 -13 0 -29 -8 -34 -19z m39 -30
c0 -6 -4 -13 -10 -16 -5 -3 -10 1 -10 9 0 9 5 16 10 16 6 0 10 -4 10 -9z m35
-239 c-10 -11 -12 4 -6 73 l6 70 3 -69 c2 -37 0 -71 -3 -74z"/>
<path d="M861 1391 c-12 -8 -12 -12 -2 -25 18 -22 24 -20 38 9 9 21 9 25 -5
25 -10 0 -23 -4 -31 -9z"/>
<path d="M1106 1391 c-3 -5 0 -11 7 -14 8 -3 14 1 14 9 0 16 -13 19 -21 5z"/>
<path d="M606 1372 c-13 -12 -5 -22 19 -22 14 0 25 4 25 9 0 10 -36 21 -44 13z"/>
<path d="M955 1370 c3 -5 10 -10 16 -10 5 0 9 5 9 10 0 6 -7 10 -16 10 -8 0
-12 -4 -9 -10z"/>
<path d="M660 1275 c0 -9 9 -15 25 -15 16 0 25 6 25 15 0 9 -9 15 -25 15 -16
0 -25 -6 -25 -15z"/>
<path d="M1035 1140 c-4 -6 5 -10 19 -10 14 0 26 5 26 10 0 6 -9 10 -19 10
-11 0 -23 -4 -26 -10z"/>
<path d="M893 1133 c-58 -7 -35 -23 32 -23 62 0 84 11 49 24 -16 6 -23 6 -81
-1z"/>
<path d="M805 1110 c-8 -12 20 -24 35 -15 5 3 10 10 10 16 0 12 -37 12 -45 -1z"/>
<path d="M935 1080 c3 -5 19 -10 35 -10 16 0 32 5 35 10 4 6 -10 10 -35 10
-25 0 -39 -4 -35 -10z"/>
<path d="M1655 1930 c-14 -16 -21 -18 -26 -8 -6 12 -21 13 -91 9 -20 -1 -20
-2 -4 -20 10 -11 16 -26 13 -33 -2 -7 5 -25 15 -40 20 -28 38 -37 38 -17 0 5
-4 7 -10 4 -5 -3 -10 1 -10 9 0 9 -4 16 -10 16 -5 0 -10 8 -10 18 1 15 3 14
19 -5 10 -12 21 -19 25 -16 3 4 6 0 6 -8 0 -11 2 -11 10 1 9 13 10 13 10 0 0
-13 1 -13 10 0 7 10 10 11 10 2 0 -7 -6 -15 -13 -18 -8 -3 -11 -18 -9 -44 3
-31 1 -40 -11 -40 -9 0 -19 5 -22 10 -4 6 -11 8 -16 5 -5 -3 -6 1 -3 9 4 10
-5 20 -26 31 -35 18 -49 15 -25 -5 8 -7 15 -20 15 -30 0 -9 9 -25 20 -35 11
-10 20 -25 21 -34 0 -10 3 -8 9 7 10 24 25 27 67 11 23 -8 26 -8 16 2 -7 7
-13 16 -13 20 0 13 31 39 46 39 17 0 54 -41 69 -78 11 -27 12 -27 23 -6 9 17
8 32 -4 68 -13 37 -20 46 -39 46 -13 0 -27 -4 -30 -10 -8 -13 -35 -13 -35 -1
0 5 16 19 35 31 19 12 35 28 35 36 0 23 -42 74 -61 74 -10 0 -19 5 -21 11 -2
6 -12 1 -23 -11z m-75 -11 c0 -6 8 -8 19 -4 20 6 38 -20 20 -30 -5 -4 -8 -1
-7 6 3 15 -33 19 -43 5 -4 -4 -10 -3 -13 3 -4 6 -2 11 4 11 6 0 8 5 5 10 -3 6
-1 10 4 10 6 0 11 -5 11 -11z m150 -23 c26 -29 23 -46 -13 -65 -21 -11 -29
-12 -42 -1 -8 7 -15 19 -15 26 0 8 -4 14 -10 14 -19 0 -10 31 13 40 34 14 42
12 67 -14z m-59 -90 c5 3 9 -4 9 -16 0 -12 -4 -18 -10 -15 -5 3 -10 -3 -10
-14 0 -12 -4 -21 -10 -21 -11 0 -14 63 -3 74 4 4 9 2 11 -3 2 -6 8 -9 13 -5z
m97 -53 c44 -65 41 -72 -7 -13 -17 22 -28 40 -22 40 5 0 18 -12 29 -27z"/>
<path d="M459 1764 c-7 -9 -13 -26 -14 -38 0 -19 4 -23 27 -22 33 1 42 33 17
58 -16 15 -19 15 -30 2z"/>
<path d="M1357 1762 c-19 -23 -7 -57 21 -58 14 0 21 4 18 11 -2 7 -1 16 3 21
5 5 0 17 -10 26 -16 15 -18 15 -32 0z"/>
<path d="M454 1503 c-13 -10 -15 -16 -7 -24 6 -6 9 -19 6 -28 -5 -13 -3 -14 7
-4 9 8 19 9 31 2 15 -7 17 -6 13 6 -4 8 -2 21 4 28 17 20 -30 38 -54 20z"/>
<path d="M1361 1513 c-1 -7 -8 -13 -17 -13 -13 0 -14 -3 -4 -15 7 -8 10 -21 7
-28 -9 -25 37 -7 50 19 10 21 9 24 -7 24 -10 0 -21 6 -23 13 -4 10 -6 10 -6 0z"/>
<path d="M4970 1463 c-7 -16 -19 -43 -26 -60 l-14 -33 33 0 c29 0 38 7 75 60
l41 60 -48 0 c-42 0 -49 -3 -61 -27z"/>
<path d="M2150 1035 l0 -308 113 6 c145 8 180 20 243 82 61 61 84 120 84 220
0 95 -22 167 -68 217 -57 64 -106 80 -249 86 l-123 5 0 -308z m241 192 c107
-70 110 -305 6 -381 -20 -15 -44 -21 -85 -21 l-57 0 -3 213 -2 212 53 0 c39 0
63 -6 88 -23z"/>
<path d="M2647 1048 c-54 -161 -98 -299 -97 -305 0 -9 17 -13 48 -13 l49 0 22
75 22 75 103 0 104 0 9 -27 c6 -16 17 -48 25 -73 15 -45 15 -45 66 -48 39 -2
52 0 52 11 0 7 -39 133 -86 278 -47 145 -89 275 -93 289 -7 23 -13 25 -67 28
l-59 3 -98 -293z m192 61 c17 -64 31 -123 31 -132 0 -14 -12 -17 -76 -17 l-76
0 6 34 c4 19 15 61 25 93 10 32 25 79 32 105 7 26 16 44 20 40 4 -4 21 -59 38
-123z"/>
<path d="M3202 1039 l3 -304 50 0 50 0 3 116 3 116 68 5 c43 3 82 13 103 25
105 61 105 255 -2 317 -28 17 -57 21 -157 24 l-123 4 2 -303z m225 189 c18
-17 23 -32 23 -73 0 -66 -25 -93 -90 -97 l-45 -3 -3 98 -3 97 47 0 c35 0 54
-6 71 -22z"/>
<path d="M3586 1048 c-55 -161 -101 -299 -103 -305 -4 -10 10 -13 50 -13 l56
0 16 58 c9 31 18 65 21 75 5 16 17 17 112 15 l106 -3 21 -70 21 -70 52 -3 c34
-2 52 1 52 8 0 7 -32 112 -71 233 -39 122 -81 254 -93 292 l-23 70 -59 3 -60
3 -98 -293z m203 30 c16 -59 26 -109 23 -113 -9 -8 -152 -6 -152 3 0 10 67
240 76 262 7 17 9 13 53 -152z"/>
<path d="M4012 1039 l3 -304 53 -3 52 -3 0 130 0 131 33 0 c47 0 71 -30 97
-120 12 -41 26 -90 32 -108 l10 -33 101 3 101 3 21 70 21 70 106 3 106 3 17
-58 c9 -32 18 -66 21 -75 4 -14 17 -18 60 -18 30 0 54 4 54 9 0 4 -39 127 -86
272 -47 145 -90 279 -95 297 -10 31 -12 32 -69 32 l-58 0 -51 -152 c-92 -275
-138 -408 -144 -414 -3 -3 -15 28 -27 68 -31 100 -65 174 -84 185 -14 8 -11
12 18 26 72 34 98 150 49 216 -41 53 -76 65 -215 69 l-128 4 2 -303z m234 190
c9 -10 17 -36 18 -59 1 -55 -32 -88 -94 -92 l-45 -3 -3 87 -3 87 33 3 c49 4
75 -2 94 -23z m414 -14 c0 -8 14 -63 30 -122 17 -58 30 -112 30 -120 0 -10
-19 -13 -73 -13 -41 0 -76 2 -79 5 -3 3 8 48 23 100 15 52 33 113 39 135 10
38 30 47 30 15z"/>
<path d="M4922 1038 l3 -303 53 -3 52 -3 0 305 0 306 -55 0 -55 0 2 -302z"/>
<path d="M5090 1036 l0 -306 93 0 c156 1 206 19 255 90 44 65 17 183 -47 210
-38 15 -39 23 -6 40 40 22 57 57 57 120 0 114 -41 141 -224 148 l-128 5 0
-307z m210 209 c34 -17 44 -44 35 -91 -8 -43 -43 -67 -98 -68 l-42 -1 -3 74
c-2 41 -1 80 2 88 7 18 70 17 106 -2z m-17 -246 c50 -14 71 -47 64 -102 -8
-57 -34 -77 -103 -77 l-54 0 0 88 c0 49 3 92 7 95 9 10 42 8 86 -4z"/>
<path d="M5543 1048 c-54 -161 -100 -299 -101 -306 -3 -10 10 -12 50 -10 l53
3 23 73 24 72 104 0 c75 0 106 -4 109 -12 2 -7 12 -40 22 -73 l18 -60 53 -3
c28 -2 52 1 52 6 0 5 -17 63 -39 128 -21 65 -64 199 -96 297 l-56 177 -59 0
-58 0 -99 -292z m194 69 c17 -68 33 -129 35 -137 2 -12 -13 -16 -76 -18 l-78
-3 5 28 c9 49 70 253 76 253 3 0 20 -55 38 -123z"/>
<path d="M540 1250 c-21 -22 -11 -55 18 -56 15 0 22 5 22 17 0 9 6 20 13 22 7
3 5 6 -5 6 -9 1 -21 7 -25 14 -6 11 -11 10 -23 -3z"/>
<path d="M1280 1250 c0 -5 -8 -10 -17 -10 -15 0 -15 -2 -4 -9 8 -5 12 -15 9
-22 -4 -10 3 -14 22 -15 22 -1 26 3 23 18 -3 11 0 18 8 18 8 0 5 6 -7 15 -23
17 -34 19 -34 5z"/>
<path d="M1117 1086 c-4 -9 -13 -16 -21 -16 -11 0 -12 -5 -3 -22 6 -14 19 -23
32 -23 13 0 26 9 33 23 8 17 7 22 -3 22 -8 0 -18 7 -23 16 -8 15 -10 15 -15 0z"/>
<path d="M705 1076 c-17 -9 -19 -15 -10 -31 5 -11 20 -20 32 -21 13 0 21 1 18
4 -2 3 0 12 5 21 12 24 -18 41 -45 27z"/>
<path d="M917 986 c-4 -9 -13 -16 -21 -16 -11 0 -12 -5 -3 -22 6 -14 19 -23
32 -23 13 0 26 9 33 23 8 17 7 22 -3 22 -8 0 -18 7 -23 16 -8 15 -10 15 -15 0z"/>
</g>
</svg>
